SplineFontDB: 3.0
FontName: tGstpolis
FullName: tGstpolis
FamilyName: tGstpolis
Weight: Book
Copyright: Copyright (c) 1993 Bigelow & Holmes Inc. All rights reserved. Pat. Des. 289,420. Pats. Pend.
Version: 5.00
ItalicAngle: 0
UnderlinePosition: -256
UnderlineWidth: 102
Ascent: 1638
Descent: 410
InvalidEm: 0
sfntRevision: 0x00050000
LayerCount: 2
Layer: 0 1 "Arri+AOgA-re" 1
Layer: 1 1 "Avant" 0
XUID: [1021 154 -600078931 20938]
StyleMap: 0x0000
FSType: 8
OS2Version: 1
OS2_WeightWidthSlopeOnly: 0
OS2_UseTypoMetrics: 0
CreationTime: 732549354
ModificationTime: 1457960478
PfmFamily: 17
TTFWeight: 400
TTFWidth: 5
LineGap: 0
VLineGap: 0
Panose: 2 11 6 2 3 5 4 2 2 4
OS2TypoAscent: 1604
OS2TypoAOffset: 0
OS2TypoDescent: -419
OS2TypoDOffset: 0
OS2TypoLinegap: 168
OS2WinAscent: 2246
OS2WinAOffset: 0
OS2WinDescent: 901
OS2WinDOffset: 0
HheadAscent: 2246
HheadAOffset: 0
HheadDescent: -901
HheadDOffset: 0
OS2SubXSize: 1434
OS2SubYSize: 1331
OS2SubXOff: 0
OS2SubYOff: 163
OS2SupXSize: 1434
OS2SupYSize: 1331
OS2SupXOff: 0
OS2SupYOff: 496
OS2StrikeYSize: 102
OS2StrikeYPos: 579
OS2Vendor: 'B&H '
OS2CodePages: 200000bf.d7f70000
OS2UnicodeRanges: 80001aff.0000396b.00000000.00000000
Lookup: 260 1 0 "'mark' Placement de signe diacritique dans H+AOkA-breu lookup 0" { "sous-table 'mark' Placement de signe diacritique dans H+AOkA-breu lookup 0"  } ['mark' ('hebr' <'dflt' > ) ]
Lookup: 260 1 0 "'mark' Placement de signe diacritique dans H+AOkA-breu lookup 1" { "sous-table 'mark' Placement de signe diacritique dans H+AOkA-breu lookup 1"  } ['mark' ('hebr' <'dflt' > ) ]
Lookup: 264 1 0 "'mark' Placement de signe diacritique dans H+AOkA-breu lookup 2" { "sous-table 'mark' Placement de signe diacritique dans H+AOkA-breu lookup 2"  } ['mark' ('hebr' <'dflt' > ) ]
Lookup: 260 1 0 "'mark' Placement de signe diacritique dans H+AOkA-breu lookup 3" { "sous-table 'mark' Placement de signe diacritique dans H+AOkA-breu lookup 3"  } ['mark' ('hebr' <'dflt' > ) ]

StartChar: .notdef
Encoding: 65536 -1 0
Width: 1536
GlyphClass: 2
Flags: W
LayerCount: 2
Fore
SplineSet
256 0 m 1,0,-1
 256 1280 l 1,1,-1
 1280 1280 l 1,2,-1
 1280 0 l 1,3,-1
 256 0 l 1,0,-1
320 64 m 1,4,-1
 1216 64 l 1,5,-1
 1216 1216 l 1,6,-1
 320 1216 l 1,7,-1
 320 64 l 1,4,-1
EndSplineSet
Validated: 1
EndChar

StartChar: exclam
Encoding: 33 33 4
Width: 648
GlyphClass: 2
Flags: W
LayerCount: 2
Fore
SplineSet
225 0 m 1,0,-1
 225 197 l 1,1,-1
 422 197 l 1,2,-1
 422 0 l 1,3,-1
 225 0 l 1,0,-1
250 395 m 1,4,-1
 225 1184 l 1,5,-1
 225 1480 l 1,6,-1
 422 1480 l 1,7,-1
 422 1184 l 1,8,-1
 398 395 l 1,9,-1
 250 395 l 1,4,-1
EndSplineSet
Validated: 1
EndChar

StartChar: quotedbl
Encoding: 34 34 5
Width: 765
GlyphClass: 2
Flags: W
LayerCount: 2
Fore
SplineSet
136 1086 m 1,0,-1
 111 1579 l 1,1,-1
 308 1579 l 1,2,-1
 284 1086 l 1,3,-1
 136 1086 l 1,0,-1
481 1086 m 1,4,-1
 456 1579 l 1,5,-1
 654 1579 l 1,6,-1
 629 1086 l 1,7,-1
 481 1086 l 1,4,-1
EndSplineSet
Validated: 1
EndChar

StartChar: numbersign
Encoding: 35 35 6
Width: 1295
GlyphClass: 2
Flags: W
LayerCount: 2
Fore
SplineSet
203 0 m 1,0,-1
 314 444 l 1,1,-1
 15 444 l 1,2,-1
 40 568 l 1,3,-1
 345 568 l 1,4,-1
 432 913 l 1,5,-1
 108 913 l 1,6,-1
 133 1036 l 1,7,-1
 462 1036 l 1,8,-1
 574 1480 l 1,9,-1
 701 1480 l 1,10,-1
 590 1036 l 1,11,-1
 853 1036 l 1,12,-1
 964 1480 l 1,13,-1
 1092 1480 l 1,14,-1
 981 1036 l 1,15,-1
 1280 1036 l 1,16,-1
 1256 913 l 1,17,-1
 950 913 l 1,18,-1
 863 568 l 1,19,-1
 1187 568 l 1,20,-1
 1162 444 l 1,21,-1
 833 444 l 1,22,-1
 722 0 l 1,23,-1
 594 0 l 1,24,-1
 705 444 l 1,25,-1
 442 444 l 1,26,-1
 331 0 l 1,27,-1
 203 0 l 1,0,-1
473 568 m 1,28,-1
 736 568 l 1,29,-1
 823 913 l 1,30,-1
 559 913 l 1,31,-1
 473 568 l 1,28,-1
EndSplineSet
Validated: 1
EndChar

StartChar: dollar
Encoding: 36 36 7
Width: 1295
GlyphClass: 2
Flags: W
LayerCount: 2
Fore
SplineSet
611 -123 m 1,0,-1
 611 0 l 1,1,2
 435 0 435 0 216 83 c 1,3,-1
 216 253 l 1,4,5
 442 148 442 148 611 148 c 1,6,-1
 611 679 l 1,7,8
 408 803 408 803 333.5 898 c 128,-1,9
 259 993 259 993 259 1125 c 0,10,11
 259 1273 259 1273 355.5 1370.5 c 128,-1,12
 452 1468 452 1468 611 1480 c 1,13,-1
 611 1604 l 1,14,-1
 709 1604 l 1,15,-1
 709 1480 l 1,16,17
 855 1480 855 1480 1030 1413 c 1,18,-1
 1030 1252 l 1,19,20
 838 1335 838 1335 709 1345 c 1,21,-1
 709 818 l 1,22,23
 763 785 763 785 790 769 c 0,24,25
 944 676 944 676 999.5 601.5 c 128,-1,26
 1055 527 1055 527 1055 414 c 0,27,28
 1055 257 1055 257 962 145.5 c 128,-1,29
 869 34 869 34 709 0 c 1,30,-1
 709 -123 l 1,31,-1
 611 -123 l 1,0,-1
709 160 m 1,32,33
 882 222 882 222 882 385 c 0,34,35
 882 456 882 456 849 501.5 c 128,-1,36
 816 547 816 547 709 621 c 1,37,-1
 709 160 l 1,32,33
611 883 m 1,38,-1
 611 1339 l 1,39,40
 432 1283 432 1283 432 1129 c 0,41,42
 432 1053 432 1053 469 1001.5 c 128,-1,43
 506 950 506 950 611 883 c 1,38,-1
EndSplineSet
Validated: 1
EndChar

StartChar: percent
Encoding: 37 37 8
Width: 1369
GlyphClass: 2
Flags: W
LayerCount: 2
Fore
SplineSet
24 -37 m 1,0,-1
 1190 1517 l 1,1,-1
 1344 1517 l 1,2,-1
 179 -37 l 1,3,-1
 24 -37 l 1,0,-1
327 740 m 0,4,5
 182 740 182 740 97 840 c 128,-1,6
 12 940 12 940 12 1110 c 0,7,8
 12 1281 12 1281 97 1380.5 c 128,-1,9
 182 1480 182 1480 327 1480 c 0,10,11
 471 1480 471 1480 556 1380.5 c 128,-1,12
 641 1281 641 1281 641 1110 c 0,13,14
 641 940 641 940 556 840 c 128,-1,15
 471 740 471 740 327 740 c 0,4,5
327 839 m 0,16,17
 403 839 403 839 448 912.5 c 128,-1,18
 493 986 493 986 493 1110 c 0,19,20
 493 1235 493 1235 448 1308.5 c 128,-1,21
 403 1382 403 1382 327 1382 c 0,22,23
 250 1382 250 1382 205 1308.5 c 128,-1,24
 160 1235 160 1235 160 1110 c 0,25,26
 160 986 160 986 205 912.5 c 128,-1,27
 250 839 250 839 327 839 c 0,16,17
1042 0 m 256,28,29
 897 0 897 0 812.5 100 c 128,-1,30
 728 200 728 200 728 370 c 256,31,32
 728 540 728 540 812.5 640 c 128,-1,33
 897 740 897 740 1042 740 c 256,34,35
 1187 740 1187 740 1272 640 c 128,-1,36
 1357 540 1357 540 1357 370 c 256,37,38
 1357 200 1357 200 1272 100 c 128,-1,39
 1187 0 1187 0 1042 0 c 256,28,29
1042 99 m 0,40,41
 1119 99 1119 99 1164 172 c 128,-1,42
 1209 245 1209 245 1209 370 c 256,43,44
 1209 495 1209 495 1164 568.5 c 128,-1,45
 1119 642 1119 642 1042 642 c 0,46,47
 966 642 966 642 921 568.5 c 128,-1,48
 876 495 876 495 876 370 c 256,49,50
 876 245 876 245 921 172 c 128,-1,51
 966 99 966 99 1042 99 c 0,40,41
EndSplineSet
Validated: 1
EndChar

StartChar: ampersand
Encoding: 38 38 9
Width: 1428
GlyphClass: 2
Flags: W
LayerCount: 2
Fore
SplineSet
1061 0 m 1,0,-1
 988 88 l 1,1,2
 824 -37 824 -37 605 -37 c 0,3,4
 373 -37 373 -37 223.5 97.5 c 128,-1,5
 74 232 74 232 74 440 c 0,6,7
 74 782 74 782 435 904 c 1,8,9
 335 1085 335 1085 335 1205 c 0,10,11
 335 1336 335 1336 439 1426.5 c 128,-1,12
 543 1517 543 1517 693 1517 c 0,13,14
 837 1517 837 1517 930.5 1432.5 c 128,-1,15
 1024 1348 1024 1348 1024 1218 c 0,16,17
 1024 996 1024 996 699 832 c 1,18,19
 848 568 848 568 1046 339 c 1,20,21
 1137 472 1137 472 1137 715 c 2,22,-1
 1136 787 l 1,23,-1
 1332 787 l 1,24,25
 1332 459 1332 459 1136 221 c 1,26,27
 1226 107 1226 107 1341 0 c 1,28,-1
 1061 0 l 1,0,-1
902 202 m 1,29,30
 692 460 692 460 502 787 c 1,31,32
 271 695 271 695 271 488 c 0,33,34
 271 331 271 331 377.5 221 c 128,-1,35
 484 111 484 111 637 111 c 0,36,37
 776 111 776 111 902 202 c 1,29,30
627 957 m 1,38,39
 839 1054 839 1054 839 1215 c 0,40,41
 839 1285 839 1285 796.5 1327 c 128,-1,42
 754 1369 754 1369 685 1369 c 256,43,44
 616 1369 616 1369 574.5 1326.5 c 128,-1,45
 533 1284 533 1284 533 1214 c 0,46,47
 533 1112 533 1112 627 957 c 1,38,39
EndSplineSet
Validated: 1
EndChar

StartChar: quotesingle
Encoding: 39 39 10
Width: 469
GlyphClass: 2
Flags: W
LayerCount: 2
Fore
SplineSet
160 1036 m 1,0,-1
 111 1579 l 1,1,-1
 358 1579 l 1,2,-1
 308 1036 l 1,3,-1
 160 1036 l 1,0,-1
EndSplineSet
Validated: 1
EndChar

StartChar: parenleft
Encoding: 40 40 11
Width: 666
GlyphClass: 2
Flags: W
LayerCount: 2
Fore
SplineSet
592 -160 m 1,0,-1
 592 -296 l 1,1,2
 376 -149 376 -149 249.5 103.5 c 128,-1,3
 123 356 123 356 123 642 c 0,4,5
 123 927 123 927 249.5 1179.5 c 128,-1,6
 376 1432 376 1432 592 1579 c 1,7,-1
 592 1443 l 1,8,9
 445 1283 445 1283 382.5 1099 c 128,-1,10
 320 915 320 915 320 642 c 0,11,12
 320 368 320 368 382.5 184 c 128,-1,13
 445 0 445 0 592 -160 c 1,0,-1
EndSplineSet
Validated: 1
EndChar

StartChar: parenright
Encoding: 41 41 12
Width: 666
GlyphClass: 2
Flags: W
LayerCount: 2
Fore
SplineSet
74 1443 m 1,0,-1
 74 1579 l 1,1,2
 290 1432 290 1432 416.5 1179.5 c 128,-1,3
 543 927 543 927 543 642 c 0,4,5
 543 356 543 356 416.5 103.5 c 128,-1,6
 290 -149 290 -149 74 -296 c 1,7,-1
 74 -160 l 1,8,9
 221 0 221 0 283 184 c 128,-1,10
 345 368 345 368 345 642 c 0,11,12
 345 915 345 915 283 1099.5 c 128,-1,13
 221 1284 221 1284 74 1443 c 1,0,-1
EndSplineSet
Validated: 1
EndChar

StartChar: asterisk
Encoding: 42 42 13
Width: 987
GlyphClass: 2
Flags: W
LayerCount: 2
Fore
SplineSet
832 1289 m 1,0,-1
 877 1148 l 1,1,-1
 574 1082 l 1,2,-1
 577 1097 l 1,3,4
 577 1138 577 1138 548 1164 c 1,5,-1
 832 1289 l 1,0,-1
777 838 m 1,6,-1
 657 751 l 1,7,-1
 500 1018 l 1,8,9
 551 1024 551 1024 570 1069 c 1,10,-1
 777 838 l 1,6,-1
331 751 m 1,11,-1
 211 838 l 1,12,-1
 417 1069 l 1,13,14
 437 1024 437 1024 487 1018 c 1,15,-1
 331 751 l 1,11,-1
110 1148 m 1,16,-1
 156 1289 l 1,17,-1
 440 1164 l 1,18,19
 411 1139 411 1139 411 1097 c 1,20,-1
 413 1082 l 1,21,-1
 110 1148 l 1,16,-1
420 1480 m 1,22,-1
 568 1480 l 1,23,-1
 537 1172 l 1,24,25
 519 1183 519 1183 494 1183 c 256,26,27
 469 1183 469 1183 451 1172 c 1,28,-1
 420 1480 l 1,22,-1
EndSplineSet
Validated: 1
EndChar

StartChar: plus
Encoding: 43 43 14
Width: 1628
GlyphClass: 2
Flags: W
LayerCount: 2
Fore
SplineSet
765 0 m 1,0,-1
 765 543 l 1,1,-1
 222 543 l 1,2,-1
 222 642 l 1,3,-1
 765 642 l 1,4,-1
 765 1184 l 1,5,-1
 864 1184 l 1,6,-1
 864 642 l 1,7,-1
 1406 642 l 1,8,-1
 1406 543 l 1,9,-1
 864 543 l 1,10,-1
 864 0 l 1,11,-1
 765 0 l 1,0,-1
EndSplineSet
Validated: 1
EndChar

StartChar: comma
Encoding: 44 44 15
Width: 648
GlyphClass: 2
Flags: W
LayerCount: 2
Fore
SplineSet
200 -321 m 1,0,-1
 200 -247 l 1,1,2
 296 -220 296 -220 296 -20 c 2,3,-1
 296 0 l 1,4,-1
 200 0 l 1,5,-1
 200 247 l 1,6,-1
 447 247 l 1,7,-1
 447 33 l 2,8,9
 447 -296 447 -296 200 -321 c 1,0,-1
EndSplineSet
Validated: 1
EndChar

StartChar: hyphen
Encoding: 45 45 16
Width: 1185
GlyphClass: 2
Flags: W
LayerCount: 2
Fore
SplineSet
148 543 m 1,0,-1
 148 666 l 1,1,-1
 1036 666 l 1,2,-1
 1036 543 l 1,3,-1
 148 543 l 1,0,-1
EndSplineSet
Validated: 1
EndChar

StartChar: period
Encoding: 46 46 17
Width: 648
GlyphClass: 2
Flags: W
LayerCount: 2
Fore
SplineSet
200 0 m 1,0,-1
 200 247 l 1,1,-1
 447 247 l 1,2,-1
 447 0 l 1,3,-1
 200 0 l 1,0,-1
EndSplineSet
Validated: 1
EndChar

StartChar: slash
Encoding: 47 47 18
Width: 1074
GlyphClass: 2
Flags: W
LayerCount: 2
Fore
SplineSet
222 -296 m 1,0,-1
 748 1481 l 1,1,-1
 852 1481 l 1,2,-1
 326 -296 l 1,3,-1
 222 -296 l 1,0,-1
EndSplineSet
Validated: 1
EndChar

StartChar: zero
Encoding: 48 48 19
Width: 1295
GlyphClass: 2
Flags: W
LayerCount: 2
Fore
SplineSet
648 -37 m 0,0,1
 415 -37 415 -37 272.5 176.5 c 128,-1,2
 130 390 130 390 130 740 c 256,3,4
 130 1090 130 1090 272.5 1303.5 c 128,-1,5
 415 1517 415 1517 648 1517 c 0,6,7
 882 1517 882 1517 1024 1304 c 128,-1,8
 1166 1091 1166 1091 1166 740 c 0,9,10
 1166 390 1166 390 1024 176.5 c 128,-1,11
 882 -37 882 -37 648 -37 c 0,0,1
648 111 m 0,12,13
 957 111 957 111 957 740 c 256,14,15
 957 1369 957 1369 648 1369 c 0,16,17
 340 1369 340 1369 340 740 c 256,18,19
 340 111 340 111 648 111 c 0,12,13
EndSplineSet
Validated: 1
EndChar

StartChar: one
Encoding: 49 49 20
Width: 1295
GlyphClass: 2
Flags: W
LayerCount: 2
Fore
SplineSet
536 0 m 1,0,-1
 536 1332 l 1,1,-1
 302 1332 l 1,2,-1
 302 1456 l 1,3,-1
 734 1493 l 1,4,-1
 734 0 l 1,5,-1
 536 0 l 1,0,-1
EndSplineSet
Validated: 1
EndChar

StartChar: two
Encoding: 50 50 21
Width: 1295
GlyphClass: 2
Flags: W
LayerCount: 2
Fore
SplineSet
170 0 m 1,0,-1
 170 173 l 1,1,2
 256 374 256 374 518 611 c 2,3,-1
 631 712 l 2,4,5
 849 909 849 909 849 1103 c 0,6,7
 849 1227 849 1227 774.5 1298 c 128,-1,8
 700 1369 700 1369 569 1369 c 0,9,10
 416 1369 416 1369 207 1250 c 1,11,-1
 207 1424 l 1,12,13
 404 1517 404 1517 599 1517 c 0,14,15
 807 1517 807 1517 932.5 1405 c 128,-1,16
 1058 1293 1058 1293 1058 1108 c 0,17,18
 1058 975 1058 975 994.5 872 c 128,-1,19
 931 769 931 769 758 622 c 2,20,-1
 682 557 l 2,21,22
 445 356 445 356 408 173 c 1,23,-1
 1051 173 l 1,24,-1
 1051 0 l 1,25,-1
 170 0 l 1,0,-1
EndSplineSet
Validated: 1
EndChar

StartChar: three
Encoding: 51 51 22
Width: 1295
GlyphClass: 2
Flags: W
LayerCount: 2
Fore
SplineSet
208 11 m 1,0,-1
 208 195 l 1,1,2
 419 111 419 111 540 111 c 0,3,4
 683 111 683 111 771.5 193 c 128,-1,5
 860 275 860 275 860 407 c 0,6,7
 860 719 860 719 423 719 c 2,8,-1
 345 719 l 1,9,-1
 345 852 l 1,10,-1
 414 853 l 1,11,12
 824 853 824 853 824 1142 c 0,13,14
 824 1369 824 1369 552 1369 c 0,15,16
 406 1369 406 1369 228 1286 c 1,17,-1
 228 1458 l 1,18,19
 403 1517 403 1517 565 1517 c 0,20,21
 786 1517 786 1517 904 1429 c 128,-1,22
 1022 1341 1022 1341 1022 1174 c 0,23,24
 1022 913 1022 913 713 802 c 1,25,26
 1071 719 1071 719 1071 410 c 0,27,28
 1071 201 1071 201 933 82 c 128,-1,29
 795 -37 795 -37 554 -37 c 0,30,31
 417 -37 417 -37 208 11 c 1,0,-1
EndSplineSet
Validated: 1
EndChar

StartChar: four
Encoding: 52 52 23
Width: 1295
GlyphClass: 2
Flags: W
LayerCount: 2
Fore
SplineSet
771 0 m 1,0,-1
 771 419 l 1,1,-1
 105 419 l 1,2,-1
 105 568 l 1,3,-1
 771 1480 l 1,4,-1
 956 1480 l 1,5,-1
 956 580 l 1,6,-1
 1154 580 l 1,7,-1
 1154 419 l 1,8,-1
 956 419 l 1,9,-1
 956 0 l 1,10,-1
 771 0 l 1,0,-1
298 580 m 1,11,-1
 784 580 l 1,12,-1
 784 1238 l 1,13,-1
 298 580 l 1,11,-1
EndSplineSet
Validated: 1
EndChar

StartChar: five
Encoding: 53 53 24
Width: 1295
GlyphClass: 2
Flags: W
LayerCount: 2
Fore
SplineSet
249 -6 m 1,0,-1
 249 170 l 1,1,2
 396 111 396 111 529 111 c 0,3,4
 675 111 675 111 758.5 197 c 128,-1,5
 842 283 842 283 842 434 c 0,6,7
 842 596 842 596 724 681.5 c 128,-1,8
 606 767 606 767 383 767 c 0,9,10
 331 767 331 767 274 760 c 1,11,-1
 274 1480 l 1,12,-1
 1023 1480 l 1,13,-1
 1023 1308 l 1,14,-1
 447 1308 l 1,15,-1
 447 918 l 1,16,17
 732 918 732 918 892 787 c 128,-1,18
 1052 656 1052 656 1052 424 c 0,19,20
 1052 208 1052 208 906.5 85.5 c 128,-1,21
 761 -37 761 -37 505 -37 c 0,22,23
 391 -37 391 -37 249 -6 c 1,0,-1
EndSplineSet
Validated: 1
EndChar

StartChar: six
Encoding: 54 54 25
Width: 1295
GlyphClass: 2
Flags: W
LayerCount: 2
Fore
SplineSet
352 767 m 1,0,1
 493 950 493 950 707 950 c 0,2,3
 901 950 901 950 1024.5 821.5 c 128,-1,4
 1148 693 1148 693 1148 492 c 0,5,6
 1148 261 1148 261 1009.5 112 c 128,-1,7
 871 -37 871 -37 657 -37 c 0,8,9
 413 -37 413 -37 275 160.5 c 128,-1,10
 137 358 137 358 137 707 c 0,11,12
 137 1177 137 1177 378 1397 c 0,13,14
 509 1518 509 1518 740 1518 c 0,15,16
 874 1518 874 1518 1072 1462 c 1,17,-1
 1072 1290 l 1,18,19
 863 1370 863 1370 728 1370 c 0,20,21
 352 1370 352 1370 352 767 c 1,0,1
950 453 m 0,22,23
 950 617 950 617 874 712.5 c 128,-1,24
 798 808 798 808 666 808 c 0,25,26
 540 808 540 808 450 724 c 128,-1,27
 360 640 360 640 360 522 c 0,28,29
 360 336 360 336 445.5 223.5 c 128,-1,30
 531 111 531 111 672 111 c 0,31,32
 800 111 800 111 875 203 c 128,-1,33
 950 295 950 295 950 453 c 0,22,23
EndSplineSet
Validated: 1
EndChar

StartChar: seven
Encoding: 55 55 26
Width: 1295
GlyphClass: 2
Flags: W
LayerCount: 2
Fore
SplineSet
308 0 m 1,0,1
 337 173 337 173 390.5 299 c 128,-1,2
 444 425 444 425 580 645 c 2,3,-1
 984 1295 l 1,4,-1
 222 1295 l 1,5,-1
 222 1480 l 1,6,-1
 1172 1480 l 1,7,-1
 1172 1295 l 1,8,9
 603 456 603 456 535 0 c 1,10,-1
 308 0 l 1,0,1
EndSplineSet
Validated: 1
EndChar

StartChar: eight
Encoding: 56 56 27
Width: 1295
GlyphClass: 2
Flags: W
LayerCount: 2
Fore
SplineSet
471 806 m 1,0,1
 349 891 349 891 301.5 964 c 128,-1,2
 254 1037 254 1037 254 1140 c 0,3,4
 254 1308 254 1308 377 1413 c 128,-1,5
 500 1518 500 1518 698 1518 c 0,6,7
 881 1518 881 1518 994.5 1429 c 128,-1,8
 1108 1340 1108 1340 1108 1198 c 0,9,10
 1108 983 1108 983 832 806 c 1,11,12
 1167 642 1167 642 1167 383 c 0,13,14
 1167 198 1167 198 1027 80.5 c 128,-1,15
 887 -37 887 -37 667 -37 c 256,16,17
 447 -37 447 -37 312 73.5 c 128,-1,18
 177 184 177 184 177 364 c 0,19,20
 177 630 177 630 471 806 c 1,0,1
722 868 m 1,21,22
 929 1004 929 1004 929 1171 c 0,23,24
 929 1260 929 1260 859.5 1314.5 c 128,-1,25
 790 1369 790 1369 678 1369 c 0,26,27
 569 1369 569 1369 501 1315.5 c 128,-1,28
 433 1262 433 1262 433 1177 c 0,29,30
 433 1094 433 1094 494.5 1028 c 128,-1,31
 556 962 556 962 722 868 c 1,21,22
578 726 m 1,32,33
 459 634 459 634 416.5 565.5 c 128,-1,34
 374 497 374 497 374 395 c 0,35,36
 374 268 374 268 456 189.5 c 128,-1,37
 538 111 538 111 672 111 c 0,38,39
 801 111 801 111 882.5 178 c 128,-1,40
 964 245 964 245 964 352 c 0,41,42
 964 438 964 438 913.5 497.5 c 128,-1,43
 863 557 863 557 718 643 c 2,44,-1
 578 726 l 1,32,33
EndSplineSet
Validated: 1
EndChar

StartChar: nine
Encoding: 57 57 28
Width: 1295
GlyphClass: 2
Flags: W
LayerCount: 2
Fore
SplineSet
233 9 m 1,0,-1
 233 176 l 1,1,2
 421 111 421 111 553 111 c 0,3,4
 737 111 737 111 840.5 267.5 c 128,-1,5
 944 424 944 424 944 703 c 1,6,7
 794 518 794 518 603 518 c 0,8,9
 416 518 416 518 286 655.5 c 128,-1,10
 156 793 156 793 156 991 c 0,11,12
 156 1218 156 1218 294.5 1367.5 c 128,-1,13
 433 1517 433 1517 643 1517 c 0,14,15
 884 1517 884 1517 1023 1323.5 c 128,-1,16
 1162 1130 1162 1130 1162 794 c 0,17,18
 1162 580 1162 580 1095 391.5 c 128,-1,19
 1028 203 1028 203 915 98 c 0,20,21
 770 -37 770 -37 534 -37 c 0,22,23
 418 -37 418 -37 233 9 c 1,0,-1
353 1025 m 0,24,25
 353 856 353 856 430 758 c 128,-1,26
 507 660 507 660 638 660 c 0,27,28
 764 660 764 660 852.5 745 c 128,-1,29
 941 830 941 830 941 950 c 0,30,31
 941 1139 941 1139 855.5 1254.5 c 128,-1,32
 770 1370 770 1370 631 1370 c 0,33,34
 501 1370 501 1370 427 1278 c 128,-1,35
 353 1186 353 1186 353 1025 c 0,24,25
EndSplineSet
Validated: 1
EndChar

StartChar: colon
Encoding: 58 58 29
Width: 648
GlyphClass: 2
Flags: W
LayerCount: 2
Fore
SplineSet
225 0 m 1,0,-1
 225 197 l 1,1,-1
 422 197 l 1,2,-1
 422 0 l 1,3,-1
 225 0 l 1,0,-1
225 888 m 1,4,-1
 225 1086 l 1,5,-1
 422 1086 l 1,6,-1
 422 888 l 1,7,-1
 225 888 l 1,4,-1
EndSplineSet
Validated: 1
EndChar

StartChar: semicolon
Encoding: 59 59 30
Width: 648
GlyphClass: 2
Flags: W
LayerCount: 2
Fore
SplineSet
225 -321 m 1,0,-1
 225 -247 l 1,1,2
 296 -210 296 -210 296 -23 c 2,3,-1
 296 0 l 1,4,-1
 225 0 l 1,5,-1
 225 197 l 1,6,-1
 422 197 l 1,7,-1
 422 31 l 2,8,9
 422 -272 422 -272 225 -321 c 1,0,-1
225 888 m 1,10,-1
 225 1086 l 1,11,-1
 422 1086 l 1,12,-1
 422 888 l 1,13,-1
 225 888 l 1,10,-1
EndSplineSet
Validated: 1
EndChar

StartChar: less
Encoding: 60 60 31
Width: 1628
GlyphClass: 2
Flags: W
LayerCount: 2
Fore
SplineSet
1406 0 m 1,0,-1
 222 592 l 1,1,-1
 1406 1184 l 1,2,-1
 1406 1074 l 1,3,-1
 445 591 l 1,4,-1
 1406 110 l 1,5,-1
 1406 0 l 1,0,-1
EndSplineSet
Validated: 1
EndChar

StartChar: equal
Encoding: 61 61 32
Width: 1628
GlyphClass: 2
Flags: W
LayerCount: 2
Fore
SplineSet
222 358 m 1,0,-1
 222 456 l 1,1,-1
 1406 456 l 1,2,-1
 1406 358 l 1,3,-1
 222 358 l 1,0,-1
222 728 m 1,4,-1
 222 827 l 1,5,-1
 1406 827 l 1,6,-1
 1406 728 l 1,7,-1
 222 728 l 1,4,-1
EndSplineSet
Validated: 1
EndChar

StartChar: greater
Encoding: 62 62 33
Width: 1628
GlyphClass: 2
Flags: W
LayerCount: 2
Fore
SplineSet
222 0 m 1,0,-1
 222 110 l 1,1,-1
 1184 593 l 1,2,-1
 222 1074 l 1,3,-1
 222 1184 l 1,4,-1
 1406 592 l 1,5,-1
 222 0 l 1,0,-1
EndSplineSet
Validated: 1
EndChar

StartChar: question
Encoding: 63 63 34
Width: 864
GlyphClass: 2
Flags: W
LayerCount: 2
Fore
SplineSet
250 0 m 1,0,-1
 250 197 l 1,1,-1
 447 197 l 1,2,-1
 447 0 l 1,3,-1
 250 0 l 1,0,-1
250 395 m 1,4,-1
 250 449 l 2,5,6
 250 561 250 561 280.5 635 c 128,-1,7
 311 709 311 709 397 808 c 2,8,-1
 460 881 l 2,9,10
 617 1061 617 1061 617 1176 c 0,11,12
 617 1265 617 1265 547.5 1317 c 128,-1,13
 478 1369 478 1369 360 1369 c 0,14,15
 209 1369 209 1369 37 1295 c 1,16,-1
 37 1462 l 1,17,18
 222 1518 222 1518 385 1518 c 0,19,20
 588 1518 588 1518 707.5 1426.5 c 128,-1,21
 827 1335 827 1335 827 1179 c 0,22,23
 827 1091 827 1091 792.5 1027.5 c 128,-1,24
 758 964 758 964 660 871 c 2,25,-1
 598 813 l 2,26,27
 505 725 505 725 476 665.5 c 128,-1,28
 447 606 447 606 447 505 c 2,29,-1
 447 395 l 1,30,-1
 250 395 l 1,4,-1
EndSplineSet
Validated: 1
EndChar

StartChar: at
Encoding: 64 64 35
Width: 1758
GlyphClass: 2
Flags: W
LayerCount: 2
Fore
SplineSet
1093 44 m 1,0,1
 913 -37 913 -37 740 -37 c 0,2,3
 459 -37 459 -37 276 136.5 c 128,-1,4
 93 310 93 310 93 576 c 0,5,6
 93 915 93 915 337 1196 c 0,7,8
 467 1345 467 1345 652.5 1431 c 128,-1,9
 838 1517 838 1517 1028 1517 c 0,10,11
 1307 1517 1307 1517 1495.5 1337 c 128,-1,12
 1684 1157 1684 1157 1684 890 c 0,13,14
 1684 643 1684 643 1533 469.5 c 128,-1,15
 1382 296 1382 296 1167 296 c 0,16,17
 1000 296 1000 296 1000 411 c 0,18,19
 1000 453 1000 453 1021 516 c 2,20,-1
 1061 642 l 1,21,-1
 1049 642 l 1,22,23
 868 296 868 296 662 296 c 0,24,25
 575 296 575 296 522 357 c 128,-1,26
 469 418 469 418 469 520 c 0,27,28
 469 661 469 661 541 820.5 c 128,-1,29
 613 980 613 980 719 1072 c 0,30,31
 841 1178 841 1178 994 1178 c 0,32,33
 1025 1178 1025 1178 1073 1175 c 0,34,35
 1122 1172 1122 1172 1151 1172 c 2,36,-1
 1288 1172 l 1,37,-1
 1162 536 l 2,38,39
 1156 504 1156 504 1156 474 c 0,40,41
 1156 407 1156 407 1232 407 c 0,42,43
 1365 407 1365 407 1469 549 c 128,-1,44
 1573 691 1573 691 1573 873 c 0,45,46
 1573 1103 1573 1103 1414 1255 c 128,-1,47
 1255 1407 1255 1407 1013 1407 c 0,48,49
 696 1407 696 1407 450 1157.5 c 128,-1,50
 204 908 204 908 204 586 c 0,51,52
 204 361 204 361 358.5 217.5 c 128,-1,53
 513 74 513 74 756 74 c 0,54,55
 913 74 913 74 1057 146 c 1,56,-1
 1093 44 l 1,0,1
1073 833 m 1,57,-1
 1112 1028 l 1,58,59
 1020 1061 1020 1061 952 1061 c 0,60,61
 852 1061 852 1061 788 1005 c 0,62,63
 720 946 720 946 671.5 816 c 128,-1,64
 623 686 623 686 623 561 c 0,65,66
 623 419 623 419 706 419 c 0,67,68
 767 419 767 419 867.5 532.5 c 128,-1,69
 968 646 968 646 1073 833 c 1,57,-1
EndSplineSet
Validated: 1
EndChar

StartChar: A
Encoding: 65 65 36
Width: 1390
GlyphClass: 2
Flags: W
LayerCount: 2
Fore
SplineSet
15 0 m 1,0,-1
 602 1480 l 1,1,-1
 810 1480 l 1,2,-1
 1388 0 l 1,3,-1
 1161 0 l 1,4,-1
 1000 410 l 1,5,-1
 373 410 l 1,6,-1
 210 0 l 1,7,-1
 15 0 l 1,0,-1
434 566 m 1,8,-1
 939 566 l 1,9,-1
 687 1204 l 1,10,-1
 434 566 l 1,8,-1
EndSplineSet
Validated: 1
EndChar

StartChar: B
Encoding: 66 66 37
Width: 910
GlyphClass: 2
Flags: W
LayerCount: 2
Fore
SplineSet
3 0 m 1,0,-1
 3 1480 l 1,1,-1
 387 1480 l 2,2,3
 609 1480 609 1480 727.5 1396 c 128,-1,4
 846 1312 846 1312 846 1154 c 0,5,6
 846 1026 846 1026 767 926 c 128,-1,7
 688 826 688 826 542 771 c 1,8,9
 905 660 905 660 905 370 c 0,10,11
 905 240 905 240 825 139 c 0,12,13
 764 62 764 62 678 31 c 128,-1,14
 592 0 592 0 439 0 c 2,15,-1
 3 0 l 1,0,-1
211 157 m 1,16,-1
 254 157 l 2,17,18
 485 157 485 157 553 186 c 0,19,20
 683 241 683 241 683 390 c 0,21,22
 683 522 683 522 565 609.5 c 128,-1,23
 447 697 447 697 270 697 c 2,24,-1
 211 697 l 1,25,-1
 211 157 l 1,16,-1
211 830 m 1,26,-1
 278 830 l 2,27,28
 447 830 447 830 539 902 c 128,-1,29
 631 974 631 974 631 1107 c 0,30,31
 631 1323 631 1323 293 1323 c 2,32,-1
 211 1323 l 1,33,-1
 211 830 l 1,26,-1
EndSplineSet
Validated: 1
EndChar

StartChar: C
Encoding: 67 67 38
Width: 1201
GlyphClass: 2
Flags: W
LayerCount: 2
Fore
SplineSet
1195 76 m 1,0,1
 976 -37 976 -37 717 -37 c 0,2,3
 372 -37 372 -37 184 165 c 128,-1,4
 -4 367 -4 367 -4 739 c 0,5,6
 -4 1110 -4 1110 187.5 1313.5 c 128,-1,7
 379 1517 379 1517 728 1517 c 0,8,9
 926 1517 926 1517 1193 1452 c 1,10,-1
 1193 1255 l 1,11,12
 889 1360 889 1360 724 1360 c 0,13,14
 483 1360 483 1360 351 1197 c 128,-1,15
 219 1034 219 1034 219 737 c 0,16,17
 219 453 219 453 360 290 c 128,-1,18
 501 127 501 127 746 127 c 0,19,20
 955 127 955 127 1195 256 c 1,21,-1
 1195 76 l 1,0,1
EndSplineSet
Validated: 1
EndChar

StartChar: D
Encoding: 68 68 39
Width: 1242
GlyphClass: 2
Flags: W
LayerCount: 2
Fore
SplineSet
-5 0 m 1,0,-1
 -5 1480 l 1,1,-1
 487 1480 l 2,2,3
 707 1480 707 1480 842.5 1431 c 128,-1,4
 978 1382 978 1382 1077 1265 c 0,5,6
 1234 1079 1234 1079 1234 775 c 0,7,8
 1234 432 1234 432 1050 219 c 0,9,10
 950 102 950 102 818.5 51 c 128,-1,11
 687 0 687 0 490 0 c 2,12,-1
 -5 0 l 1,0,-1
205 157 m 1,13,-1
 474 157 l 2,14,15
 762 157 762 157 882 312 c 0,16,17
 1011 477 1011 477 1011 755 c 0,18,19
 1011 1016 1011 1016 884 1165 c 0,20,21
 807 1256 807 1256 700 1289.5 c 128,-1,22
 593 1323 593 1323 378 1323 c 2,23,-1
 205 1323 l 1,24,-1
 205 157 l 1,13,-1
EndSplineSet
Validated: 1
EndChar

StartChar: E
Encoding: 69 69 40
Width: 882
GlyphClass: 2
Flags: W
LayerCount: 2
Fore
SplineSet
7 0 m 1,0,-1
 7 1480 l 1,1,-1
 834 1480 l 1,2,-1
 834 1323 l 1,3,-1
 217 1323 l 1,4,-1
 217 848 l 1,5,-1
 734 848 l 1,6,-1
 734 693 l 1,7,-1
 217 693 l 1,8,-1
 217 157 l 1,9,-1
 877 157 l 1,10,-1
 877 0 l 1,11,-1
 7 0 l 1,0,-1
EndSplineSet
Validated: 1
EndChar

StartChar: F
Encoding: 70 70 41
Width: 834
GlyphClass: 2
Flags: W
LayerCount: 2
Fore
SplineSet
3 0 m 1,0,-1
 3 1480 l 1,1,-1
 830 1480 l 1,2,-1
 830 1323 l 1,3,-1
 213 1323 l 1,4,-1
 213 827 l 1,5,-1
 731 827 l 1,6,-1
 731 672 l 1,7,-1
 213 672 l 1,8,-1
 213 0 l 1,9,-1
 3 0 l 1,0,-1
EndSplineSet
Validated: 1
EndChar

StartChar: G
Encoding: 71 71 42
Width: 1212
GlyphClass: 2
Flags: W
LayerCount: 2
Fore
SplineSet
1207 40 m 1,0,1
 938 -37 938 -37 738 -37 c 0,2,3
 385 -37 385 -37 196.5 163.5 c 128,-1,4
 8 364 8 364 8 740 c 0,5,6
 8 1110 8 1110 199.5 1313.5 c 128,-1,7
 391 1517 391 1517 738 1517 c 0,8,9
 961 1517 961 1517 1205 1450 c 1,10,-1
 1205 1256 l 1,11,12
 899 1360 899 1360 736 1360 c 0,13,14
 496 1360 496 1360 363.5 1197.5 c 128,-1,15
 231 1035 231 1035 231 739 c 0,16,17
 231 446 231 446 373 283 c 128,-1,18
 515 120 515 120 771 120 c 0,19,20
 876 120 876 120 998 157 c 1,21,-1
 998 639 l 1,22,-1
 1207 639 l 1,23,-1
 1207 40 l 1,0,1
EndSplineSet
Validated: 1
EndChar

StartChar: H
Encoding: 72 72 43
Width: 1133
GlyphClass: 2
Flags: W
LayerCount: 2
Fore
SplineSet
7 0 m 1,0,-1
 7 1480 l 1,1,-1
 217 1480 l 1,2,-1
 217 856 l 1,3,-1
 921 856 l 1,4,-1
 921 1480 l 1,5,-1
 1131 1480 l 1,6,-1
 1131 0 l 1,7,-1
 921 0 l 1,8,-1
 921 699 l 1,9,-1
 217 699 l 1,10,-1
 217 0 l 1,11,-1
 7 0 l 1,0,-1
EndSplineSet
Validated: 1
EndChar

StartChar: I
Encoding: 73 73 44
Width: 230
GlyphClass: 2
Flags: W
LayerCount: 2
Fore
SplineSet
6 0 m 1,0,-1
 6 1480 l 1,1,-1
 216 1480 l 1,2,-1
 216 0 l 1,3,-1
 6 0 l 1,0,-1
EndSplineSet
Validated: 1
EndChar

StartChar: J
Encoding: 74 74 45
Width: 649
GlyphClass: 2
Flags: W
LayerCount: 2
Fore
SplineSet
-8 -275 m 1,0,-1
 -8 -89 l 1,1,2
 112 -128 112 -128 206 -128 c 0,3,4
 324 -128 324 -128 371.5 -59 c 128,-1,5
 419 10 419 10 419 180 c 2,6,-1
 419 1480 l 1,7,-1
 629 1480 l 1,8,-1
 629 187 l 2,9,10
 629 -296 629 -296 172 -296 c 0,11,12
 102 -296 102 -296 -8 -275 c 1,0,-1
EndSplineSet
Validated: 1
EndChar

StartChar: K
Encoding: 75 75 46
Width: 1129
GlyphClass: 2
Flags: W
LayerCount: 2
Fore
SplineSet
7 0 m 1,0,-1
 7 1480 l 1,1,-1
 204 1480 l 1,2,-1
 204 752 l 1,3,-1
 803 1480 l 1,4,-1
 1014 1480 l 1,5,-1
 434 774 l 1,6,-1
 1117 0 l 1,7,-1
 851 0 l 1,8,-1
 204 750 l 1,9,-1
 204 0 l 1,10,-1
 7 0 l 1,0,-1
EndSplineSet
Validated: 1
EndChar

StartChar: L
Encoding: 76 76 47
Width: 884
GlyphClass: 2
Flags: W
LayerCount: 2
Fore
SplineSet
3 0 m 1,0,-1
 3 1480 l 1,1,-1
 213 1480 l 1,2,-1
 213 157 l 1,3,-1
 879 157 l 1,4,-1
 879 0 l 1,5,-1
 3 0 l 1,0,-1
EndSplineSet
Validated: 1
EndChar

StartChar: M
Encoding: 77 77 48
Width: 1396
GlyphClass: 2
Flags: W
LayerCount: 2
Fore
SplineSet
3 0 m 1,0,-1
 3 1480 l 1,1,-1
 294 1480 l 1,2,-1
 704 335 l 1,3,-1
 1126 1480 l 1,4,-1
 1386 1480 l 1,5,-1
 1386 0 l 1,6,-1
 1190 0 l 1,7,-1
 1190 1204 l 1,8,-1
 782 99 l 1,9,-1
 579 99 l 1,10,-1
 183 1207 l 1,11,-1
 183 0 l 1,12,-1
 3 0 l 1,0,-1
EndSplineSet
Validated: 1
EndChar

StartChar: N
Encoding: 78 78 49
Width: 1157
GlyphClass: 2
Flags: W
LayerCount: 2
Fore
SplineSet
7 0 m 1,0,-1
 7 1480 l 1,1,-1
 213 1480 l 1,2,-1
 958 337 l 1,3,-1
 958 1480 l 1,4,-1
 1138 1480 l 1,5,-1
 1138 0 l 1,6,-1
 933 0 l 1,7,-1
 187 1143 l 1,8,-1
 187 0 l 1,9,-1
 7 0 l 1,0,-1
EndSplineSet
Validated: 1
EndChar

StartChar: O
Encoding: 79 79 50
Width: 1387
GlyphClass: 2
Flags: W
LayerCount: 2
Fore
SplineSet
688 -37 m 256,0,1
 373 -37 373 -37 184.5 174.5 c 128,-1,2
 -4 386 -4 386 -4 740 c 256,3,4
 -4 1094 -4 1094 184.5 1305.5 c 128,-1,5
 373 1517 373 1517 688 1517 c 256,6,7
 1003 1517 1003 1517 1191.5 1305.5 c 128,-1,8
 1380 1094 1380 1094 1380 740 c 256,9,10
 1380 386 1380 386 1191.5 174.5 c 128,-1,11
 1003 -37 1003 -37 688 -37 c 256,0,1
688 120 m 256,12,13
 909 120 909 120 1033 284.5 c 128,-1,14
 1157 449 1157 449 1157 742 c 0,15,16
 1157 1033 1157 1033 1033 1196.5 c 128,-1,17
 909 1360 909 1360 688 1360 c 256,18,19
 467 1360 467 1360 343 1196.5 c 128,-1,20
 219 1033 219 1033 219 742 c 0,21,22
 219 449 219 449 343 284.5 c 128,-1,23
 467 120 467 120 688 120 c 256,12,13
EndSplineSet
Validated: 1
EndChar

StartChar: P
Encoding: 80 80 51
Width: 912
GlyphClass: 2
Flags: W
LayerCount: 2
Fore
SplineSet
7 0 m 1,0,-1
 7 1480 l 1,1,-1
 410 1480 l 2,2,3
 584 1480 584 1480 678.5 1451.5 c 128,-1,4
 773 1423 773 1423 833 1351 c 0,5,6
 912 1256 912 1256 912 1092 c 0,7,8
 912 856 912 856 752 722 c 128,-1,9
 592 588 592 588 308 588 c 2,10,-1
 215 588 l 1,11,-1
 215 0 l 1,12,-1
 7 0 l 1,0,-1
215 747 m 1,13,-1
 300 747 l 2,14,15
 487 747 487 747 589 833 c 128,-1,16
 691 919 691 919 691 1077 c 0,17,18
 691 1209 691 1209 610.5 1266 c 128,-1,19
 530 1323 530 1323 344 1323 c 2,20,-1
 215 1323 l 1,21,-1
 215 747 l 1,13,-1
EndSplineSet
Validated: 1
EndChar

StartChar: Q
Encoding: 81 81 52
Width: 1531
GlyphClass: 2
Flags: W
LayerCount: 2
Fore
SplineSet
1393 -296 m 1,0,1
 1044 -183 1044 -183 808 -27 c 1,2,3
 714 -37 714 -37 663 -37 c 0,4,5
 365 -37 365 -37 178.5 179 c 128,-1,6
 -8 395 -8 395 -8 740 c 0,7,8
 -8 1094 -8 1094 180.5 1305.5 c 128,-1,9
 369 1517 369 1517 684 1517 c 0,10,11
 1000 1517 1000 1517 1188 1305 c 128,-1,12
 1376 1093 1376 1093 1376 737 c 0,13,14
 1376 227 1376 227 997 31 c 1,15,16
 1252 -81 1252 -81 1526 -129 c 1,17,-1
 1393 -296 l 1,0,1
684 120 m 256,18,19
 905 120 905 120 1029 284 c 128,-1,20
 1153 448 1153 448 1153 740 c 0,21,22
 1153 1033 1153 1033 1029 1196.5 c 128,-1,23
 905 1360 905 1360 684 1360 c 256,24,25
 463 1360 463 1360 339 1196.5 c 128,-1,26
 215 1033 215 1033 215 742 c 0,27,28
 215 449 215 449 339 284.5 c 128,-1,29
 463 120 463 120 684 120 c 256,18,19
EndSplineSet
Validated: 1
EndChar

StartChar: R
Encoding: 82 82 53
Width: 1087
GlyphClass: 2
Flags: W
LayerCount: 2
Fore
SplineSet
3 0 m 1,0,-1
 3 1480 l 1,1,-1
 451 1480 l 2,2,3
 664 1480 664 1480 777.5 1386 c 128,-1,4
 891 1292 891 1292 891 1113 c 0,5,6
 891 972 891 972 812.5 862 c 128,-1,7
 734 752 734 752 592 693 c 1,8,-1
 1086 0 l 1,9,-1
 828 0 l 1,10,-1
 407 626 l 1,11,-1
 211 626 l 1,12,-1
 211 0 l 1,13,-1
 3 0 l 1,0,-1
211 783 m 1,14,-1
 279 783 l 2,15,16
 473 783 473 783 574 862 c 128,-1,17
 675 941 675 941 675 1093 c 0,18,19
 675 1323 675 1323 343 1323 c 2,20,-1
 211 1323 l 1,21,-1
 211 783 l 1,14,-1
EndSplineSet
Validated: 1
EndChar

StartChar: S
Encoding: 83 83 54
Width: 923
GlyphClass: 2
Flags: W
LayerCount: 2
Fore
SplineSet
12 28 m 1,0,-1
 12 236 l 1,1,2
 262 120 262 120 424 120 c 0,3,4
 547 120 547 120 622.5 185.5 c 128,-1,5
 698 251 698 251 698 356 c 0,6,7
 698 443 698 443 648.5 504 c 128,-1,8
 599 565 599 565 466 640 c 2,9,-1
 364 699 l 2,10,11
 175 807 175 807 97.5 902.5 c 128,-1,12
 20 998 20 998 20 1124 c 0,13,14
 20 1296 20 1296 144 1406.5 c 128,-1,15
 268 1517 268 1517 460 1517 c 0,16,17
 631 1517 631 1517 821 1460 c 1,18,-1
 821 1268 l 1,19,20
 587 1360 587 1360 472 1360 c 0,21,22
 363 1360 363 1360 292 1302 c 128,-1,23
 221 1244 221 1244 221 1156 c 0,24,25
 221 1082 221 1082 273 1025 c 128,-1,26
 325 968 325 968 463 889 c 2,27,-1
 569 829 l 2,28,29
 761 720 761 720 837 623 c 128,-1,30
 913 526 913 526 913 390 c 0,31,32
 913 197 913 197 771 80 c 128,-1,33
 629 -37 629 -37 394 -37 c 0,34,35
 244 -37 244 -37 12 28 c 1,0,-1
EndSplineSet
Validated: 1
EndChar

StartChar: T
Encoding: 84 84 55
Width: 1295
GlyphClass: 2
Flags: W
LayerCount: 2
Fore
SplineSet
543 0 m 1,0,-1
 543 1323 l 1,1,-1
 18 1323 l 1,2,-1
 18 1480 l 1,3,-1
 1278 1480 l 1,4,-1
 1278 1323 l 1,5,-1
 753 1323 l 1,6,-1
 753 0 l 1,7,-1
 543 0 l 1,0,-1
EndSplineSet
Validated: 1
EndChar

StartChar: U
Encoding: 85 85 56
Width: 1079
GlyphClass: 2
Flags: W
LayerCount: 2
Fore
SplineSet
11 1480 m 1,0,-1
 221 1480 l 1,1,-1
 221 546 l 2,2,3
 221 323 221 323 303.5 221.5 c 128,-1,4
 386 120 386 120 566 120 c 0,5,6
 742 120 742 120 815.5 215.5 c 128,-1,7
 889 311 889 311 889 539 c 2,8,-1
 889 1480 l 1,9,-1
 1073 1480 l 1,10,-1
 1073 542 l 2,11,12
 1073 348 1073 348 1035 244 c 128,-1,13
 997 140 997 140 898 61 c 0,14,15
 774 -37 774 -37 557 -37 c 0,16,17
 276 -37 276 -37 143.5 105 c 128,-1,18
 11 247 11 247 11 548 c 2,19,-1
 11 1480 l 1,0,-1
EndSplineSet
Validated: 1
EndChar

StartChar: V
Encoding: 86 86 57
Width: 1339
GlyphClass: 2
Flags: W
LayerCount: 2
Fore
SplineSet
595 0 m 1,0,-1
 36 1480 l 1,1,-1
 246 1480 l 1,2,-1
 704 268 l 1,3,-1
 1146 1480 l 1,4,-1
 1330 1480 l 1,5,-1
 793 0 l 1,6,-1
 595 0 l 1,0,-1
EndSplineSet
Validated: 1
EndChar

StartChar: W
Encoding: 87 87 58
Width: 1752
GlyphClass: 2
Flags: W
LayerCount: 2
Fore
SplineSet
383 0 m 1,0,-1
 2 1480 l 1,1,-1
 204 1480 l 1,2,-1
 507 311 l 1,3,-1
 786 1480 l 1,4,-1
 988 1480 l 1,5,-1
 1252 327 l 1,6,-1
 1578 1480 l 1,7,-1
 1749 1480 l 1,8,-1
 1334 0 l 1,9,-1
 1125 0 l 1,10,-1
 864 1141 l 1,11,-1
 591 0 l 1,12,-1
 383 0 l 1,0,-1
EndSplineSet
Validated: 1
EndChar

StartChar: X
Encoding: 88 88 59
Width: 1238
GlyphClass: 2
Flags: W
LayerCount: 2
Fore
SplineSet
16 0 m 1,0,-1
 507 743 l 1,1,-1
 40 1480 l 1,2,-1
 288 1480 l 1,3,-1
 644 922 l 1,4,-1
 1018 1480 l 1,5,-1
 1216 1480 l 1,6,-1
 743 765 l 1,7,-1
 1228 0 l 1,8,-1
 980 0 l 1,9,-1
 604 587 l 1,10,-1
 215 0 l 1,11,-1
 16 0 l 1,0,-1
EndSplineSet
Validated: 1
EndChar

StartChar: Y
Encoding: 89 89 60
Width: 1276
GlyphClass: 2
Flags: W
LayerCount: 2
Fore
SplineSet
511 0 m 1,0,-1
 511 618 l 1,1,-1
 17 1480 l 1,2,-1
 257 1480 l 1,3,-1
 641 812 l 1,4,-1
 1055 1480 l 1,5,-1
 1250 1480 l 1,6,-1
 721 622 l 1,7,-1
 721 0 l 1,8,-1
 511 0 l 1,0,-1
EndSplineSet
Validated: 1
EndChar

StartChar: Z
Encoding: 90 90 61
Width: 1066
GlyphClass: 2
Flags: W
LayerCount: 2
Fore
SplineSet
7 0 m 1,0,-1
 7 168 l 1,1,-1
 802 1323 l 1,2,-1
 56 1323 l 1,3,-1
 56 1480 l 1,4,-1
 1054 1480 l 1,5,-1
 1054 1323 l 1,6,-1
 259 168 l 1,7,-1
 1054 168 l 1,8,-1
 1054 0 l 1,9,-1
 7 0 l 1,0,-1
EndSplineSet
Validated: 1
EndChar

StartChar: bracketleft
Encoding: 91 91 62
Width: 666
GlyphClass: 2
Flags: W
LayerCount: 2
Fore
SplineSet
197 -296 m 1,0,-1
 197 1579 l 1,1,-1
 592 1579 l 1,2,-1
 592 1431 l 1,3,-1
 370 1431 l 1,4,-1
 370 -148 l 1,5,-1
 592 -148 l 1,6,-1
 592 -296 l 1,7,-1
 197 -296 l 1,0,-1
EndSplineSet
Validated: 1
EndChar

StartChar: backslash
Encoding: 92 92 63
Width: 1074
GlyphClass: 2
Flags: W
LayerCount: 2
Fore
SplineSet
852 -296 m 1,0,-1
 748 -296 l 1,1,-1
 222 1481 l 1,2,-1
 326 1481 l 1,3,-1
 852 -296 l 1,0,-1
EndSplineSet
Validated: 1
EndChar

StartChar: bracketright
Encoding: 93 93 64
Width: 666
GlyphClass: 2
Flags: W
LayerCount: 2
Fore
SplineSet
469 1579 m 1,0,-1
 469 -296 l 1,1,-1
 74 -296 l 1,2,-1
 74 -148 l 1,3,-1
 296 -148 l 1,4,-1
 296 1431 l 1,5,-1
 74 1431 l 1,6,-1
 74 1579 l 1,7,-1
 469 1579 l 1,0,-1
EndSplineSet
Validated: 1
EndChar

StartChar: asciicircum
Encoding: 94 94 65
Width: 1295
GlyphClass: 2
Flags: W
LayerCount: 2
Fore
SplineSet
648 1149 m 1,0,-1
 271 395 l 1,1,-1
 105 395 l 1,2,-1
 648 1480 l 1,3,-1
 1191 395 l 1,4,-1
 1025 395 l 1,5,-1
 648 1149 l 1,0,-1
EndSplineSet
Validated: 1
EndChar

StartChar: underscore
Encoding: 95 95 66
Width: 1024
GlyphClass: 2
Flags: W
LayerCount: 2
Fore
SplineSet
86 -148 m 1,0,-1
 86 0 l 1,1,-1
 937 0 l 1,2,-1
 937 -148 l 1,3,-1
 86 -148 l 1,0,-1
EndSplineSet
Validated: 1
EndChar

StartChar: grave
Encoding: 96 96 67
Width: 1258
GlyphClass: 2
Flags: W
LayerCount: 2
Fore
SplineSet
864 1283 m 1,0,-1
 716 1283 l 1,1,-1
 395 1604 l 1,2,-1
 623 1604 l 1,3,-1
 864 1283 l 1,0,-1
EndSplineSet
Validated: 1
EndChar

StartChar: a
Encoding: 97 97 68
Width: 993
GlyphClass: 2
Flags: W
LayerCount: 2
Fore
SplineSet
652 138 m 1,0,1
 475 -25 475 -25 311 -25 c 0,2,3
 176 -25 176 -25 87 59.5 c 128,-1,4
 -2 144 -2 144 -2 273 c 0,5,6
 -2 451 -2 451 147.5 546.5 c 128,-1,7
 297 642 297 642 577 642 c 2,8,-1
 623 642 l 1,9,-1
 623 773 l 2,10,11
 623 962 623 962 426 962 c 0,12,13
 273 962 273 962 92 866 c 1,14,-1
 92 1029 l 1,15,16
 291 1110 291 1110 467 1110 c 0,17,18
 648 1110 648 1110 734 1027.5 c 128,-1,19
 820 945 820 945 820 773 c 2,20,-1
 820 281 l 2,21,22
 820 112 820 112 924 112 c 0,23,24
 937 112 937 112 962 116 c 1,25,-1
 976 7 l 1,26,27
 909 -25 909 -25 828 -25 c 0,28,29
 690 -25 690 -25 652 138 c 1,0,1
623 245 m 1,30,-1
 623 526 l 1,31,-1
 560 528 l 1,32,33
 396 528 396 528 295.5 467 c 128,-1,34
 195 406 195 406 195 305 c 0,35,36
 195 234 195 234 245 185 c 128,-1,37
 295 136 295 136 367 136 c 0,38,39
 490 136 490 136 623 245 c 1,30,-1
EndSplineSet
Validated: 1
EndChar

StartChar: b
Encoding: 98 98 69
Width: 1001
GlyphClass: 2
Flags: W
LayerCount: 2
Fore
SplineSet
9 -12 m 1,0,-1
 9 1579 l 1,1,-1
 206 1579 l 1,2,-1
 206 882 l 1,3,4
 327 1110 327 1110 569 1110 c 0,5,6
 765 1110 765 1110 877.5 967 c 128,-1,7
 990 824 990 824 990 576 c 0,8,9
 990 306 990 306 862.5 140.5 c 128,-1,10
 735 -25 735 -25 527 -25 c 0,11,12
 334 -25 334 -25 206 123 c 1,13,-1
 182 -12 l 1,14,-1
 9 -12 l 1,0,-1
206 259 m 1,15,16
 358 123 358 123 496 123 c 0,17,18
 632 123 632 123 706 236.5 c 128,-1,19
 780 350 780 350 780 556 c 0,20,21
 780 938 780 938 528 938 c 0,22,23
 363 938 363 938 206 759 c 1,24,-1
 206 259 l 1,15,16
EndSplineSet
Validated: 1
EndChar

StartChar: c
Encoding: 99 99 70
Width: 845
GlyphClass: 2
Flags: W
LayerCount: 2
Fore
SplineSet
843 33 m 1,0,1
 652 -25 652 -25 513 -25 c 0,2,3
 293 -25 293 -25 148 138 c 128,-1,4
 3 301 3 301 3 549 c 0,5,6
 3 814 3 814 146.5 962 c 128,-1,7
 290 1110 290 1110 547 1110 c 0,8,9
 674 1110 674 1110 831 1075 c 1,10,-1
 831 910 l 1,11,12
 664 959 664 959 559 959 c 0,13,14
 407 959 407 959 316 845.5 c 128,-1,15
 225 732 225 732 225 543 c 0,16,17
 225 360 225 360 319 247 c 128,-1,18
 413 134 413 134 565 134 c 0,19,20
 700 134 700 134 843 203 c 1,21,-1
 843 33 l 1,0,1
EndSplineSet
Validated: 1
EndChar

StartChar: d
Encoding: 100 100 71
Width: 997
GlyphClass: 2
Flags: W
LayerCount: 2
Fore
SplineSet
790 0 m 1,0,-1
 790 204 l 1,1,2
 670 -25 670 -25 428 -25 c 0,3,4
 232 -25 232 -25 119.5 118 c 128,-1,5
 7 261 7 261 7 509 c 0,6,7
 7 780 7 780 134.5 945 c 128,-1,8
 262 1110 262 1110 470 1110 c 0,9,10
 663 1110 663 1110 790 962 c 1,11,-1
 790 1579 l 1,12,-1
 988 1579 l 1,13,-1
 988 0 l 1,14,-1
 790 0 l 1,0,-1
790 827 m 1,15,16
 637 962 637 962 500 962 c 0,17,18
 365 962 365 962 291 849 c 128,-1,19
 217 736 217 736 217 529 c 0,20,21
 217 148 217 148 469 148 c 0,22,23
 633 148 633 148 790 327 c 1,24,-1
 790 827 l 1,15,16
EndSplineSet
Validated: 1
EndChar

StartChar: e
Encoding: 101 101 72
Width: 901
GlyphClass: 2
Flags: W
LayerCount: 2
Fore
SplineSet
888 35 m 1,0,1
 690 -25 690 -25 549 -25 c 0,2,3
 308 -25 308 -25 157 134.5 c 128,-1,4
 6 294 6 294 6 548 c 0,5,6
 6 795 6 795 139.5 953 c 128,-1,7
 273 1111 273 1111 481 1111 c 0,8,9
 678 1111 678 1111 785.5 970.5 c 128,-1,10
 893 830 893 830 893 572 c 1,11,-1
 892 512 l 1,12,-1
 207 512 l 1,13,14
 250 125 250 125 586 125 c 0,15,16
 709 125 709 125 888 191 c 1,17,-1
 888 35 l 1,0,1
216 660 m 1,18,-1
 695 660 l 1,19,20
 695 963 695 963 469 963 c 0,21,22
 242 963 242 963 216 660 c 1,18,-1
EndSplineSet
Validated: 1
EndChar

StartChar: f
Encoding: 102 102 73
Width: 745
GlyphClass: 2
Flags: W
LayerCount: 2
Fore
SplineSet
158 0 m 1,0,-1
 158 938 l 1,1,-1
 4 938 l 1,2,-1
 4 1086 l 1,3,-1
 158 1086 l 1,4,-1
 158 1216 l 2,5,6
 158 1604 158 1604 512 1604 c 0,7,8
 611 1604 611 1604 737 1571 c 1,9,-1
 737 1415 l 1,10,11
 604 1456 604 1456 524 1456 c 0,12,13
 427 1456 427 1456 391.5 1409.5 c 128,-1,14
 356 1363 356 1363 356 1237 c 2,15,-1
 356 1086 l 1,16,-1
 627 1086 l 1,17,-1
 627 938 l 1,18,-1
 356 938 l 1,19,-1
 356 0 l 1,20,-1
 158 0 l 1,0,-1
EndSplineSet
Validated: 1
EndChar

StartChar: g
Encoding: 103 103 74
Width: 1005
GlyphClass: 2
Flags: W
LayerCount: 2
Fore
SplineSet
97 -361 m 1,0,-1
 120 -190 l 1,1,2
 291 -271 291 -271 458 -271 c 0,3,4
 790 -271 790 -271 790 82 c 2,5,-1
 790 253 l 1,6,7
 739 145 739 145 644.5 85 c 128,-1,8
 550 25 550 25 434 25 c 0,9,10
 237 25 237 25 122 166.5 c 128,-1,11
 7 308 7 308 7 550 c 0,12,13
 7 798 7 798 138 954 c 128,-1,14
 269 1110 269 1110 477 1110 c 0,15,16
 659 1110 659 1110 790 962 c 1,17,-1
 790 1086 l 1,18,-1
 988 1086 l 1,19,-1
 988 296 l 2,20,21
 988 41 988 41 961.5 -81.5 c 128,-1,22
 935 -204 935 -204 862 -282 c 0,23,24
 733 -419 733 -419 459 -419 c 0,25,26
 271 -419 271 -419 97 -361 c 1,0,-1
790 376 m 1,27,-1
 790 827 l 1,28,29
 660 962 660 962 507 962 c 0,30,31
 371 962 371 962 294 853 c 128,-1,32
 217 744 217 744 217 551 c 0,33,34
 217 197 217 197 468 197 c 0,35,36
 639 197 639 197 790 376 c 1,27,-1
EndSplineSet
Validated: 1
EndChar

StartChar: h
Encoding: 104 104 75
Width: 911
GlyphClass: 2
Flags: W
LayerCount: 2
Fore
SplineSet
17 0 m 1,0,-1
 17 1579 l 1,1,-1
 214 1579 l 1,2,-1
 214 882 l 1,3,4
 370 1110 370 1110 596 1110 c 0,5,6
 738 1110 738 1110 821.5 1020.5 c 128,-1,7
 905 931 905 931 905 780 c 2,8,-1
 905 0 l 1,9,-1
 708 0 l 1,10,-1
 708 716 l 2,11,12
 708 837 708 837 672.5 888.5 c 128,-1,13
 637 940 637 940 555 940 c 0,14,15
 374 940 374 940 214 703 c 1,16,-1
 214 0 l 1,17,-1
 17 0 l 1,0,-1
EndSplineSet
Validated: 1
EndChar

StartChar: i
Encoding: 105 105 76
Width: 200
GlyphClass: 2
Flags: W
LayerCount: 2
Fore
SplineSet
1 0 m 1,0,-1
 1 1086 l 1,1,-1
 198 1086 l 1,2,-1
 198 0 l 1,3,-1
 1 0 l 1,0,-1
1 1283 m 1,4,-1
 1 1480 l 1,5,-1
 198 1480 l 1,6,-1
 198 1283 l 1,7,-1
 1 1283 l 1,4,-1
EndSplineSet
Validated: 1
EndChar

StartChar: j
Encoding: 106 106 77
Width: 603
GlyphClass: 2
Flags: W
LayerCount: 2
Fore
SplineSet
7 -369 m 1,0,-1
 7 -213 l 1,1,2
 145 -271 145 -271 217 -271 c 0,3,4
 299 -271 299 -271 344 -227 c 0,5,6
 374 -197 374 -197 381.5 -159 c 128,-1,7
 389 -121 389 -121 389 0 c 2,8,-1
 389 1086 l 1,9,-1
 587 1086 l 1,10,-1
 587 0 l 2,11,12
 587 -419 587 -419 233 -419 c 0,13,14
 128 -419 128 -419 7 -369 c 1,0,-1
389 1283 m 1,15,-1
 389 1480 l 1,16,-1
 587 1480 l 1,17,-1
 587 1283 l 1,18,-1
 389 1283 l 1,15,-1
EndSplineSet
Validated: 1
EndChar

StartChar: k
Encoding: 107 107 78
Width: 981
GlyphClass: 2
Flags: W
LayerCount: 2
Fore
SplineSet
13 0 m 1,0,-1
 13 1579 l 1,1,-1
 210 1579 l 1,2,-1
 210 559 l 1,3,-1
 670 1086 l 1,4,-1
 882 1086 l 1,5,-1
 443 579 l 1,6,-1
 973 0 l 1,7,-1
 721 0 l 1,8,-1
 210 557 l 1,9,-1
 210 0 l 1,10,-1
 13 0 l 1,0,-1
EndSplineSet
Validated: 1
EndChar

StartChar: l
Encoding: 108 108 79
Width: 212
GlyphClass: 2
Flags: W
LayerCount: 2
Fore
SplineSet
5 0 m 1,0,-1
 5 1579 l 1,1,-1
 202 1579 l 1,2,-1
 202 0 l 1,3,-1
 5 0 l 1,0,-1
EndSplineSet
Validated: 1
EndChar

StartChar: m
Encoding: 109 109 80
Width: 1540
GlyphClass: 2
Flags: W
LayerCount: 2
Fore
SplineSet
-1 0 m 1,0,-1
 -1 1086 l 1,1,-1
 196 1086 l 1,2,-1
 196 882 l 1,3,4
 340 1110 340 1110 566 1110 c 0,5,6
 784 1110 784 1110 863 882 c 1,7,8
 1003 1111 1003 1111 1227 1111 c 0,9,10
 1370 1111 1370 1111 1449.5 1026.5 c 128,-1,11
 1529 942 1529 942 1529 790 c 2,12,-1
 1529 0 l 1,13,-1
 1331 0 l 1,14,-1
 1331 759 l 2,15,16
 1331 945 1331 945 1184 945 c 0,17,18
 1031 945 1031 945 863 728 c 1,19,-1
 863 0 l 1,20,-1
 665 0 l 1,21,-1
 665 759 l 2,22,23
 665 946 665 946 515 946 c 0,24,25
 366 946 366 946 196 728 c 1,26,-1
 196 0 l 1,27,-1
 -1 0 l 1,0,-1
EndSplineSet
Validated: 1
EndChar

StartChar: n
Encoding: 110 110 81
Width: 914
GlyphClass: 2
Flags: W
LayerCount: 2
Fore
SplineSet
14 0 m 1,0,-1
 14 1086 l 1,1,-1
 211 1086 l 1,2,-1
 211 882 l 1,3,4
 367 1110 367 1110 593 1110 c 0,5,6
 735 1110 735 1110 818.5 1020.5 c 128,-1,7
 902 931 902 931 902 780 c 2,8,-1
 902 0 l 1,9,-1
 705 0 l 1,10,-1
 705 716 l 2,11,12
 705 837 705 837 669.5 888.5 c 128,-1,13
 634 940 634 940 552 940 c 0,14,15
 371 940 371 940 211 703 c 1,16,-1
 211 0 l 1,17,-1
 14 0 l 1,0,-1
EndSplineSet
Validated: 1
EndChar

StartChar: o
Encoding: 111 111 82
Width: 1048
GlyphClass: 2
Flags: W
LayerCount: 2
Fore
SplineSet
524 -25 m 256,0,1
 285 -25 285 -25 145.5 128 c 128,-1,2
 6 281 6 281 6 543 c 256,3,4
 6 805 6 805 145.5 957.5 c 128,-1,5
 285 1110 285 1110 524 1110 c 256,6,7
 763 1110 763 1110 902.5 957.5 c 128,-1,8
 1042 805 1042 805 1042 543 c 256,9,10
 1042 281 1042 281 902.5 128 c 128,-1,11
 763 -25 763 -25 524 -25 c 256,0,1
524 123 m 256,12,13
 671 123 671 123 752 233 c 128,-1,14
 833 343 833 343 833 543 c 256,15,16
 833 743 833 743 752 852.5 c 128,-1,17
 671 962 671 962 524 962 c 256,18,19
 377 962 377 962 296.5 852.5 c 128,-1,20
 216 743 216 743 216 543 c 256,21,22
 216 343 216 343 296.5 233 c 128,-1,23
 377 123 377 123 524 123 c 256,12,13
EndSplineSet
Validated: 1
EndChar

StartChar: p
Encoding: 112 112 83
Width: 1009
GlyphClass: 2
Flags: W
LayerCount: 2
Fore
SplineSet
9 -395 m 1,0,-1
 9 1086 l 1,1,-1
 206 1086 l 1,2,-1
 206 882 l 1,3,4
 327 1110 327 1110 569 1110 c 0,5,6
 765 1110 765 1110 877.5 967 c 128,-1,7
 990 824 990 824 990 576 c 0,8,9
 990 306 990 306 862.5 140.5 c 128,-1,10
 735 -25 735 -25 527 -25 c 0,11,12
 334 -25 334 -25 206 123 c 1,13,-1
 206 -395 l 1,14,-1
 9 -395 l 1,0,-1
206 259 m 1,15,16
 358 123 358 123 496 123 c 0,17,18
 632 123 632 123 706 236.5 c 128,-1,19
 780 350 780 350 780 556 c 0,20,21
 780 938 780 938 528 938 c 0,22,23
 363 938 363 938 206 759 c 1,24,-1
 206 259 l 1,15,16
EndSplineSet
Validated: 1
EndChar

StartChar: q
Encoding: 113 113 84
Width: 1001
GlyphClass: 2
Flags: W
LayerCount: 2
Fore
SplineSet
794 -395 m 1,0,-1
 794 204 l 1,1,2
 674 -25 674 -25 432 -25 c 0,3,4
 236 -25 236 -25 123.5 118 c 128,-1,5
 11 261 11 261 11 509 c 0,6,7
 11 780 11 780 138.5 945 c 128,-1,8
 266 1110 266 1110 474 1110 c 0,9,10
 667 1110 667 1110 794 962 c 1,11,-1
 794 1086 l 1,12,-1
 992 1086 l 1,13,-1
 992 -395 l 1,14,-1
 794 -395 l 1,0,-1
794 827 m 1,15,16
 641 962 641 962 504 962 c 0,17,18
 369 962 369 962 295 849 c 128,-1,19
 221 736 221 736 221 529 c 0,20,21
 221 148 221 148 473 148 c 0,22,23
 637 148 637 148 794 327 c 1,24,-1
 794 827 l 1,15,16
EndSplineSet
Validated: 1
EndChar

StartChar: r
Encoding: 114 114 85
Width: 628
GlyphClass: 2
Flags: W
LayerCount: 2
Fore
SplineSet
11 0 m 1,0,-1
 11 1086 l 1,1,-1
 208 1086 l 1,2,-1
 208 882 l 1,3,4
 325 1110 325 1110 548 1110 c 0,5,6
 578 1110 578 1110 611 1105 c 1,7,-1
 611 921 l 1,8,9
 560 938 560 938 521 938 c 0,10,11
 334 938 334 938 208 716 c 1,12,-1
 208 0 l 1,13,-1
 11 0 l 1,0,-1
EndSplineSet
Validated: 1
EndChar

StartChar: s
Encoding: 115 115 86
Width: 744
GlyphClass: 2
Flags: W
LayerCount: 2
Fore
SplineSet
7 38 m 1,0,-1
 7 219 l 1,1,2
 200 123 200 123 343 123 c 0,3,4
 428 123 428 123 484 169 c 128,-1,5
 540 215 540 215 540 284 c 0,6,7
 540 385 540 385 383 451 c 2,8,-1
 268 500 l 2,9,10
 13 606 13 606 13 805 c 0,11,12
 13 947 13 947 113.5 1028.5 c 128,-1,13
 214 1110 214 1110 389 1110 c 0,14,15
 480 1110 480 1110 614 1085 c 2,16,-1
 655 1077 l 1,17,-1
 655 913 l 1,18,19
 490 962 490 962 392 962 c 0,20,21
 306 962 306 962 254.5 924.5 c 128,-1,22
 203 887 203 887 203 824 c 0,23,24
 203 735 203 735 347 674 c 2,25,-1
 442 634 l 2,26,27
 603 566 603 566 670 490.5 c 128,-1,28
 737 415 737 415 737 302 c 0,29,30
 737 159 737 159 624 67 c 128,-1,31
 511 -25 511 -25 335 -25 c 0,32,33
 200 -25 200 -25 7 38 c 1,0,-1
EndSplineSet
Validated: 1
EndChar

StartChar: t
Encoding: 116 116 87
Width: 634
GlyphClass: 2
Flags: W
LayerCount: 2
Fore
SplineSet
621 0 m 1,0,1
 530 -25 530 -25 463 -25 c 0,2,3
 313 -25 313 -25 229 61 c 128,-1,4
 145 147 145 147 145 300 c 2,5,-1
 145 938 l 1,6,-1
 9 938 l 1,7,-1
 9 1086 l 1,8,-1
 145 1086 l 1,9,-1
 145 1283 l 1,10,-1
 342 1302 l 1,11,-1
 342 1086 l 1,12,-1
 626 1086 l 1,13,-1
 626 938 l 1,14,-1
 342 938 l 1,15,-1
 342 336 l 2,16,17
 342 123 342 123 526 123 c 0,18,19
 565 123 565 123 621 136 c 1,20,-1
 621 0 l 1,0,1
EndSplineSet
Validated: 1
EndChar

StartChar: u
Encoding: 117 117 88
Width: 911
GlyphClass: 2
Flags: W
LayerCount: 2
Fore
SplineSet
699 0 m 1,0,-1
 699 204 l 1,1,2
 542 -25 542 -25 318 -25 c 0,3,4
 176 -25 176 -25 92 64.5 c 128,-1,5
 8 154 8 154 8 306 c 2,6,-1
 8 1086 l 1,7,-1
 205 1086 l 1,8,-1
 205 370 l 2,9,10
 205 248 205 248 240.5 196.5 c 128,-1,11
 276 145 276 145 359 145 c 0,12,13
 539 145 539 145 699 382 c 1,14,-1
 699 1086 l 1,15,-1
 896 1086 l 1,16,-1
 896 0 l 1,17,-1
 699 0 l 1,0,-1
EndSplineSet
Validated: 1
EndChar

StartChar: v
Encoding: 118 118 89
Width: 1060
GlyphClass: 2
Flags: W
LayerCount: 2
Fore
SplineSet
422 0 m 1,0,-1
 18 1086 l 1,1,-1
 215 1086 l 1,2,-1
 531 241 l 1,3,-1
 864 1086 l 1,4,-1
 1048 1086 l 1,5,-1
 619 0 l 1,6,-1
 422 0 l 1,0,-1
EndSplineSet
Validated: 1
EndChar

StartChar: w
Encoding: 119 119 90
Width: 1578
GlyphClass: 2
Flags: W
LayerCount: 2
Fore
SplineSet
323 0 m 1,0,-1
 12 1086 l 1,1,-1
 205 1086 l 1,2,-1
 443 245 l 1,3,-1
 700 1086 l 1,4,-1
 897 1086 l 1,5,-1
 1122 245 l 1,6,-1
 1395 1086 l 1,7,-1
 1564 1086 l 1,8,-1
 1210 0 l 1,9,-1
 1012 0 l 1,10,-1
 782 841 l 1,11,-1
 522 0 l 1,12,-1
 323 0 l 1,0,-1
EndSplineSet
Validated: 1
EndChar

StartChar: x
Encoding: 120 120 91
Width: 1256
GlyphClass: 2
Flags: W
LayerCount: 2
Fore
SplineSet
88 0 m 1,0,-1
 501 561 l 1,1,-1
 100 1086 l 1,2,-1
 334 1086 l 1,3,-1
 651 668 l 1,4,-1
 938 1086 l 1,5,-1
 1130 1086 l 1,6,-1
 754 535 l 1,7,-1
 1163 0 l 1,8,-1
 929 0 l 1,9,-1
 602 430 l 1,10,-1
 286 0 l 1,11,-1
 88 0 l 1,0,-1
EndSplineSet
Validated: 1
EndChar

StartChar: y
Encoding: 121 121 92
Width: 1070
GlyphClass: 2
Flags: W
LayerCount: 2
Fore
SplineSet
260 -395 m 1,0,-1
 436 0 l 1,1,-1
 16 1086 l 1,2,-1
 229 1086 l 1,3,-1
 540 268 l 1,4,-1
 872 1086 l 1,5,-1
 1058 1086 l 1,6,-1
 465 -395 l 1,7,-1
 260 -395 l 1,0,-1
EndSplineSet
Validated: 1
EndChar

StartChar: z
Encoding: 122 122 93
Width: 937
GlyphClass: 2
Flags: W
LayerCount: 2
Fore
SplineSet
3 0 m 1,0,-1
 3 148 l 1,1,-1
 675 938 l 1,2,-1
 34 938 l 1,3,-1
 34 1086 l 1,4,-1
 918 1086 l 1,5,-1
 918 938 l 1,6,-1
 246 148 l 1,7,-1
 931 148 l 1,8,-1
 931 0 l 1,9,-1
 3 0 l 1,0,-1
EndSplineSet
Validated: 1
EndChar

StartChar: braceleft
Encoding: 123 123 94
Width: 666
GlyphClass: 2
Flags: W
LayerCount: 2
Fore
SplineSet
25 716 m 1,0,-1
 74 716 l 2,1,2
 227 716 227 716 227 877 c 0,3,4
 227 945 227 945 211 1017 c 2,5,-1
 192 1104 l 2,6,7
 173 1190 173 1190 173 1272 c 0,8,9
 173 1405 173 1405 268.5 1487 c 128,-1,10
 364 1569 364 1569 531 1579 c 1,11,-1
 531 1431 l 1,12,-1
 503 1431 l 2,13,14
 435 1431 435 1431 390 1395.5 c 128,-1,15
 345 1360 345 1360 345 1307 c 0,16,17
 345 1283 345 1283 358 1212 c 2,18,-1
 375 1110 l 2,19,20
 386 1044 386 1044 386 953 c 0,21,22
 386 766 386 766 239 642 c 1,23,24
 386 517 386 517 386 329 c 0,25,26
 386 239 386 239 375 173 c 2,27,-1
 358 71 l 2,28,29
 345 0 345 0 345 -25 c 0,30,31
 345 -77 345 -77 390.5 -112.5 c 128,-1,32
 436 -148 436 -148 503 -148 c 2,33,-1
 531 -148 l 1,34,-1
 531 -296 l 1,35,36
 363 -286 363 -286 268 -203.5 c 128,-1,37
 173 -121 173 -121 173 12 c 0,38,39
 173 94 173 94 192 179 c 2,40,-1
 211 266 l 2,41,42
 226 338 226 338 226 408 c 0,43,44
 226 568 226 568 74 568 c 2,45,-1
 25 568 l 1,46,-1
 25 716 l 1,0,-1
EndSplineSet
Validated: 1
EndChar

StartChar: bar
Encoding: 124 124 95
Width: 765
GlyphClass: 2
Flags: W
LayerCount: 2
Fore
SplineSet
333 -296 m 1,0,-1
 333 1579 l 1,1,-1
 432 1579 l 1,2,-1
 432 -296 l 1,3,-1
 333 -296 l 1,0,-1
EndSplineSet
Validated: 1
EndChar

StartChar: braceright
Encoding: 125 125 96
Width: 666
GlyphClass: 2
Flags: W
LayerCount: 2
Fore
SplineSet
642 568 m 1,0,-1
 592 568 l 2,1,2
 440 568 440 568 440 406 c 0,3,4
 440 338 440 338 456 266 c 2,5,-1
 475 179 l 2,6,7
 494 94 494 94 494 11 c 0,8,9
 494 -122 494 -122 398.5 -204 c 128,-1,10
 303 -286 303 -286 136 -296 c 1,11,-1
 136 -148 l 1,12,-1
 164 -148 l 2,13,14
 231 -148 231 -148 276.5 -112.5 c 128,-1,15
 322 -77 322 -77 322 -25 c 0,16,17
 322 0 322 0 309 71 c 2,18,-1
 292 173 l 2,19,20
 280 237 280 237 280 331 c 0,21,22
 280 516 280 516 427 642 c 1,23,24
 280 766 280 766 280 954 c 0,25,26
 280 1046 280 1046 292 1110 c 2,27,-1
 309 1212 l 2,28,29
 322 1283 322 1283 322 1309 c 0,30,31
 322 1360 322 1360 276.5 1395.5 c 128,-1,32
 231 1431 231 1431 164 1431 c 2,33,-1
 136 1431 l 1,34,-1
 136 1579 l 1,35,36
 304 1569 304 1569 399 1487 c 128,-1,37
 494 1405 494 1405 494 1271 c 0,38,39
 494 1190 494 1190 475 1104 c 2,40,-1
 456 1017 l 2,41,42
 440 945 440 945 440 875 c 0,43,44
 440 716 440 716 592 716 c 2,45,-1
 642 716 l 1,46,-1
 642 568 l 1,0,-1
EndSplineSet
Validated: 1
EndChar

StartChar: asciitilde
Encoding: 126 126 97
Width: 1295
GlyphClass: 2
Flags: W
LayerCount: 2
Fore
SplineSet
105 444 m 1,0,1
 105 589 105 589 182 681 c 128,-1,2
 259 773 259 773 381 773 c 0,3,4
 461 773 461 773 596 702 c 2,5,-1
 703 646 l 1,6,-1
 831 577 l 2,7,8
 876 555 876 555 922 555 c 0,9,10
 975 555 975 555 1009 604.5 c 128,-1,11
 1043 654 1043 654 1043 733 c 2,12,-1
 1043 740 l 1,13,-1
 1191 740 l 1,14,15
 1170 407 1170 407 925 407 c 0,16,17
 836 407 836 407 680 487 c 2,18,-1
 568 545 l 1,19,-1
 449 607 l 2,20,21
 413 625 413 625 378 625 c 0,22,23
 323 625 323 625 288 574.5 c 128,-1,24
 253 524 253 524 253 444 c 1,25,-1
 105 444 l 1,0,1
EndSplineSet
Validated: 1
EndChar

StartChar: dagger
Encoding: 8224 8224 130
Width: 1295
GlyphClass: 2
Flags: W
LayerCount: 2
Fore
SplineSet
549 -296 m 1,0,-1
 573 839 l 1,1,-1
 228 814 l 1,2,-1
 228 962 l 1,3,-1
 573 938 l 1,4,-1
 549 1480 l 1,5,-1
 746 1480 l 1,6,-1
 721 938 l 1,7,-1
 1067 962 l 1,8,-1
 1067 814 l 1,9,-1
 721 839 l 1,10,-1
 746 -296 l 1,11,-1
 549 -296 l 1,0,-1
EndSplineSet
Validated: 1
EndChar

StartChar: degree
Encoding: 176 176 131
Width: 567
GlyphClass: 2
Flags: W
LayerCount: 2
Fore
SplineSet
286 1073 m 256,0,1
 193 1073 193 1073 128.5 1138 c 128,-1,2
 64 1203 64 1203 64 1296 c 256,3,4
 64 1389 64 1389 128.5 1453 c 128,-1,5
 193 1517 193 1517 286 1517 c 256,6,7
 379 1517 379 1517 443.5 1452.5 c 128,-1,8
 508 1388 508 1388 508 1296 c 0,9,10
 508 1203 508 1203 443.5 1138 c 128,-1,11
 379 1073 379 1073 286 1073 c 256,0,1
286 1172 m 0,12,13
 336 1172 336 1172 372.5 1209 c 128,-1,14
 409 1246 409 1246 409 1295 c 0,15,16
 409 1345 409 1345 372.5 1382 c 128,-1,17
 336 1419 336 1419 286 1419 c 0,18,19
 237 1419 237 1419 200 1382 c 128,-1,20
 163 1345 163 1345 163 1295 c 0,21,22
 163 1246 163 1246 200 1209 c 128,-1,23
 237 1172 237 1172 286 1172 c 0,12,13
EndSplineSet
Validated: 1
EndChar

StartChar: cent
Encoding: 162 162 132
Width: 1295
GlyphClass: 2
Flags: W
LayerCount: 2
Fore
SplineSet
663 0 m 1,0,-1
 663 173 l 1,1,2
 460 193 460 193 332.5 350 c 128,-1,3
 205 507 205 507 205 738 c 0,4,5
 205 974 205 974 325 1120 c 128,-1,6
 445 1266 445 1266 663 1295 c 1,7,-1
 663 1480 l 1,8,-1
 762 1480 l 1,9,-1
 762 1295 l 1,10,11
 895 1289 895 1289 1046 1249 c 1,12,-1
 1046 1083 l 1,13,14
 869 1143 869 1143 762 1153 c 1,15,-1
 762 313 l 1,16,17
 898 313 898 313 1046 381 c 1,18,-1
 1046 231 l 1,19,20
 897 173 897 173 762 173 c 1,21,-1
 762 0 l 1,22,-1
 663 0 l 1,0,-1
663 324 m 1,23,-1
 663 1144 l 1,24,25
 421 1121 421 1121 421 732 c 0,26,27
 421 402 421 402 663 324 c 1,23,-1
EndSplineSet
Validated: 1
EndChar

StartChar: sterling
Encoding: 163 163 133
Width: 1295
GlyphClass: 2
Flags: W
LayerCount: 2
Fore
SplineSet
247 0 m 1,0,-1
 247 173 l 1,1,2
 457 240 457 240 457 489 c 2,3,-1
 457 716 l 1,4,-1
 278 716 l 1,5,-1
 278 864 l 1,6,-1
 457 864 l 1,7,-1
 457 1079 l 2,8,9
 457 1292 457 1292 558.5 1404.5 c 128,-1,10
 660 1517 660 1517 850 1517 c 0,11,12
 954 1517 954 1517 1077 1487 c 1,13,-1
 1077 1320 l 1,14,15
 953 1369 953 1369 838 1369 c 0,16,17
 741 1369 741 1369 697.5 1315 c 128,-1,18
 654 1261 654 1261 654 1139 c 2,19,-1
 654 864 l 1,20,-1
 870 864 l 1,21,-1
 870 716 l 1,22,-1
 654 716 l 1,23,-1
 654 589 l 2,24,25
 654 431 654 431 618 344 c 128,-1,26
 582 257 582 257 481 173 c 1,27,-1
 1092 173 l 1,28,-1
 1092 0 l 1,29,-1
 247 0 l 1,0,-1
EndSplineSet
Validated: 1
EndChar

StartChar: section
Encoding: 167 167 134
Width: 1295
GlyphClass: 2
Flags: W
LayerCount: 2
Fore
SplineSet
221 -260 m 1,0,-1
 221 -80 l 1,1,2
 463 -185 463 -185 632 -185 c 0,3,4
 761 -185 761 -185 841.5 -135 c 128,-1,5
 922 -85 922 -85 922 -5 c 0,6,7
 922 62 922 62 879 101 c 128,-1,8
 836 140 836 140 692 202 c 2,9,-1
 515 277 l 2,10,11
 226 401 226 401 226 613 c 0,12,13
 226 764 226 764 372 912 c 1,14,15
 231 1006 231 1006 231 1153 c 0,16,17
 231 1317 231 1317 360.5 1417 c 128,-1,18
 490 1517 490 1517 701 1517 c 0,19,20
 851 1517 851 1517 1046 1470 c 1,21,-1
 1046 1310 l 1,22,23
 844 1369 844 1369 698 1369 c 0,24,25
 569 1369 569 1369 489.5 1318 c 128,-1,26
 410 1267 410 1267 410 1184 c 0,27,28
 410 1124 410 1124 449 1084.5 c 128,-1,29
 488 1045 488 1045 585 1006 c 2,30,-1
 721 951 l 2,31,32
 928 868 928 868 1007.5 788.5 c 128,-1,33
 1087 709 1087 709 1087 585 c 0,34,35
 1087 443 1087 443 938 277 c 1,36,37
 1102 182 1102 182 1102 9 c 0,38,39
 1102 -148 1102 -148 968.5 -241 c 128,-1,40
 835 -334 835 -334 611 -334 c 0,41,42
 455 -334 455 -334 221 -260 c 1,0,-1
840 341 m 1,43,44
 914 440 914 440 914 535 c 0,45,46
 914 607 914 607 866.5 653.5 c 128,-1,47
 819 700 819 700 694 753 c 2,48,-1
 472 846 l 1,49,50
 398 756 398 756 398 661 c 0,51,52
 398 527 398 527 627 431 c 2,53,-1
 840 341 l 1,43,44
EndSplineSet
Validated: 1
EndChar

StartChar: bullet
Encoding: 8226 8226 135
Width: 1295
GlyphClass: 2
Flags: W
LayerCount: 2
Fore
SplineSet
648 401 m 256,0,1
 571 401 571 401 517 455 c 128,-1,2
 463 509 463 509 463 586 c 256,3,4
 463 663 463 663 517 717 c 128,-1,5
 571 771 571 771 648 771 c 256,6,7
 725 771 725 771 779 717 c 128,-1,8
 833 663 833 663 833 586 c 256,9,10
 833 509 833 509 779 455 c 128,-1,11
 725 401 725 401 648 401 c 256,0,1
EndSplineSet
Validated: 1
EndChar

StartChar: paragraph
Encoding: 182 182 136
Width: 1295
GlyphClass: 2
Flags: W
LayerCount: 2
Fore
SplineSet
635 -296 m 1,0,-1
 635 740 l 1,1,2
 438 754 438 754 327 863.5 c 128,-1,3
 216 973 216 973 216 1154 c 0,4,5
 216 1309 216 1309 302 1395 c 0,6,7
 388 1480 388 1480 635 1480 c 2,8,-1
 1030 1480 l 1,9,-1
 1030 -296 l 1,10,-1
 907 -296 l 1,11,-1
 907 1357 l 1,12,-1
 759 1357 l 1,13,-1
 759 -296 l 1,14,-1
 635 -296 l 1,0,-1
EndSplineSet
Validated: 1
EndChar

StartChar: germandbls
Encoding: 223 223 137
Width: 1225
GlyphClass: 2
Flags: W
LayerCount: 2
Fore
SplineSet
197 0 m 1,0,-1
 197 1151 l 2,1,2
 197 1398 197 1398 280.5 1501 c 128,-1,3
 364 1604 364 1604 564 1604 c 0,4,5
 730 1604 730 1604 829 1532 c 128,-1,6
 928 1460 928 1460 928 1340 c 0,7,8
 928 1218 928 1218 797 1045 c 0,9,10
 720 944 720 944 720 904 c 0,11,12
 720 843 720 843 830 749 c 2,13,-1
 991 613 l 2,14,15
 1164 467 1164 467 1164 299 c 0,16,17
 1164 149 1164 149 1070 62 c 128,-1,18
 976 -25 976 -25 816 -25 c 0,19,20
 675 -25 675 -25 534 33 c 1,21,-1
 534 202 l 1,22,23
 717 123 717 123 816 123 c 0,24,25
 890 123 890 123 934 166 c 128,-1,26
 978 209 978 209 978 281 c 0,27,28
 978 332 978 332 955 369 c 128,-1,29
 932 406 932 406 863 465 c 2,30,-1
 672 629 l 2,31,32
 547 737 547 737 547 848 c 0,33,34
 547 932 547 932 647 1086 c 0,35,36
 730 1213 730 1213 730 1305 c 0,37,38
 730 1456 730 1456 560 1456 c 0,39,40
 394 1456 394 1456 394 1234 c 2,41,-1
 394 0 l 1,42,-1
 197 0 l 1,0,-1
EndSplineSet
Validated: 1
EndChar

StartChar: registered
Encoding: 174 174 138
Width: 1295
GlyphClass: 2
Flags: W
LayerCount: 2
Fore
SplineSet
648 629 m 256,0,1
 464 629 464 629 334 759 c 128,-1,2
 204 889 204 889 204 1073 c 0,3,4
 204 1258 204 1258 334 1387.5 c 128,-1,5
 464 1517 464 1517 648 1517 c 0,6,7
 833 1517 833 1517 962.5 1387.5 c 128,-1,8
 1092 1258 1092 1258 1092 1073 c 0,9,10
 1092 889 1092 889 962 759 c 128,-1,11
 832 629 832 629 648 629 c 256,0,1
648 728 m 256,12,13
 789 728 789 728 891.5 830 c 128,-1,14
 994 932 994 932 994 1073 c 0,15,16
 994 1215 994 1215 892 1317 c 128,-1,17
 790 1419 790 1419 648 1419 c 0,18,19
 507 1419 507 1419 405 1317 c 128,-1,20
 303 1215 303 1215 303 1073 c 0,21,22
 303 932 303 932 405 830 c 128,-1,23
 507 728 507 728 648 728 c 256,12,13
469 802 m 1,24,-1
 469 1332 l 1,25,-1
 623 1332 l 2,26,27
 827 1332 827 1332 827 1194 c 0,28,29
 827 1097 827 1097 718 1039 c 1,30,-1
 842 802 l 1,31,-1
 729 802 l 1,32,-1
 616 1018 l 1,33,-1
 568 1018 l 1,34,-1
 568 802 l 1,35,-1
 469 802 l 1,24,-1
568 1092 m 1,36,-1
 611 1092 l 2,37,38
 716 1092 716 1092 716 1185 c 0,39,40
 716 1259 716 1259 615 1259 c 2,41,-1
 568 1259 l 1,42,-1
 568 1092 l 1,36,-1
EndSplineSet
Validated: 1
EndChar

StartChar: copyright
Encoding: 169 169 139
Width: 1752
GlyphClass: 2
Flags: W
LayerCount: 2
Fore
SplineSet
876 -37 m 0,0,1
 555 -37 555 -37 327 191 c 128,-1,2
 99 419 99 419 99 740 c 0,3,4
 99 1062 99 1062 327 1289.5 c 128,-1,5
 555 1517 555 1517 876 1517 c 0,6,7
 1198 1517 1198 1517 1425.5 1289.5 c 128,-1,8
 1653 1062 1653 1062 1653 740 c 0,9,10
 1653 419 1653 419 1425.5 191 c 128,-1,11
 1198 -37 1198 -37 876 -37 c 0,0,1
876 74 m 256,12,13
 1194 74 1194 74 1385 313 c 0,14,15
 1542 510 1542 510 1542 740 c 0,16,17
 1542 972 1542 972 1385 1167 c 0,18,19
 1193 1406 1193 1406 876 1406 c 256,20,21
 559 1406 559 1406 367 1167 c 0,22,23
 210 972 210 972 210 740 c 0,24,25
 210 510 210 510 367 313 c 0,26,27
 558 74 558 74 876 74 c 256,12,13
1160 345 m 1,28,29
 1019 296 1019 296 905 296 c 0,30,31
 716 296 716 296 595.5 419 c 128,-1,32
 475 542 475 542 475 735 c 0,33,34
 475 937 475 937 593 1057.5 c 128,-1,35
 711 1178 711 1178 908 1178 c 0,36,37
 1000 1178 1000 1178 1134 1152 c 2,38,-1
 1160 1147 l 1,39,-1
 1160 1024 l 1,40,41
 1024 1080 1024 1080 916 1080 c 0,42,43
 784 1080 784 1080 703.5 986 c 128,-1,44
 623 892 623 892 623 739 c 256,45,46
 623 586 623 586 706.5 496.5 c 128,-1,47
 790 407 790 407 934 407 c 0,48,49
 1047 407 1047 407 1160 469 c 1,50,-1
 1160 345 l 1,28,29
EndSplineSet
Validated: 1
EndChar

StartChar: trademark
Encoding: 8482 8482 140
Width: 1653
GlyphClass: 2
Flags: W
LayerCount: 2
Fore
SplineSet
314 740 m 1,0,-1
 314 1379 l 1,1,-1
 49 1379 l 1,2,-1
 49 1480 l 1,3,-1
 734 1480 l 1,4,-1
 734 1379 l 1,5,-1
 468 1379 l 1,6,-1
 468 740 l 1,7,-1
 314 740 l 1,0,-1
857 740 m 1,8,-1
 857 1480 l 1,9,-1
 1061 1480 l 1,10,-1
 1240 960 l 1,11,-1
 1423 1480 l 1,12,-1
 1602 1480 l 1,13,-1
 1602 740 l 1,14,-1
 1458 740 l 1,15,-1
 1458 1299 l 1,16,-1
 1279 790 l 1,17,-1
 1155 790 l 1,18,-1
 978 1306 l 1,19,-1
 978 740 l 1,20,-1
 857 740 l 1,8,-1
EndSplineSet
Validated: 1
EndChar

StartChar: acute
Encoding: 180 180 141
Width: 1258
GlyphClass: 2
Flags: W
LayerCount: 2
Fore
SplineSet
395 1283 m 1,0,-1
 636 1604 l 1,1,-1
 864 1604 l 1,2,-1
 543 1283 l 1,3,-1
 395 1283 l 1,0,-1
EndSplineSet
Validated: 1
EndChar

StartChar: dieresis
Encoding: 168 168 142
Width: 1258
GlyphClass: 2
Flags: W
LayerCount: 2
Fore
SplineSet
345 1283 m 1,0,-1
 345 1456 l 1,1,-1
 518 1456 l 1,2,-1
 518 1283 l 1,3,-1
 345 1283 l 1,0,-1
740 1283 m 1,4,-1
 740 1456 l 1,5,-1
 913 1456 l 1,6,-1
 913 1283 l 1,7,-1
 740 1283 l 1,4,-1
EndSplineSet
Validated: 1
EndChar

StartChar: notequal
Encoding: 8800 8800 143
Width: 1628
GlyphClass: 2
Flags: W
LayerCount: 2
Fore
SplineSet
581 49 m 1,0,-1
 684 358 l 1,1,-1
 222 358 l 1,2,-1
 222 456 l 1,3,-1
 717 456 l 1,4,-1
 808 728 l 1,5,-1
 222 728 l 1,6,-1
 222 827 l 1,7,-1
 840 827 l 1,8,-1
 943 1135 l 1,9,-1
 1047 1135 l 1,10,-1
 944 827 l 1,11,-1
 1406 827 l 1,12,-1
 1406 728 l 1,13,-1
 911 728 l 1,14,-1
 821 456 l 1,15,-1
 1406 456 l 1,16,-1
 1406 358 l 1,17,-1
 788 358 l 1,18,-1
 685 49 l 1,19,-1
 581 49 l 1,0,-1
EndSplineSet
Validated: 1
EndChar

StartChar: AE
Encoding: 198 198 144
Width: 1857
GlyphClass: 2
Flags: W
LayerCount: 2
Fore
SplineSet
18 0 m 1,0,-1
 879 1480 l 1,1,-1
 1762 1480 l 1,2,-1
 1762 1323 l 1,3,-1
 1144 1323 l 1,4,-1
 1144 848 l 1,5,-1
 1662 848 l 1,6,-1
 1662 693 l 1,7,-1
 1144 693 l 1,8,-1
 1144 157 l 1,9,-1
 1808 157 l 1,10,-1
 1808 0 l 1,11,-1
 934 0 l 1,12,-1
 934 414 l 1,13,-1
 451 414 l 1,14,-1
 210 0 l 1,15,-1
 18 0 l 1,0,-1
540 569 m 1,16,-1
 934 569 l 1,17,-1
 934 1240 l 1,18,-1
 540 569 l 1,16,-1
EndSplineSet
Validated: 1
EndChar

StartChar: Oslash
Encoding: 216 216 145
Width: 1591
GlyphClass: 2
Flags: W
LayerCount: 2
Fore
SplineSet
1097 1247 m 1,0,1
 978 1360 978 1360 795 1360 c 0,2,3
 575 1360 575 1360 451 1196.5 c 128,-1,4
 327 1033 327 1033 327 742 c 0,5,6
 327 509 327 509 410 349 c 1,7,-1
 1097 1247 l 1,0,1
495 234 m 1,8,9
 614 120 614 120 798 120 c 0,10,11
 1017 120 1017 120 1141 284 c 128,-1,12
 1265 448 1265 448 1265 739 c 0,13,14
 1265 974 1265 974 1182 1132 c 1,15,-1
 495 234 l 1,8,9
115 -37 m 1,16,-1
 284 184 l 1,17,18
 104 401 104 401 104 741 c 0,19,20
 104 1095 104 1095 292.5 1306 c 128,-1,21
 481 1517 481 1517 795 1517 c 0,22,23
 1032 1517 1032 1517 1208 1391 c 1,24,-1
 1305 1517 l 1,25,-1
 1477 1517 l 1,26,-1
 1308 1297 l 1,27,28
 1488 1081 1488 1081 1488 738 c 0,29,30
 1488 387 1488 387 1299.5 175 c 128,-1,31
 1111 -37 1111 -37 799 -37 c 0,32,33
 554 -37 554 -37 384 89 c 1,34,-1
 288 -37 l 1,35,-1
 115 -37 l 1,16,-1
EndSplineSet
Validated: 1
EndChar

StartChar: infinity
Encoding: 8734 8734 146
Width: 1925
GlyphClass: 2
Flags: W
LayerCount: 2
Fore
SplineSet
944 495 m 1,0,1
 778 172 778 172 562 172 c 0,2,3
 422 172 422 172 322 288 c 128,-1,4
 222 404 222 404 222 567 c 0,5,6
 222 751 222 751 327 881.5 c 128,-1,7
 432 1012 432 1012 581 1012 c 0,8,9
 694 1012 694 1012 782.5 939.5 c 128,-1,10
 871 867 871 867 990 678 c 1,11,12
 1174 1012 1174 1012 1362 1012 c 0,13,14
 1504 1012 1504 1012 1603.5 893.5 c 128,-1,15
 1703 775 1703 775 1703 607 c 0,16,17
 1703 423 1703 423 1599 298 c 128,-1,18
 1495 173 1495 173 1344 173 c 0,19,20
 1231 173 1231 173 1145.5 242 c 128,-1,21
 1060 311 1060 311 944 495 c 1,0,1
901 548 m 1,22,23
 697 860 697 860 555 860 c 0,24,25
 464 860 464 860 397.5 767.5 c 128,-1,26
 331 675 331 675 331 547 c 0,27,28
 331 428 331 428 400 348.5 c 128,-1,29
 469 269 469 269 572 269 c 0,30,31
 756 269 756 269 901 548 c 1,22,23
1032 626 m 1,32,33
 1236 316 1236 316 1372 316 c 0,34,35
 1459 316 1459 316 1527.5 409 c 128,-1,36
 1596 502 1596 502 1596 621 c 0,37,38
 1596 742 1596 742 1525 824 c 128,-1,39
 1454 906 1454 906 1349 906 c 0,40,41
 1178 906 1178 906 1032 626 c 1,32,33
EndSplineSet
Validated: 1
EndChar

StartChar: plusminus
Encoding: 177 177 147
Width: 1628
GlyphClass: 2
Flags: W
LayerCount: 2
Fore
SplineSet
222 0 m 1,0,-1
 222 99 l 1,1,-1
 1406 99 l 1,2,-1
 1406 0 l 1,3,-1
 222 0 l 1,0,-1
765 296 m 1,4,-1
 765 691 l 1,5,-1
 222 691 l 1,6,-1
 222 790 l 1,7,-1
 765 790 l 1,8,-1
 765 1184 l 1,9,-1
 864 1184 l 1,10,-1
 864 790 l 1,11,-1
 1406 790 l 1,12,-1
 1406 691 l 1,13,-1
 864 691 l 1,14,-1
 864 296 l 1,15,-1
 765 296 l 1,4,-1
EndSplineSet
Validated: 1
EndChar

StartChar: lessequal
Encoding: 8804 8804 148
Width: 1628
GlyphClass: 2
Flags: W
LayerCount: 2
Fore
SplineSet
222 0 m 1,0,-1
 222 99 l 1,1,-1
 1406 99 l 1,2,-1
 1406 0 l 1,3,-1
 222 0 l 1,0,-1
1406 1184 m 1,4,-1
 1406 1078 l 1,5,-1
 490 710 l 1,6,-1
 1406 343 l 1,7,-1
 1406 237 l 1,8,-1
 222 711 l 1,9,-1
 1406 1184 l 1,4,-1
EndSplineSet
Validated: 1
EndChar

StartChar: greaterequal
Encoding: 8805 8805 149
Width: 1628
GlyphClass: 2
Flags: W
LayerCount: 2
Fore
SplineSet
1406 0 m 1,0,-1
 222 0 l 1,1,-1
 222 99 l 1,2,-1
 1406 99 l 1,3,-1
 1406 0 l 1,0,-1
222 1184 m 1,4,-1
 1406 711 l 1,5,-1
 222 237 l 1,6,-1
 222 343 l 1,7,-1
 1139 712 l 1,8,-1
 222 1078 l 1,9,-1
 222 1184 l 1,4,-1
EndSplineSet
Validated: 1
EndChar

StartChar: yen
Encoding: 165 165 150
Width: 1295
GlyphClass: 2
Flags: W
LayerCount: 2
Fore
SplineSet
543 0 m 1,0,-1
 543 345 l 1,1,-1
 247 345 l 1,2,-1
 247 493 l 1,3,-1
 543 493 l 1,4,-1
 543 592 l 1,5,-1
 247 592 l 1,6,-1
 247 740 l 1,7,-1
 543 740 l 1,8,-1
 80 1480 l 1,9,-1
 313 1480 l 1,10,-1
 673 905 l 1,11,-1
 1061 1480 l 1,12,-1
 1240 1480 l 1,13,-1
 740 740 l 1,14,-1
 1036 740 l 1,15,-1
 1036 592 l 1,16,-1
 740 592 l 1,17,-1
 740 493 l 1,18,-1
 1036 493 l 1,19,-1
 1036 345 l 1,20,-1
 740 345 l 1,21,-1
 740 0 l 1,22,-1
 543 0 l 1,0,-1
EndSplineSet
Validated: 1
EndChar

StartChar: micro
Encoding: 181 181 151
Width: 1283
GlyphClass: 2
Flags: W
LayerCount: 2
Fore
SplineSet
197 -395 m 1,0,-1
 197 1086 l 1,1,-1
 394 1086 l 1,2,-1
 394 370 l 2,3,4
 394 160 394 160 576 160 c 0,5,6
 741 160 741 160 888 382 c 1,7,-1
 888 1086 l 1,8,-1
 1085 1086 l 1,9,-1
 1085 0 l 1,10,-1
 888 0 l 1,11,-1
 888 204 l 1,12,13
 748 -25 748 -25 572 -25 c 0,14,15
 470 -25 470 -25 394 25 c 1,16,-1
 394 -395 l 1,17,-1
 197 -395 l 1,0,-1
EndSplineSet
Validated: 1
EndChar

StartChar: partialdiff
Encoding: 8706 8706 152
Width: 1342
GlyphClass: 2
Flags: W
LayerCount: 2
Fore
SplineSet
270 1293 m 1,0,1
 421 1604 421 1604 687 1604 c 0,2,3
 892 1604 892 1604 1006 1422 c 128,-1,4
 1120 1240 1120 1240 1120 913 c 0,5,6
 1120 509 1120 509 950 242 c 128,-1,7
 780 -25 780 -25 523 -25 c 0,8,9
 387 -25 387 -25 304.5 70.5 c 128,-1,10
 222 166 222 166 222 323 c 0,11,12
 222 576 222 576 395 794 c 128,-1,13
 568 1012 568 1012 769 1012 c 0,14,15
 934 1012 934 1012 1058 840 c 1,16,17
 1058 1431 1058 1431 622 1431 c 0,18,19
 438 1431 438 1431 270 1293 c 1,0,1
1052 752 m 1,20,21
 943 955 943 955 783 955 c 0,22,23
 634 955 634 955 521 791 c 128,-1,24
 408 627 408 627 408 412 c 0,25,26
 408 275 408 275 461.5 188.5 c 128,-1,27
 515 102 515 102 601 102 c 0,28,29
 762 102 762 102 892 289.5 c 128,-1,30
 1022 477 1022 477 1052 752 c 1,20,21
EndSplineSet
Validated: 1
EndChar

StartChar: summation
Encoding: 8721 8721 153
Width: 1653
GlyphClass: 2
Flags: W
LayerCount: 2
Fore
SplineSet
222 0 m 1,0,-1
 222 142 l 1,1,-1
 893 697 l 1,2,-1
 271 1388 l 1,3,-1
 271 1481 l 1,4,-1
 1389 1481 l 1,5,-1
 1389 1221 l 1,6,-1
 1278 1221 l 1,7,-1
 1276 1240 l 1,8,-1
 1271 1324 l 2,9,10
 1271 1372 1271 1372 1258.5 1385.5 c 128,-1,11
 1246 1399 1246 1399 1198 1399 c 2,12,-1
 1100 1400 l 1,13,-1
 493 1400 l 1,14,-1
 1072 756 l 1,15,-1
 330 142 l 1,16,-1
 1092 142 l 1,17,-1
 1228 148 l 2,18,19
 1310 148 1310 148 1315 218 c 2,20,-1
 1319 308 l 1,21,-1
 1320 327 l 1,22,-1
 1431 327 l 1,23,-1
 1431 0 l 1,24,-1
 222 0 l 1,0,-1
EndSplineSet
Validated: 1
EndChar

StartChar: product
Encoding: 8719 8719 154
Width: 1900
GlyphClass: 2
Flags: W
LayerCount: 2
Fore
SplineSet
580 1400 m 1,0,-1
 580 259 l 2,1,2
 580 141 580 141 597.5 106.5 c 128,-1,3
 615 72 615 72 678 68 c 2,4,-1
 746 63 l 1,5,-1
 765 62 l 1,6,-1
 765 0 l 1,7,-1
 222 0 l 1,8,-1
 222 62 l 1,9,-1
 240 63 l 1,10,-1
 308 68 l 2,11,12
 371 72 371 72 389 106.5 c 128,-1,13
 407 141 407 141 407 259 c 2,14,-1
 407 1221 l 2,15,16
 407 1339 407 1339 389 1373.5 c 128,-1,17
 371 1408 371 1408 308 1413 c 2,18,-1
 240 1418 l 1,19,-1
 222 1419 l 1,20,-1
 222 1481 l 1,21,-1
 1678 1481 l 1,22,-1
 1678 1419 l 1,23,-1
 1659 1418 l 1,24,-1
 1591 1413 l 2,25,26
 1534 1409 1534 1409 1518.5 1393 c 128,-1,27
 1503 1377 1503 1377 1499 1320 c 2,28,-1
 1493 1221 l 1,29,-1
 1493 259 l 1,30,-1
 1499 160 l 2,31,32
 1503 103 1503 103 1518.5 87.5 c 128,-1,33
 1534 72 1534 72 1591 68 c 2,34,-1
 1659 63 l 1,35,-1
 1678 62 l 1,36,-1
 1678 0 l 1,37,-1
 1135 0 l 1,38,-1
 1135 62 l 1,39,-1
 1153 63 l 1,40,-1
 1221 68 l 2,41,42
 1279 72 1279 72 1294.5 87.5 c 128,-1,43
 1310 103 1310 103 1314 160 c 2,44,-1
 1320 259 l 1,45,-1
 1320 1400 l 1,46,-1
 580 1400 l 1,0,-1
EndSplineSet
Validated: 1
EndChar

StartChar: pi
Encoding: 960 960 155
Width: 1598
GlyphClass: 2
Flags: W
LayerCount: 2
Fore
SplineSet
389 0 m 1,0,-1
 389 913 l 1,1,-1
 347 913 l 2,2,3
 204 913 204 913 74 843 c 1,4,-1
 74 1036 l 1,5,6
 191 1086 191 1086 357 1086 c 2,7,-1
 1524 1086 l 1,8,-1
 1524 913 l 1,9,-1
 1265 913 l 1,10,-1
 1265 295 l 2,11,12
 1265 127 1265 127 1341 0 c 1,13,-1
 1133 0 l 1,14,15
 1067 144 1067 144 1067 303 c 2,16,-1
 1067 913 l 1,17,-1
 586 913 l 1,18,-1
 586 0 l 1,19,-1
 389 0 l 1,0,-1
EndSplineSet
Validated: 1
EndChar

StartChar: integral
Encoding: 8747 8747 156
Width: 1184
GlyphClass: 2
Flags: W
LayerCount: 2
Fore
SplineSet
366 -211 m 1,0,1
 385 -224 385 -224 405 -224 c 0,2,3
 519 -224 519 -224 519 8 c 1,4,-1
 515 157 l 1,5,-1
 506 493 l 1,6,-1
 506 827 l 2,7,8
 506 1248 506 1248 578 1432 c 128,-1,9
 650 1616 650 1616 814 1616 c 0,10,11
 962 1616 962 1616 962 1481 c 0,12,13
 962 1376 962 1376 871 1376 c 0,14,15
 785 1376 785 1376 785 1461 c 0,16,17
 785 1501 785 1501 817 1530 c 1,18,19
 793 1542 793 1542 778 1542 c 0,20,21
 664 1542 664 1542 664 1342 c 1,22,-1
 668 1166 l 1,23,-1
 675 956 l 1,24,-1
 678 827 l 1,25,-1
 678 493 l 2,26,27
 678 -296 678 -296 370 -296 c 0,28,29
 222 -296 222 -296 222 -161 c 0,30,31
 222 -56 222 -56 315 -56 c 0,32,33
 397 -56 397 -56 397 -145 c 0,34,35
 397 -179 397 -179 366 -211 c 1,0,1
EndSplineSet
Validated: 1
EndChar

StartChar: ordfeminine
Encoding: 170 170 157
Width: 864
GlyphClass: 2
Flags: W
LayerCount: 2
Fore
SplineSet
512 1001 m 1,0,1
 414 909 414 909 314 909 c 0,2,3
 230 909 230 909 176.5 961 c 128,-1,4
 123 1013 123 1013 123 1093 c 0,5,6
 123 1199 123 1199 210.5 1258.5 c 128,-1,7
 298 1318 298 1318 456 1318 c 2,8,-1
 503 1318 l 1,9,-1
 503 1387 l 2,10,11
 503 1495 503 1495 384 1495 c 0,12,13
 286 1495 286 1495 180 1437 c 1,14,-1
 180 1547 l 1,15,16
 299 1594 299 1594 413 1594 c 0,17,18
 647 1594 647 1594 647 1390 c 2,19,-1
 647 1096 l 2,20,21
 647 1007 647 1007 703 1007 c 0,22,23
 712 1007 712 1007 726 1010 c 1,24,-1
 733 927 l 1,25,26
 684 909 684 909 639 909 c 0,27,28
 540 909 540 909 512 1001 c 1,0,1
503 1081 m 1,29,-1
 503 1232 l 1,30,-1
 466 1232 l 2,31,32
 267 1232 267 1232 267 1112 c 0,33,34
 267 1072 267 1072 294.5 1045 c 128,-1,35
 322 1018 322 1018 362 1018 c 0,36,37
 430 1018 430 1018 503 1081 c 1,29,-1
EndSplineSet
Validated: 1
EndChar

StartChar: ordmasculine
Encoding: 186 186 158
Width: 864
GlyphClass: 2
Flags: W
LayerCount: 2
Fore
SplineSet
449 909 m 0,0,1
 298 909 298 909 210.5 1001 c 128,-1,2
 123 1093 123 1093 123 1252 c 0,3,4
 123 1410 123 1410 210.5 1502 c 128,-1,5
 298 1594 298 1594 449 1594 c 0,6,7
 599 1594 599 1594 686.5 1502 c 128,-1,8
 774 1410 774 1410 774 1252 c 0,9,10
 774 1093 774 1093 686.5 1001 c 128,-1,11
 599 909 599 909 449 909 c 0,0,1
449 1009 m 0,12,13
 617 1009 617 1009 617 1252 c 0,14,15
 617 1494 617 1494 449 1494 c 0,16,17
 280 1494 280 1494 280 1252 c 0,18,19
 280 1009 280 1009 449 1009 c 0,12,13
EndSplineSet
Validated: 1
EndChar

StartChar: ohm
Encoding: 8486 8486 159
Width: 1794
GlyphClass: 2
Flags: W
LayerCount: 2
Fore
SplineSet
1136 130 m 1,0,-1
 1295 130 l 1,1,-1
 1436 135 l 2,2,3
 1519 135 1519 135 1524 205 c 2,4,-1
 1527 296 l 1,5,-1
 1529 315 l 1,6,-1
 1639 315 l 1,7,-1
 1639 0 l 1,8,-1
 1048 0 l 1,9,-1
 1048 130 l 1,10,11
 1383 495 1383 495 1383 854 c 0,12,13
 1383 1113 1383 1113 1247 1278.5 c 128,-1,14
 1111 1444 1111 1444 897 1444 c 256,15,16
 683 1444 683 1444 547 1279 c 128,-1,17
 411 1114 411 1114 411 855 c 0,18,19
 411 493 411 493 745 130 c 1,20,-1
 745 0 l 1,21,-1
 154 0 l 1,22,-1
 154 315 l 1,23,-1
 267 314 l 1,24,-1
 266 296 l 1,25,-1
 270 206 l 2,26,27
 275 136 275 136 357 136 c 2,28,-1
 498 130 l 1,29,-1
 657 130 l 1,30,31
 400 348 400 348 295 510 c 128,-1,32
 190 672 190 672 190 851 c 0,33,34
 190 1140 190 1140 390 1329 c 128,-1,35
 590 1518 590 1518 897 1518 c 0,36,37
 1201 1518 1201 1518 1402.5 1330 c 128,-1,38
 1604 1142 1604 1142 1604 858 c 0,39,40
 1604 674 1604 674 1499 510.5 c 128,-1,41
 1394 347 1394 347 1136 130 c 1,0,-1
EndSplineSet
Validated: 1
EndChar

StartChar: ae
Encoding: 230 230 160
Width: 1743
GlyphClass: 2
Flags: W
LayerCount: 2
Fore
SplineSet
809 193 m 1,0,1
 619 -25 619 -25 416 -25 c 0,2,3
 281 -25 281 -25 192 59.5 c 128,-1,4
 103 144 103 144 103 273 c 0,5,6
 103 451 103 451 252.5 546.5 c 128,-1,7
 402 642 402 642 682 642 c 2,8,-1
 728 642 l 1,9,-1
 728 773 l 2,10,11
 728 962 728 962 531 962 c 0,12,13
 378 962 378 962 197 866 c 1,14,-1
 197 1029 l 1,15,16
 396 1110 396 1110 573 1110 c 0,17,18
 765 1110 765 1110 877 989 c 1,19,20
 1000 1110 1000 1110 1180 1110 c 0,21,22
 1598 1110 1598 1110 1598 512 c 1,23,-1
 926 512 l 1,24,25
 954 123 954 123 1291 123 c 0,26,27
 1431 123 1431 123 1598 194 c 1,28,-1
 1598 37 l 1,29,30
 1405 -25 1405 -25 1239 -25 c 0,31,32
 954 -25 954 -25 809 193 c 1,0,1
728 245 m 1,33,-1
 728 526 l 1,34,-1
 665 528 l 1,35,36
 501 528 501 528 400.5 467 c 128,-1,37
 300 406 300 406 300 305 c 0,38,39
 300 234 300 234 350 185 c 128,-1,40
 400 136 400 136 472 136 c 0,41,42
 595 136 595 136 728 245 c 1,33,-1
932 648 m 1,43,-1
 1388 648 l 1,44,45
 1388 963 1388 963 1174 963 c 0,46,47
 957 963 957 963 932 648 c 1,43,-1
EndSplineSet
Validated: 1
EndChar

StartChar: oslash
Encoding: 248 248 161
Width: 1258
GlyphClass: 2
Flags: W
LayerCount: 2
Fore
SplineSet
111 -25 m 1,0,-1
 238 144 l 1,1,2
 111 290 111 290 111 540 c 0,3,4
 111 804 111 804 250 957 c 128,-1,5
 389 1110 389 1110 629 1110 c 0,6,7
 807 1110 807 1110 933 1025 c 1,8,-1
 1001 1110 l 1,9,-1
 1147 1110 l 1,10,-1
 1018 945 l 1,11,-1
 1020 941 l 1,12,13
 1147 782 1147 782 1147 544 c 0,14,15
 1147 282 1147 282 1008 128.5 c 128,-1,16
 869 -25 869 -25 630 -25 c 0,17,18
 456 -25 456 -25 326 60 c 1,19,-1
 259 -25 l 1,20,-1
 111 -25 l 1,0,-1
895 787 m 1,21,-1
 432 196 l 1,22,23
 509 123 509 123 627 123 c 0,24,25
 774 123 774 123 856 232.5 c 128,-1,26
 938 342 938 342 938 538 c 0,27,28
 938 674 938 674 895 787 c 1,21,-1
364 298 m 1,29,-1
 827 888 l 1,30,31
 746 962 746 962 631 962 c 0,32,33
 484 962 484 962 402.5 852.5 c 128,-1,34
 321 743 321 743 321 547 c 0,35,36
 321 402 321 402 364 298 c 1,29,-1
EndSplineSet
Validated: 1
EndChar

StartChar: questiondown
Encoding: 191 191 162
Width: 864
GlyphClass: 2
Flags: W
LayerCount: 2
Fore
SplineSet
614 1086 m 1,0,-1
 614 888 l 1,1,-1
 416 888 l 1,2,-1
 416 1086 l 1,3,-1
 614 1086 l 1,0,-1
614 691 m 1,4,-1
 614 636 l 2,5,6
 614 525 614 525 583.5 450.5 c 128,-1,7
 553 376 553 376 467 277 c 2,8,-1
 403 205 l 2,9,10
 247 26 247 26 247 -90 c 0,11,12
 247 -179 247 -179 316 -231.5 c 128,-1,13
 385 -284 385 -284 503 -284 c 0,14,15
 653 -284 653 -284 827 -209 c 1,16,-1
 827 -376 l 1,17,18
 641 -432 641 -432 479 -432 c 0,19,20
 276 -432 276 -432 156.5 -340.5 c 128,-1,21
 37 -249 37 -249 37 -94 c 0,22,23
 37 -5 37 -5 71 58 c 128,-1,24
 105 121 105 121 204 214 c 2,25,-1
 265 273 l 2,26,27
 358 362 358 362 387 420.5 c 128,-1,28
 416 479 416 479 416 580 c 2,29,-1
 416 691 l 1,30,-1
 614 691 l 1,4,-1
EndSplineSet
Validated: 1
EndChar

StartChar: exclamdown
Encoding: 161 161 163
Width: 648
GlyphClass: 2
Flags: W
LayerCount: 2
Fore
SplineSet
422 1086 m 1,0,-1
 422 888 l 1,1,-1
 225 888 l 1,2,-1
 225 1086 l 1,3,-1
 422 1086 l 1,0,-1
398 691 m 1,4,-1
 422 -99 l 1,5,-1
 422 -395 l 1,6,-1
 225 -395 l 1,7,-1
 225 -99 l 1,8,-1
 250 691 l 1,9,-1
 398 691 l 1,4,-1
EndSplineSet
Validated: 1
EndChar

StartChar: logicalnot
Encoding: 172 172 164
Width: 1628
GlyphClass: 2
Flags: W
LayerCount: 2
Fore
SplineSet
1308 296 m 1,0,-1
 1308 691 l 1,1,-1
 222 691 l 1,2,-1
 222 790 l 1,3,-1
 1406 790 l 1,4,-1
 1406 296 l 1,5,-1
 1308 296 l 1,0,-1
EndSplineSet
Validated: 1
EndChar

StartChar: radical
Encoding: 8730 8730 165
Width: 1653
GlyphClass: 2
Flags: W
LayerCount: 2
Fore
SplineSet
205 503 m 1,0,-1
 177 558 l 1,1,-1
 442 691 l 1,2,-1
 837 -99 l 1,3,-1
 1612 1838 l 1,4,-1
 1678 1838 l 1,5,-1
 864 -197 l 1,6,-1
 776 -197 l 1,7,-1
 382 591 l 1,8,-1
 205 503 l 1,0,-1
EndSplineSet
Validated: 1
EndChar

StartChar: fscript
Encoding: 402 402 166
Width: 800
GlyphClass: 2
Flags: W
LayerCount: 2
Fore
SplineSet
-98 -387 m 1,0,-1
 -98 -230 l 1,1,2
 34 -271 34 -271 114 -271 c 0,3,4
 211 -271 211 -271 247 -225 c 128,-1,5
 283 -179 283 -179 283 -53 c 2,6,-1
 283 938 l 1,7,-1
 110 938 l 1,8,-1
 110 1086 l 1,9,-1
 283 1086 l 1,10,-1
 283 1216 l 2,11,12
 283 1604 283 1604 636 1604 c 0,13,14
 736 1604 736 1604 861 1571 c 1,15,-1
 861 1415 l 1,16,17
 729 1456 729 1456 649 1456 c 0,18,19
 552 1456 552 1456 516 1409.5 c 128,-1,20
 480 1363 480 1363 480 1237 c 2,21,-1
 480 1086 l 1,22,-1
 752 1086 l 1,23,-1
 752 938 l 1,24,-1
 480 938 l 1,25,-1
 480 -32 l 2,26,27
 480 -419 480 -419 127 -419 c 0,28,29
 27 -419 27 -419 -98 -387 c 1,0,-1
EndSplineSet
Validated: 1
EndChar

StartChar: approxequal
Encoding: 8776 8776 167
Width: 1628
GlyphClass: 2
Flags: W
LayerCount: 2
Fore
SplineSet
284 222 m 1,0,-1
 222 222 l 1,1,2
 237 541 237 541 483 541 c 0,3,4
 586 541 586 541 817 437 c 2,5,-1
 905 397 l 2,6,7
 1117 302 1117 302 1177 302 c 0,8,9
 1321 302 1321 302 1345 518 c 1,10,-1
 1406 518 l 1,11,12
 1386 199 1386 199 1142 199 c 0,13,14
 1058 199 1058 199 875 282 c 2,15,-1
 816 309 l 1,16,-1
 726 349 l 2,17,18
 528 438 528 438 454 438 c 0,19,20
 381 438 381 438 332.5 376 c 128,-1,21
 284 314 284 314 284 222 c 1,0,-1
284 666 m 1,22,-1
 222 666 l 1,23,24
 237 985 237 985 483 985 c 0,25,26
 587 985 587 985 817 881 c 2,27,-1
 905 842 l 2,28,29
 1117 746 1117 746 1177 746 c 0,30,31
 1321 746 1321 746 1345 962 c 1,32,-1
 1406 962 l 1,33,34
 1386 643 1386 643 1142 643 c 0,35,36
 1059 643 1059 643 875 726 c 2,37,-1
 816 753 l 1,38,-1
 726 794 l 2,39,40
 528 883 528 883 454 883 c 0,41,42
 381 883 381 883 332.5 820.5 c 128,-1,43
 284 758 284 758 284 666 c 1,22,-1
EndSplineSet
Validated: 1
EndChar

StartChar: Delta
Encoding: 8710 8710 168
Width: 1826
GlyphClass: 2
Flags: W
LayerCount: 2
Fore
SplineSet
222 0 m 1,0,-1
 222 136 l 1,1,-1
 901 1493 l 1,2,-1
 968 1493 l 1,3,-1
 1604 136 l 1,4,-1
 1604 0 l 1,5,-1
 222 0 l 1,0,-1
303 142 m 1,6,-1
 1411 142 l 1,7,-1
 875 1284 l 1,8,-1
 303 142 l 1,6,-1
EndSplineSet
Validated: 2097153
EndChar

StartChar: guillemotleft
Encoding: 171 171 169
Width: 1073
GlyphClass: 2
Flags: W
LayerCount: 2
Fore
SplineSet
999 913 m 1,0,-1
 703 543 l 1,1,-1
 999 173 l 1,2,-1
 901 99 l 1,3,-1
 506 543 l 1,4,-1
 901 987 l 1,5,-1
 999 913 l 1,0,-1
604 913 m 1,6,-1
 308 543 l 1,7,-1
 604 173 l 1,8,-1
 506 99 l 1,9,-1
 111 543 l 1,10,-1
 506 987 l 1,11,-1
 604 913 l 1,6,-1
EndSplineSet
Validated: 1
EndChar

StartChar: guillemotright
Encoding: 187 187 170
Width: 1073
GlyphClass: 2
Flags: W
LayerCount: 2
Fore
SplineSet
74 173 m 1,0,-1
 370 543 l 1,1,-1
 74 913 l 1,2,-1
 173 987 l 1,3,-1
 567 543 l 1,4,-1
 173 99 l 1,5,-1
 74 173 l 1,0,-1
469 173 m 1,6,-1
 765 543 l 1,7,-1
 469 913 l 1,8,-1
 567 987 l 1,9,-1
 962 543 l 1,10,-1
 567 99 l 1,11,-1
 469 173 l 1,6,-1
EndSplineSet
Validated: 1
EndChar

StartChar: ellipsis
Encoding: 8230 8230 171
Width: 2048
GlyphClass: 2
Flags: W
LayerCount: 2
Fore
SplineSet
243 0 m 1,0,-1
 243 197 l 1,1,-1
 440 197 l 1,2,-1
 440 0 l 1,3,-1
 243 0 l 1,0,-1
926 0 m 1,4,-1
 926 197 l 1,5,-1
 1123 197 l 1,6,-1
 1123 0 l 1,7,-1
 926 0 l 1,4,-1
1608 0 m 1,8,-1
 1608 197 l 1,9,-1
 1806 197 l 1,10,-1
 1806 0 l 1,11,-1
 1608 0 l 1,8,-1
EndSplineSet
Validated: 1
EndChar

StartChar: OE
Encoding: 338 338 176
Width: 2048
GlyphClass: 2
Flags: W
LayerCount: 2
Fore
SplineSet
1129 58 m 1,0,1
 973 -37 973 -37 782 -37 c 0,2,3
 478 -37 478 -37 291 177.5 c 128,-1,4
 104 392 104 392 104 740 c 0,5,6
 104 1093 104 1093 292 1305 c 128,-1,7
 480 1517 480 1517 793 1517 c 0,8,9
 974 1517 974 1517 1129 1423 c 1,10,-1
 1129 1480 l 1,11,-1
 1956 1480 l 1,12,-1
 1956 1323 l 1,13,-1
 1339 1323 l 1,14,-1
 1339 848 l 1,15,-1
 1856 848 l 1,16,-1
 1856 693 l 1,17,-1
 1340 692 l 1,18,-1
 1339 157 l 1,19,-1
 1999 157 l 1,20,-1
 1999 0 l 1,21,-1
 1129 0 l 1,22,-1
 1129 58 l 1,0,1
1129 569 m 2,23,-1
 1129 911 l 2,24,25
 1129 1145 1129 1145 1048.5 1252.5 c 128,-1,26
 968 1360 968 1360 793 1360 c 0,27,28
 574 1360 574 1360 450.5 1195.5 c 128,-1,29
 327 1031 327 1031 327 740 c 0,30,31
 327 448 327 448 451 284 c 128,-1,32
 575 120 575 120 796 120 c 0,33,34
 969 120 969 120 1049 228 c 128,-1,35
 1129 336 1129 336 1129 569 c 2,23,-1
EndSplineSet
Validated: 1
EndChar

StartChar: oe
Encoding: 339 339 177
Width: 1901
GlyphClass: 2
Flags: W
LayerCount: 2
Fore
SplineSet
979 174 m 1,0,1
 849 -25 849 -25 620 -25 c 0,2,3
 388 -25 388 -25 249.5 129.5 c 128,-1,4
 111 284 111 284 111 543 c 256,5,6
 111 802 111 802 249.5 956 c 128,-1,7
 388 1110 388 1110 622 1110 c 0,8,9
 840 1110 840 1110 974 910 c 1,10,11
 1096 1110 1096 1110 1339 1110 c 0,12,13
 1756 1110 1756 1110 1756 512 c 1,14,-1
 1083 512 l 1,15,16
 1112 123 1112 123 1448 123 c 0,17,18
 1588 123 1588 123 1756 194 c 1,19,-1
 1756 37 l 1,20,21
 1563 -25 1563 -25 1406 -25 c 0,22,23
 1256 -25 1256 -25 1156.5 21.5 c 128,-1,24
 1057 68 1057 68 979 174 c 1,0,1
624 123 m 0,25,26
 882 123 882 123 882 560 c 0,27,28
 882 962 882 962 624 962 c 0,29,30
 481 962 481 962 401 851.5 c 128,-1,31
 321 741 321 741 321 543 c 256,32,33
 321 345 321 345 401 234 c 128,-1,34
 481 123 481 123 624 123 c 0,25,26
1090 648 m 1,35,-1
 1546 648 l 1,36,37
 1546 963 1546 963 1332 963 c 0,38,39
 1115 963 1115 963 1090 648 c 1,35,-1
EndSplineSet
Validated: 1
EndChar

StartChar: endash
Encoding: 8211 8211 178
Width: 1024
GlyphClass: 2
Flags: W
LayerCount: 2
Fore
SplineSet
105 543 m 1,0,-1
 105 666 l 1,1,-1
 919 666 l 1,2,-1
 919 543 l 1,3,-1
 105 543 l 1,0,-1
EndSplineSet
Validated: 1
EndChar

StartChar: emdash
Encoding: 8212 8212 179
Width: 2048
GlyphClass: 2
Flags: W
LayerCount: 2
Fore
SplineSet
99 543 m 1,0,-1
 99 666 l 1,1,-1
 1950 666 l 1,2,-1
 1950 543 l 1,3,-1
 99 543 l 1,0,-1
EndSplineSet
Validated: 1
EndChar

StartChar: quotedblleft
Encoding: 8220 8220 180
Width: 765
GlyphClass: 2
Flags: W
LayerCount: 2
Fore
SplineSet
654 1579 m 1,0,-1
 654 1505 l 1,1,2
 583 1468 583 1468 583 1281 c 2,3,-1
 583 1258 l 1,4,-1
 654 1258 l 1,5,-1
 654 1061 l 1,6,-1
 456 1061 l 1,7,-1
 456 1227 l 2,8,9
 456 1530 456 1530 654 1579 c 1,0,-1
308 1579 m 1,10,-1
 308 1505 l 1,11,12
 238 1468 238 1468 238 1281 c 2,13,-1
 238 1258 l 1,14,-1
 308 1258 l 1,15,-1
 308 1061 l 1,16,-1
 111 1061 l 1,17,-1
 111 1227 l 2,18,19
 111 1530 111 1530 308 1579 c 1,10,-1
EndSplineSet
Validated: 1
EndChar

StartChar: quotedblright
Encoding: 8221 8221 181
Width: 765
GlyphClass: 2
Flags: W
LayerCount: 2
Fore
SplineSet
111 1061 m 1,0,-1
 111 1135 l 1,1,2
 182 1172 182 1172 182 1359 c 2,3,-1
 182 1382 l 1,4,-1
 111 1382 l 1,5,-1
 111 1579 l 1,6,-1
 308 1579 l 1,7,-1
 308 1413 l 2,8,9
 308 1110 308 1110 111 1061 c 1,0,-1
456 1061 m 1,10,-1
 456 1135 l 1,11,12
 527 1172 527 1172 527 1359 c 2,13,-1
 527 1382 l 1,14,-1
 456 1382 l 1,15,-1
 456 1579 l 1,16,-1
 654 1579 l 1,17,-1
 654 1413 l 2,18,19
 654 1110 654 1110 456 1061 c 1,10,-1
EndSplineSet
Validated: 1
EndChar

StartChar: quoteleft
Encoding: 8216 8216 182
Width: 648
GlyphClass: 2
Flags: W
LayerCount: 2
Fore
SplineSet
447 1579 m 1,0,-1
 447 1505 l 1,1,2
 351 1478 351 1478 351 1279 c 2,3,-1
 351 1258 l 1,4,-1
 447 1258 l 1,5,-1
 447 1012 l 1,6,-1
 200 1012 l 1,7,-1
 200 1226 l 2,8,9
 200 1553 200 1553 447 1579 c 1,0,-1
EndSplineSet
Validated: 1
EndChar

StartChar: quoteright
Encoding: 8217 8217 183
Width: 648
GlyphClass: 2
Flags: W
LayerCount: 2
Fore
SplineSet
200 1012 m 1,0,-1
 200 1086 l 1,1,2
 296 1113 296 1113 296 1312 c 2,3,-1
 296 1332 l 1,4,-1
 200 1332 l 1,5,-1
 200 1579 l 1,6,-1
 447 1579 l 1,7,-1
 447 1365 l 2,8,9
 447 1036 447 1036 200 1012 c 1,0,-1
EndSplineSet
Validated: 1
EndChar

StartChar: divide
Encoding: 247 247 184
Width: 1628
GlyphClass: 2
Flags: W
LayerCount: 2
Fore
SplineSet
715 99 m 1,0,-1
 715 296 l 1,1,-1
 913 296 l 1,2,-1
 913 99 l 1,3,-1
 715 99 l 1,0,-1
222 543 m 1,4,-1
 222 642 l 1,5,-1
 1406 642 l 1,6,-1
 1406 543 l 1,7,-1
 222 543 l 1,4,-1
715 888 m 1,8,-1
 715 1086 l 1,9,-1
 913 1086 l 1,10,-1
 913 888 l 1,11,-1
 715 888 l 1,8,-1
EndSplineSet
Validated: 1
EndChar

StartChar: lozenge
Encoding: 9674 9674 185
Width: 1543
GlyphClass: 2
Flags: W
LayerCount: 2
Fore
SplineSet
772 -37 m 1,0,-1
 222 740 l 1,1,-1
 772 1517 l 1,2,-1
 1321 740 l 1,3,-1
 772 -37 l 1,0,-1
772 133 m 1,4,-1
 1201 740 l 1,5,-1
 772 1347 l 1,6,-1
 342 740 l 1,7,-1
 772 133 l 1,4,-1
EndSplineSet
Validated: 1
EndChar

StartChar: slashmath
Encoding: 8725 8725 188
Width: 1074
GlyphClass: 2
Flags: W
LayerCount: 2
Fore
SplineSet
222 -296 m 1,0,-1
 748 1481 l 1,1,-1
 852 1481 l 1,2,-1
 326 -296 l 1,3,-1
 222 -296 l 1,0,-1
EndSplineSet
Validated: 1
EndChar

StartChar: Euro
Encoding: 8364 8364 189
Width: 1294
GlyphClass: 2
Flags: W
LayerCount: 2
Fore
SplineSet
346 539 m 1,0,-1
 348 535 l 1,1,2
 387 342 387 342 502.5 234.5 c 128,-1,3
 618 127 618 127 784 127 c 0,4,5
 973 127 973 127 1180 281 c 1,6,-1
 1180 100 l 1,7,8
 1075 29 1075 29 978 -4 c 128,-1,9
 881 -37 881 -37 756 -37 c 0,10,11
 667 -37 667 -37 589 -18 c 128,-1,12
 511 1 511 1 444.5 38 c 128,-1,13
 378 75 378 75 324 127.5 c 128,-1,14
 270 180 270 180 228 248 c 128,-1,15
 186 316 186 316 157 397 c 0,16,17
 119 504 119 504 119 535 c 2,18,-1
 119 539 l 1,19,-1
 -29 539 l 1,20,-1
 0 686 l 1,21,-1
 104 686 l 1,22,-1
 104 786 l 1,23,-1
 106 793 l 1,24,-1
 -29 793 l 1,25,-1
 0 940 l 1,26,-1
 121 940 l 1,27,-1
 121 946 l 1,28,29
 165 1218 165 1218 334 1368 c 128,-1,30
 503 1518 503 1518 764 1518 c 0,31,32
 941 1518 941 1518 1178 1427 c 1,33,-1
 1178 1231 l 1,34,35
 1039 1296 1039 1296 942.5 1328 c 128,-1,36
 846 1360 846 1360 748 1360 c 0,37,38
 689 1360 689 1360 635 1341 c 128,-1,39
 581 1322 581 1322 534 1286 c 128,-1,40
 487 1250 487 1250 449 1199 c 128,-1,41
 411 1148 411 1148 377.5 1068 c 128,-1,42
 344 988 344 988 344 946 c 2,43,-1
 344 940 l 1,44,-1
 954 940 l 1,45,-1
 924 793 l 1,46,-1
 328 793 l 1,47,-1
 328 754 l 1,48,-1
 330 692 l 1,49,-1
 330 686 l 1,50,-1
 903 686 l 1,51,-1
 874 539 l 1,52,-1
 346 539 l 1,0,-1
EndSplineSet
Validated: 1
EndChar

StartChar: guilsinglleft
Encoding: 8249 8249 190
Width: 679
GlyphClass: 2
Flags: W
LayerCount: 2
Fore
SplineSet
604 913 m 1,0,-1
 308 543 l 1,1,-1
 604 173 l 1,2,-1
 506 99 l 1,3,-1
 111 543 l 1,4,-1
 506 987 l 1,5,-1
 604 913 l 1,0,-1
EndSplineSet
Validated: 1
EndChar

StartChar: guilsinglright
Encoding: 8250 8250 191
Width: 679
GlyphClass: 2
Flags: W
LayerCount: 2
Fore
SplineSet
74 173 m 1,0,-1
 370 543 l 1,1,-1
 74 913 l 1,2,-1
 173 987 l 1,3,-1
 567 543 l 1,4,-1
 173 99 l 1,5,-1
 74 173 l 1,0,-1
EndSplineSet
Validated: 1
EndChar

StartChar: daggerdbl
Encoding: 8225 8225 192
Width: 1295
GlyphClass: 2
Flags: W
LayerCount: 2
Fore
SplineSet
549 -296 m 1,0,-1
 573 247 l 1,1,-1
 228 222 l 1,2,-1
 228 370 l 1,3,-1
 573 345 l 1,4,-1
 573 839 l 1,5,-1
 228 814 l 1,6,-1
 228 962 l 1,7,-1
 573 938 l 1,8,-1
 549 1480 l 1,9,-1
 746 1480 l 1,10,-1
 721 938 l 1,11,-1
 1067 962 l 1,12,-1
 1067 814 l 1,13,-1
 721 839 l 1,14,-1
 721 345 l 1,15,-1
 1067 370 l 1,16,-1
 1067 222 l 1,17,-1
 721 247 l 1,18,-1
 746 -296 l 1,19,-1
 549 -296 l 1,0,-1
EndSplineSet
Validated: 1
EndChar

StartChar: bulletmath
Encoding: 8729 8729 193
Width: 1148
GlyphClass: 2
Flags: W
LayerCount: 2
Fore
SplineSet
222 592 m 256,0,1
 222 738 222 738 325 841 c 128,-1,2
 428 944 428 944 574 944 c 256,3,4
 720 944 720 944 823 841 c 128,-1,5
 926 738 926 738 926 592 c 256,6,7
 926 446 926 446 823 343 c 128,-1,8
 720 240 720 240 574 240 c 256,9,10
 428 240 428 240 325 343 c 128,-1,11
 222 446 222 446 222 592 c 256,0,1
EndSplineSet
Validated: 1
EndChar

StartChar: quotesinglbase
Encoding: 8218 8218 194
Width: 648
GlyphClass: 2
Flags: W
LayerCount: 2
Fore
SplineSet
200 -296 m 1,0,-1
 200 -222 l 1,1,2
 296 -195 296 -195 296 -20 c 2,3,-1
 296 0 l 1,4,-1
 200 0 l 1,5,-1
 200 247 l 1,6,-1
 447 247 l 1,7,-1
 447 33 l 2,8,9
 447 -270 447 -270 200 -296 c 1,0,-1
EndSplineSet
Validated: 1
EndChar

StartChar: quotedblbase
Encoding: 8222 8222 195
Width: 765
GlyphClass: 2
Flags: W
LayerCount: 2
Fore
SplineSet
111 -321 m 1,0,-1
 111 -247 l 1,1,2
 182 -210 182 -210 182 -23 c 2,3,-1
 182 0 l 1,4,-1
 111 0 l 1,5,-1
 111 197 l 1,6,-1
 308 197 l 1,7,-1
 308 31 l 2,8,9
 308 -272 308 -272 111 -321 c 1,0,-1
456 -321 m 1,10,-1
 456 -247 l 1,11,12
 527 -210 527 -210 527 -23 c 2,13,-1
 527 0 l 1,14,-1
 456 0 l 1,15,-1
 456 197 l 1,16,-1
 654 197 l 1,17,-1
 654 31 l 2,18,19
 654 -272 654 -272 456 -321 c 1,10,-1
EndSplineSet
Validated: 1
EndChar

StartChar: perthousand
Encoding: 8240 8240 196
Width: 2073
GlyphClass: 2
Flags: W
LayerCount: 2
Fore
SplineSet
24 -37 m 1,0,-1
 1190 1517 l 1,1,-1
 1344 1517 l 1,2,-1
 179 -37 l 1,3,-1
 24 -37 l 1,0,-1
327 740 m 0,4,5
 182 740 182 740 97 840 c 128,-1,6
 12 940 12 940 12 1110 c 0,7,8
 12 1281 12 1281 97 1380.5 c 128,-1,9
 182 1480 182 1480 327 1480 c 0,10,11
 471 1480 471 1480 556 1380.5 c 128,-1,12
 641 1281 641 1281 641 1110 c 0,13,14
 641 940 641 940 556 840 c 128,-1,15
 471 740 471 740 327 740 c 0,4,5
327 839 m 0,16,17
 403 839 403 839 448 912.5 c 128,-1,18
 493 986 493 986 493 1110 c 0,19,20
 493 1235 493 1235 448 1308.5 c 128,-1,21
 403 1382 403 1382 327 1382 c 0,22,23
 250 1382 250 1382 205 1308.5 c 128,-1,24
 160 1235 160 1235 160 1110 c 0,25,26
 160 986 160 986 205 912.5 c 128,-1,27
 250 839 250 839 327 839 c 0,16,17
1042 0 m 256,28,29
 897 0 897 0 812.5 100 c 128,-1,30
 728 200 728 200 728 370 c 256,31,32
 728 540 728 540 812.5 640 c 128,-1,33
 897 740 897 740 1042 740 c 256,34,35
 1187 740 1187 740 1272 640 c 128,-1,36
 1357 540 1357 540 1357 370 c 256,37,38
 1357 200 1357 200 1272 100 c 128,-1,39
 1187 0 1187 0 1042 0 c 256,28,29
1042 99 m 0,40,41
 1119 99 1119 99 1164 172 c 128,-1,42
 1209 245 1209 245 1209 370 c 256,43,44
 1209 495 1209 495 1164 568.5 c 128,-1,45
 1119 642 1119 642 1042 642 c 0,46,47
 966 642 966 642 921 568.5 c 128,-1,48
 876 495 876 495 876 370 c 256,49,50
 876 245 876 245 921 172 c 128,-1,51
 966 99 966 99 1042 99 c 0,40,41
1745 0 m 0,52,53
 1601 0 1601 0 1516 100 c 128,-1,54
 1431 200 1431 200 1431 370 c 256,55,56
 1431 540 1431 540 1516 640 c 128,-1,57
 1601 740 1601 740 1745 740 c 0,58,59
 1890 740 1890 740 1975 640 c 128,-1,60
 2060 540 2060 540 2060 370 c 256,61,62
 2060 200 2060 200 1975 100 c 128,-1,63
 1890 0 1890 0 1745 0 c 0,52,53
1745 99 m 0,64,65
 1822 99 1822 99 1867 172 c 128,-1,66
 1912 245 1912 245 1912 370 c 256,67,68
 1912 495 1912 495 1867 568.5 c 128,-1,69
 1822 642 1822 642 1745 642 c 0,70,71
 1669 642 1669 642 1624 568.5 c 128,-1,72
 1579 495 1579 495 1579 370 c 256,73,74
 1579 245 1579 245 1624 172 c 128,-1,75
 1669 99 1669 99 1745 99 c 0,64,65
EndSplineSet
Validated: 1
EndChar

StartChar: dotlessi
Encoding: 305 305 212
Width: 592
GlyphClass: 2
Flags: W
LayerCount: 2
Fore
SplineSet
197 0 m 1,0,-1
 197 1086 l 1,1,-1
 394 1086 l 1,2,-1
 394 0 l 1,3,-1
 197 0 l 1,0,-1
EndSplineSet
Validated: 1
EndChar

StartChar: circumflex
Encoding: 710 710 213
Width: 1258
GlyphClass: 2
Flags: W
LayerCount: 2
Fore
SplineSet
279 1283 m 1,0,-1
 520 1604 l 1,1,-1
 738 1604 l 1,2,-1
 979 1283 l 1,3,-1
 831 1283 l 1,4,-1
 628 1485 l 1,5,-1
 427 1283 l 1,6,-1
 279 1283 l 1,0,-1
EndSplineSet
Validated: 1
EndChar

StartChar: tilde
Encoding: 732 732 214
Width: 1258
GlyphClass: 2
Flags: W
LayerCount: 2
Fore
SplineSet
296 1283 m 1,0,1
 307 1517 307 1517 481 1517 c 0,2,3
 554 1517 554 1517 616 1479 c 2,4,-1
 676 1442 l 2,5,6
 732 1407 732 1407 761 1407 c 0,7,8
 830 1407 830 1407 839 1517 c 1,9,-1
 962 1517 l 1,10,11
 951 1283 951 1283 777 1283 c 0,12,13
 704 1283 704 1283 642 1322 c 2,14,-1
 582 1359 l 2,15,16
 526 1393 526 1393 497 1393 c 0,17,18
 428 1393 428 1393 419 1283 c 1,19,-1
 296 1283 l 1,0,1
EndSplineSet
Validated: 1
EndChar

StartChar: macron
Encoding: 713 713 215
Width: 1258
GlyphClass: 2
Flags: W
LayerCount: 2
Fore
SplineSet
308 1283 m 1,0,-1
 308 1431 l 1,1,-1
 950 1431 l 1,2,-1
 950 1283 l 1,3,-1
 308 1283 l 1,0,-1
EndSplineSet
Validated: 1
EndChar

StartChar: breve
Encoding: 728 728 216
Width: 1258
GlyphClass: 2
Flags: W
LayerCount: 2
Fore
SplineSet
296 1579 m 1,0,-1
 419 1579 l 1,1,2
 451 1431 451 1431 629 1431 c 256,3,4
 807 1431 807 1431 839 1579 c 1,5,-1
 962 1579 l 1,6,7
 947 1445 947 1445 856 1364 c 128,-1,8
 765 1283 765 1283 629 1283 c 256,9,10
 493 1283 493 1283 402.5 1363.5 c 128,-1,11
 312 1444 312 1444 296 1579 c 1,0,-1
EndSplineSet
Validated: 1
EndChar

StartChar: dotaccent
Encoding: 729 729 217
Width: 1258
GlyphClass: 2
Flags: W
LayerCount: 2
Fore
SplineSet
530 1283 m 1,0,-1
 530 1480 l 1,1,-1
 727 1480 l 1,2,-1
 727 1283 l 1,3,-1
 530 1283 l 1,0,-1
EndSplineSet
Validated: 1
EndChar

StartChar: ring
Encoding: 730 730 218
Width: 1258
GlyphClass: 2
Flags: W
LayerCount: 2
Fore
SplineSet
629 1283 m 256,0,1
 534 1283 534 1283 468 1349 c 128,-1,2
 402 1415 402 1415 402 1510 c 0,3,4
 402 1604 402 1604 468 1670.5 c 128,-1,5
 534 1737 534 1737 629 1737 c 0,6,7
 723 1737 723 1737 789.5 1671 c 128,-1,8
 856 1605 856 1605 856 1510 c 256,9,10
 856 1415 856 1415 790 1349 c 128,-1,11
 724 1283 724 1283 629 1283 c 256,0,1
629 1369 m 256,12,13
 688 1369 688 1369 729 1410 c 128,-1,14
 770 1451 770 1451 770 1510 c 256,15,16
 770 1569 770 1569 728.5 1610 c 128,-1,17
 687 1651 687 1651 629 1651 c 0,18,19
 570 1651 570 1651 529 1610 c 128,-1,20
 488 1569 488 1569 488 1510 c 0,21,22
 488 1452 488 1452 529 1410.5 c 128,-1,23
 570 1369 570 1369 629 1369 c 256,12,13
EndSplineSet
Validated: 1
EndChar

StartChar: cedilla
Encoding: 184 184 219
Width: 1258
GlyphClass: 2
Flags: W
LayerCount: 2
Fore
SplineSet
626 0 m 1,0,-1
 723 0 l 1,1,-1
 663 -109 l 1,2,3
 740 -109 740 -109 798.5 -156.5 c 128,-1,4
 857 -204 857 -204 857 -267 c 0,5,6
 857 -336 857 -336 798.5 -384 c 128,-1,7
 740 -432 740 -432 656 -432 c 0,8,9
 584 -432 584 -432 510 -411 c 1,10,-1
 510 -330 l 1,11,12
 556 -345 556 -345 615 -345 c 0,13,14
 718 -345 718 -345 718 -271 c 0,15,16
 718 -175 718 -175 531 -175 c 1,17,-1
 626 0 l 1,0,-1
EndSplineSet
Validated: 1
EndChar

StartChar: hungarumlaut
Encoding: 733 733 220
Width: 1258
GlyphClass: 2
Flags: W
LayerCount: 2
Fore
SplineSet
237 1283 m 1,0,-1
 478 1604 l 1,1,-1
 669 1604 l 1,2,-1
 348 1283 l 1,3,-1
 237 1283 l 1,0,-1
589 1283 m 1,4,-1
 829 1604 l 1,5,-1
 1020 1604 l 1,6,-1
 700 1283 l 1,7,-1
 589 1283 l 1,4,-1
EndSplineSet
Validated: 1
EndChar

StartChar: ogonek
Encoding: 731 731 221
Width: 1258
GlyphClass: 2
Flags: W
LayerCount: 2
Fore
SplineSet
658 0 m 1,0,-1
 765 0 l 1,1,2
 637 -77 637 -77 637 -178 c 0,3,4
 637 -275 637 -275 750 -275 c 0,5,6
 807 -275 807 -275 842 -260 c 1,7,-1
 842 -341 l 1,8,9
 782 -370 782 -370 704 -370 c 0,10,11
 612 -370 612 -370 556 -326 c 128,-1,12
 500 -282 500 -282 500 -211 c 0,13,14
 500 -86 500 -86 658 0 c 1,0,-1
EndSplineSet
Validated: 1
EndChar

StartChar: caron
Encoding: 711 711 222
Width: 1258
GlyphClass: 2
Flags: W
LayerCount: 2
Fore
SplineSet
979 1604 m 1,0,-1
 738 1283 l 1,1,-1
 520 1283 l 1,2,-1
 279 1604 l 1,3,-1
 427 1604 l 1,4,-1
 630 1402 l 1,5,-1
 831 1604 l 1,6,-1
 979 1604 l 1,0,-1
EndSplineSet
Validated: 1
EndChar

StartChar: Lslash
Encoding: 321 321 223
Width: 1092
GlyphClass: 2
Flags: W
LayerCount: 2
Fore
SplineSet
192 0 m 1,0,-1
 192 619 l 1,1,-1
 -29 499 l 1,2,-1
 -29 673 l 1,3,-1
 192 794 l 1,4,-1
 192 1480 l 1,5,-1
 401 1480 l 1,6,-1
 401 908 l 1,7,-1
 622 1028 l 1,8,-1
 622 853 l 1,9,-1
 401 734 l 1,10,-1
 401 157 l 1,11,-1
 1067 157 l 1,12,-1
 1067 0 l 1,13,-1
 192 0 l 1,0,-1
EndSplineSet
Validated: 1
EndChar

StartChar: lslash
Encoding: 322 322 224
Width: 592
GlyphClass: 2
Flags: W
LayerCount: 2
Fore
SplineSet
195 0 m 1,0,-1
 195 677 l 1,1,-1
 -27 560 l 1,2,-1
 -27 727 l 1,3,-1
 195 847 l 1,4,-1
 195 1579 l 1,5,-1
 392 1579 l 1,6,-1
 392 956 l 1,7,-1
 615 1068 l 1,8,-1
 615 903 l 1,9,-1
 392 786 l 1,10,-1
 392 0 l 1,11,-1
 195 0 l 1,0,-1
EndSplineSet
Validated: 1
EndChar

StartChar: brokenbar
Encoding: 166 166 229
Width: 761
GlyphClass: 2
Flags: W
LayerCount: 2
Fore
SplineSet
333 -296 m 1,0,-1
 333 444 l 1,1,-1
 432 444 l 1,2,-1
 432 -296 l 1,3,-1
 333 -296 l 1,0,-1
333 839 m 1,4,-1
 333 1579 l 1,5,-1
 432 1579 l 1,6,-1
 432 839 l 1,7,-1
 333 839 l 1,4,-1
EndSplineSet
Validated: 1
EndChar

StartChar: Eth
Encoding: 208 208 230
Width: 1534
GlyphClass: 2
Flags: W
LayerCount: 2
Fore
SplineSet
192 0 m 1,0,-1
 192 679 l 1,1,-1
 -30 679 l 1,2,-1
 -30 836 l 1,3,-1
 192 836 l 1,4,-1
 192 1480 l 1,5,-1
 684 1480 l 2,6,7
 905 1480 905 1480 1040 1431 c 128,-1,8
 1175 1382 1175 1382 1274 1265 c 0,9,10
 1431 1079 1431 1079 1431 775 c 0,11,12
 1431 432 1431 432 1247 219 c 0,13,14
 1147 102 1147 102 1016 51 c 128,-1,15
 885 0 885 0 687 0 c 2,16,-1
 192 0 l 1,0,-1
402 157 m 1,17,-1
 671 157 l 2,18,19
 960 157 960 157 1079 312 c 0,20,21
 1208 477 1208 477 1208 755 c 0,22,23
 1208 1016 1208 1016 1081 1165 c 0,24,25
 1004 1256 1004 1256 897 1289.5 c 128,-1,26
 790 1323 790 1323 575 1323 c 2,27,-1
 402 1323 l 1,28,-1
 402 836 l 1,29,-1
 735 836 l 1,30,-1
 735 679 l 1,31,-1
 402 679 l 1,32,-1
 402 157 l 1,17,-1
EndSplineSet
Validated: 1
EndChar

StartChar: eth
Encoding: 240 240 231
Width: 1234
GlyphClass: 2
Flags: W
LayerCount: 2
Fore
SplineSet
110 1579 m 1,0,1
 331 1579 331 1579 507 1503 c 1,2,-1
 676 1672 l 1,3,-1
 763 1585 l 1,4,-1
 620 1442 l 1,5,6
 860 1283 860 1283 991 1057.5 c 128,-1,7
 1122 832 1122 832 1122 577 c 0,8,9
 1122 305 1122 305 983 140 c 128,-1,10
 844 -25 844 -25 615 -25 c 0,11,12
 388 -25 388 -25 248.5 130 c 128,-1,13
 109 285 109 285 109 538 c 0,14,15
 109 782 109 782 247 935 c 128,-1,16
 385 1088 385 1088 605 1088 c 0,17,18
 667 1088 667 1088 742 1067 c 1,19,20
 662 1212 662 1212 495 1317 c 1,21,-1
 327 1149 l 1,22,-1
 240 1236 l 1,23,-1
 384 1380 l 1,24,25
 267 1431 267 1431 110 1431 c 1,26,-1
 110 1579 l 1,0,1
620 123 m 0,27,28
 760 123 760 123 841.5 236.5 c 128,-1,29
 923 350 923 350 923 546 c 0,30,31
 923 943 923 943 624 943 c 0,32,33
 481 943 481 943 400 835 c 128,-1,34
 319 727 319 727 319 537 c 0,35,36
 319 346 319 346 400 234.5 c 128,-1,37
 481 123 481 123 620 123 c 0,27,28
EndSplineSet
Validated: 1
EndChar

StartChar: Thorn
Encoding: 222 222 234
Width: 1132
GlyphClass: 2
Flags: W
LayerCount: 2
Fore
SplineSet
191 0 m 1,0,-1
 191 1480 l 1,1,-1
 399 1480 l 1,2,-1
 399 1187 l 1,3,-1
 594 1187 l 2,4,5
 862 1187 862 1187 979 1096 c 128,-1,6
 1096 1005 1096 1005 1096 799 c 0,7,8
 1096 561 1096 561 936.5 428 c 128,-1,9
 777 295 777 295 492 295 c 2,10,-1
 399 295 l 1,11,-1
 399 0 l 1,12,-1
 191 0 l 1,0,-1
399 449 m 1,13,-1
 508 449 l 2,14,15
 683 449 683 449 779 536.5 c 128,-1,16
 875 624 875 624 875 783 c 0,17,18
 875 915 875 915 794.5 972 c 128,-1,19
 714 1029 714 1029 528 1029 c 2,20,-1
 399 1029 l 1,21,-1
 399 449 l 1,13,-1
EndSplineSet
Validated: 1
EndChar

StartChar: thorn
Encoding: 254 254 235
Width: 1289
GlyphClass: 2
Flags: W
LayerCount: 2
Fore
SplineSet
197 -395 m 1,0,-1
 197 1579 l 1,1,-1
 394 1579 l 1,2,-1
 394 882 l 1,3,4
 515 1110 515 1110 757 1110 c 0,5,6
 953 1110 953 1110 1065.5 967 c 128,-1,7
 1178 824 1178 824 1178 576 c 0,8,9
 1178 306 1178 306 1050.5 140.5 c 128,-1,10
 923 -25 923 -25 715 -25 c 0,11,12
 522 -25 522 -25 394 123 c 1,13,-1
 394 -395 l 1,14,-1
 197 -395 l 1,0,-1
394 259 m 1,15,16
 546 123 546 123 684 123 c 0,17,18
 820 123 820 123 894 236.5 c 128,-1,19
 968 350 968 350 968 556 c 0,20,21
 968 938 968 938 716 938 c 0,22,23
 551 938 551 938 394 759 c 1,24,-1
 394 259 l 1,15,16
EndSplineSet
Validated: 1
EndChar

StartChar: minus
Encoding: 8722 8722 236
Width: 1628
GlyphClass: 2
Flags: W
LayerCount: 2
Fore
SplineSet
222 543 m 1,0,-1
 222 642 l 1,1,-1
 1406 642 l 1,2,-1
 1406 543 l 1,3,-1
 222 543 l 1,0,-1
EndSplineSet
Validated: 1
EndChar

StartChar: multiply
Encoding: 215 215 237
Width: 1628
GlyphClass: 2
Flags: W
LayerCount: 2
Fore
SplineSet
222 70 m 1,0,-1
 744 592 l 1,1,-1
 222 1115 l 1,2,-1
 292 1184 l 1,3,-1
 814 662 l 1,4,-1
 1337 1184 l 1,5,-1
 1406 1115 l 1,6,-1
 884 592 l 1,7,-1
 1406 70 l 1,8,-1
 1337 0 l 1,9,-1
 814 523 l 1,10,-1
 292 0 l 1,11,-1
 222 70 l 1,0,-1
EndSplineSet
Validated: 1
EndChar

StartChar: onesuperior
Encoding: 185 185 238
Width: 864
GlyphClass: 2
Flags: W
LayerCount: 2
Fore
SplineSet
407 592 m 1,0,-1
 407 1384 l 1,1,-1
 259 1384 l 1,2,-1
 259 1466 l 1,3,-1
 555 1490 l 1,4,-1
 555 592 l 1,5,-1
 407 592 l 1,0,-1
EndSplineSet
Validated: 1
EndChar

StartChar: twosuperior
Encoding: 178 178 239
Width: 864
GlyphClass: 2
Flags: W
LayerCount: 2
Fore
SplineSet
149 592 m 1,0,-1
 149 714 l 1,1,2
 215 829 215 829 331 933 c 2,3,-1
 401 995 l 2,4,5
 557 1133 557 1133 557 1252 c 0,6,7
 557 1401 557 1401 393 1401 c 0,8,9
 298 1401 298 1401 171 1332 c 1,10,-1
 171 1449 l 1,11,12
 298 1503 298 1503 423 1503 c 0,13,14
 554 1503 554 1503 634 1435 c 128,-1,15
 714 1367 714 1367 714 1257 c 0,16,17
 714 1178 714 1178 674 1115 c 128,-1,18
 634 1052 634 1052 530 967 c 2,19,-1
 477 923 l 2,20,21
 344 814 344 814 321 714 c 1,22,-1
 710 714 l 1,23,-1
 710 592 l 1,24,-1
 149 592 l 1,0,-1
EndSplineSet
Validated: 1
EndChar

StartChar: threesuperior
Encoding: 179 179 240
Width: 864
GlyphClass: 2
Flags: W
LayerCount: 2
Fore
SplineSet
170 1353 m 1,0,-1
 170 1465 l 1,1,2
 280 1503 280 1503 396 1503 c 0,3,4
 678 1503 678 1503 678 1294 c 0,5,6
 678 1137 678 1137 487 1071 c 1,7,8
 707 1021 707 1021 707 833 c 0,9,10
 707 711 707 711 620.5 640.5 c 128,-1,11
 534 570 534 570 383 570 c 0,12,13
 277 570 277 570 158 599 c 1,14,-1
 158 721 l 1,15,16
 288 670 288 670 366 670 c 0,17,18
 449 670 449 670 500 715 c 128,-1,19
 551 760 551 760 551 833 c 0,20,21
 551 1015 551 1015 291 1015 c 2,22,-1
 240 1015 l 1,23,-1
 240 1108 l 1,24,-1
 284 1108 l 2,25,26
 528 1108 528 1108 528 1274 c 0,27,28
 528 1403 528 1403 371 1403 c 0,29,30
 279 1403 279 1403 170 1353 c 1,0,-1
EndSplineSet
Validated: 1
EndChar

StartChar: franc
Encoding: 8355 8355 244
Width: 1295
GlyphClass: 2
Flags: W
LayerCount: 2
Fore
SplineSet
290 0 m 1,0,-1
 290 296 l 1,1,-1
 80 296 l 1,2,-1
 80 419 l 1,3,-1
 290 419 l 1,4,-1
 290 1480 l 1,5,-1
 1117 1480 l 1,6,-1
 1117 1323 l 1,7,-1
 499 1323 l 1,8,-1
 499 827 l 1,9,-1
 1017 827 l 1,10,-1
 1017 672 l 1,11,-1
 499 672 l 1,12,-1
 499 419 l 1,13,-1
 709 419 l 1,14,-1
 709 296 l 1,15,-1
 499 296 l 1,16,-1
 499 0 l 1,17,-1
 290 0 l 1,0,-1
EndSplineSet
Validated: 1
EndChar

StartChar: dmacron
Encoding: 273 273 254
Width: 1289
GlyphClass: 2
Flags: W
LayerCount: 2
Fore
SplineSet
894 0 m 1,0,-1
 894 204 l 1,1,2
 774 -25 774 -25 532 -25 c 0,3,4
 336 -25 336 -25 223.5 118 c 128,-1,5
 111 261 111 261 111 509 c 0,6,7
 111 780 111 780 238.5 945 c 128,-1,8
 366 1110 366 1110 574 1110 c 0,9,10
 767 1110 767 1110 894 962 c 1,11,-1
 894 1234 l 1,12,-1
 635 1234 l 1,13,-1
 635 1357 l 1,14,-1
 894 1357 l 1,15,-1
 894 1579 l 1,16,-1
 1092 1579 l 1,17,-1
 1092 1357 l 1,18,-1
 1289 1357 l 1,19,-1
 1289 1234 l 1,20,-1
 1092 1234 l 1,21,-1
 1092 0 l 1,22,-1
 894 0 l 1,0,-1
894 827 m 1,23,24
 741 962 741 962 604 962 c 0,25,26
 469 962 469 962 395 849 c 128,-1,27
 321 736 321 736 321 529 c 0,28,29
 321 148 321 148 573 148 c 0,30,31
 737 148 737 148 894 327 c 1,32,-1
 894 827 l 1,23,24
EndSplineSet
Validated: 1
EndChar

StartChar: sfthyphen
Encoding: 173 173 255
Width: 666
GlyphClass: 2
Flags: W
LayerCount: 2
Fore
SplineSet
111 543 m 1,0,-1
 111 691 l 1,1,-1
 555 691 l 1,2,-1
 555 543 l 1,3,-1
 111 543 l 1,0,-1
EndSplineSet
Validated: 1
EndChar

StartChar: overscore
Encoding: 175 175 256
Width: 1024
GlyphClass: 2
Flags: W
LayerCount: 2
Fore
SplineSet
86 1456 m 1,0,-1
 86 1604 l 1,1,-1
 937 1604 l 1,2,-1
 937 1456 l 1,3,-1
 86 1456 l 1,0,-1
EndSplineSet
Validated: 1
EndChar

StartChar: middot
Encoding: 183 183 257
Width: 1295
GlyphClass: 2
Flags: W
LayerCount: 2
Fore
SplineSet
524 469 m 1,0,-1
 524 716 l 1,1,-1
 771 716 l 1,2,-1
 771 469 l 1,3,-1
 524 469 l 1,0,-1
EndSplineSet
Validated: 1
EndChar

StartChar: Dmacron
Encoding: 272 272 270
Width: 1534
GlyphClass: 2
Flags: W
LayerCount: 2
Fore
SplineSet
192 0 m 1,0,-1
 192 679 l 1,1,-1
 -30 679 l 1,2,-1
 -30 836 l 1,3,-1
 192 836 l 1,4,-1
 192 1480 l 1,5,-1
 684 1480 l 2,6,7
 905 1480 905 1480 1040 1431 c 128,-1,8
 1175 1382 1175 1382 1274 1265 c 0,9,10
 1431 1079 1431 1079 1431 775 c 0,11,12
 1431 432 1431 432 1247 219 c 0,13,14
 1147 102 1147 102 1016 51 c 128,-1,15
 885 0 885 0 687 0 c 2,16,-1
 192 0 l 1,0,-1
402 157 m 1,17,-1
 671 157 l 2,18,19
 960 157 960 157 1079 312 c 0,20,21
 1208 477 1208 477 1208 755 c 0,22,23
 1208 1016 1208 1016 1081 1165 c 0,24,25
 1004 1256 1004 1256 897 1289.5 c 128,-1,26
 790 1323 790 1323 575 1323 c 2,27,-1
 402 1323 l 1,28,-1
 402 836 l 1,29,-1
 735 836 l 1,30,-1
 735 679 l 1,31,-1
 402 679 l 1,32,-1
 402 157 l 1,17,-1
EndSplineSet
Validated: 1
EndChar

StartChar: Hbar
Encoding: 294 294 289
Width: 1617
GlyphClass: 2
Flags: W
LayerCount: 2
Fore
SplineSet
1160 856 m 1,0,-1
 1160 1086 l 1,1,-1
 456 1086 l 1,2,-1
 456 856 l 1,3,-1
 1160 856 l 1,0,-1
1370 0 m 1,4,-1
 1160 0 l 1,5,-1
 1160 699 l 1,6,-1
 456 699 l 1,7,-1
 456 0 l 1,8,-1
 246 0 l 1,9,-1
 246 1086 l 1,10,-1
 49 1086 l 1,11,-1
 49 1234 l 1,12,-1
 246 1234 l 1,13,-1
 246 1480 l 1,14,-1
 456 1480 l 1,15,-1
 456 1234 l 1,16,-1
 1160 1234 l 1,17,-1
 1160 1480 l 1,18,-1
 1370 1480 l 1,19,-1
 1370 1234 l 1,20,-1
 1567 1234 l 1,21,-1
 1567 1086 l 1,22,-1
 1370 1086 l 1,23,-1
 1370 0 l 1,4,-1
EndSplineSet
Validated: 1
EndChar

StartChar: hbar
Encoding: 295 295 290
Width: 1271
GlyphClass: 2
Flags: W
LayerCount: 2
Fore
SplineSet
394 882 m 1,0,1
 550 1110 550 1110 776 1110 c 0,2,3
 918 1110 918 1110 1001.5 1020.5 c 128,-1,4
 1085 931 1085 931 1085 780 c 2,5,-1
 1085 0 l 1,6,-1
 888 0 l 1,7,-1
 888 716 l 2,8,9
 888 837 888 837 852.5 888.5 c 128,-1,10
 817 940 817 940 735 940 c 0,11,12
 554 940 554 940 394 703 c 1,13,-1
 394 0 l 1,14,-1
 197 0 l 1,15,-1
 197 1234 l 1,16,-1
 0 1234 l 1,17,-1
 0 1357 l 1,18,-1
 197 1357 l 1,19,-1
 197 1579 l 1,20,-1
 394 1579 l 1,21,-1
 394 1357 l 1,22,-1
 691 1357 l 1,23,-1
 691 1234 l 1,24,-1
 394 1234 l 1,25,-1
 394 882 l 1,0,1
EndSplineSet
Validated: 1
EndChar

StartChar: jcircumflex
Encoding: 309 309 302
Width: 623
GlyphClass: 2
Flags: W
LayerCount: 2
Fore
SplineSet
-153 -369 m 1,0,-1
 -153 -213 l 1,1,2
 -15 -271 -15 -271 57 -271 c 0,3,4
 139 -271 139 -271 184 -227 c 0,5,6
 214 -197 214 -197 221.5 -159 c 128,-1,7
 229 -121 229 -121 229 0 c 2,8,-1
 229 1086 l 1,9,-1
 427 1086 l 1,10,-1
 427 0 l 2,11,12
 427 -419 427 -419 73 -419 c 0,13,14
 -32 -419 -32 -419 -153 -369 c 1,0,-1
-22 1283 m 1,15,-1
 219 1604 l 1,16,-1
 437 1604 l 1,17,-1
 678 1283 l 1,18,-1
 530 1283 l 1,19,-1
 327 1485 l 1,20,-1
 126 1283 l 1,21,-1
 -22 1283 l 1,15,-1
EndSplineSet
Validated: 1
EndChar

StartChar: kra
Encoding: 312 312 305
Width: 1197
GlyphClass: 2
Flags: W
LayerCount: 2
Fore
SplineSet
197 0 m 1,0,-1
 197 1086 l 1,1,-1
 394 1086 l 1,2,-1
 394 559 l 1,3,-1
 854 1086 l 1,4,-1
 1066 1086 l 1,5,-1
 627 579 l 1,6,-1
 1157 0 l 1,7,-1
 905 0 l 1,8,-1
 394 557 l 1,9,-1
 394 0 l 1,10,-1
 197 0 l 1,0,-1
EndSplineSet
Validated: 1
EndChar

StartChar: Eng
Encoding: 330 330 323
Width: 1513
GlyphClass: 2
Flags: W
LayerCount: 2
Fore
SplineSet
1322 1480 m 1,0,-1
 1322 -92 l 2,1,2
 1322 -246 1322 -246 1237 -333 c 128,-1,3
 1152 -420 1152 -420 1001 -420 c 0,4,5
 928 -420 928 -420 853 -399 c 1,6,-1
 853 -245 l 1,7,8
 915 -272 915 -272 999 -272 c 0,9,10
 1076 -272 1076 -272 1109.5 -221.5 c 128,-1,11
 1143 -171 1143 -171 1143 -55 c 2,12,-1
 1143 -40 l 1,13,-1
 371 1143 l 1,14,-1
 371 0 l 1,15,-1
 191 0 l 1,16,-1
 191 1480 l 1,17,-1
 397 1480 l 1,18,-1
 1142 337 l 1,19,-1
 1142 1480 l 1,20,-1
 1322 1480 l 1,0,-1
EndSplineSet
Validated: 1
EndChar

StartChar: eng
Encoding: 331 331 324
Width: 1271
GlyphClass: 2
Flags: W
LayerCount: 2
Fore
SplineSet
197 0 m 1,0,-1
 197 1086 l 1,1,-1
 394 1086 l 1,2,-1
 394 882 l 1,3,4
 550 1110 550 1110 776 1110 c 0,5,6
 918 1110 918 1110 1001.5 1020.5 c 128,-1,7
 1085 931 1085 931 1085 780 c 2,8,-1
 1085 -92 l 2,9,10
 1085 -246 1085 -246 1000.5 -333 c 128,-1,11
 916 -420 916 -420 764 -420 c 0,12,13
 691 -420 691 -420 616 -399 c 1,14,-1
 616 -245 l 1,15,16
 679 -272 679 -272 742 -272 c 0,17,18
 821 -272 821 -272 854.5 -222 c 128,-1,19
 888 -172 888 -172 888 -55 c 2,20,-1
 888 716 l 2,21,22
 888 837 888 837 852.5 888.5 c 128,-1,23
 817 940 817 940 735 940 c 0,24,25
 554 940 554 940 394 703 c 1,26,-1
 394 0 l 1,27,-1
 197 0 l 1,0,-1
EndSplineSet
Validated: 1
EndChar

StartChar: Tbar
Encoding: 358 358 345
Width: 1295
GlyphClass: 2
Flags: W
LayerCount: 2
Fore
SplineSet
753 0 m 1,0,-1
 543 0 l 1,1,-1
 543 715 l 1,2,-1
 240 715 l 1,3,-1
 240 863 l 1,4,-1
 543 863 l 1,5,-1
 543 1323 l 1,6,-1
 18 1323 l 1,7,-1
 18 1480 l 1,8,-1
 1278 1480 l 1,9,-1
 1278 1323 l 1,10,-1
 753 1323 l 1,11,-1
 753 863 l 1,12,-1
 1056 863 l 1,13,-1
 1056 715 l 1,14,-1
 753 715 l 1,15,-1
 753 0 l 1,0,-1
EndSplineSet
Validated: 1
EndChar

StartChar: tbar
Encoding: 359 359 346
Width: 766
GlyphClass: 2
Flags: W
LayerCount: 2
Fore
SplineSet
681 136 m 1,0,-1
 681 0 l 1,1,2
 590 -25 590 -25 523 -25 c 0,3,4
 373 -25 373 -25 289 61 c 128,-1,5
 205 147 205 147 205 300 c 2,6,-1
 205 568 l 1,7,-1
 20 568 l 1,8,-1
 20 691 l 1,9,-1
 205 691 l 1,10,-1
 205 938 l 1,11,-1
 69 938 l 1,12,-1
 69 1086 l 1,13,-1
 205 1086 l 1,14,-1
 205 1283 l 1,15,-1
 402 1302 l 1,16,-1
 402 1086 l 1,17,-1
 686 1086 l 1,18,-1
 686 938 l 1,19,-1
 402 938 l 1,20,-1
 402 691 l 1,21,-1
 686 691 l 1,22,-1
 686 568 l 1,23,-1
 402 568 l 1,24,-1
 402 336 l 2,25,26
 402 123 402 123 586 123 c 0,27,28
 625 123 625 123 681 136 c 1,0,-1
EndSplineSet
Validated: 1
EndChar

StartChar: bbar
Encoding: 384 384 367
Width: 1289
GlyphClass: 2
Flags: W
LayerCount: 2
Fore
SplineSet
394 882 m 1,0,1
 515 1110 515 1110 757 1110 c 0,2,3
 953 1110 953 1110 1065.5 967 c 128,-1,4
 1178 824 1178 824 1178 576 c 0,5,6
 1178 306 1178 306 1050.5 140.5 c 128,-1,7
 923 -25 923 -25 715 -25 c 0,8,9
 522 -25 522 -25 394 123 c 1,10,-1
 370 -12 l 1,11,-1
 197 -12 l 1,12,-1
 197 1234 l 1,13,-1
 0 1234 l 1,14,-1
 0 1357 l 1,15,-1
 197 1357 l 1,16,-1
 197 1579 l 1,17,-1
 394 1579 l 1,18,-1
 394 1357 l 1,19,-1
 654 1357 l 1,20,-1
 654 1234 l 1,21,-1
 394 1234 l 1,22,-1
 394 882 l 1,0,1
394 259 m 1,23,24
 546 123 546 123 684 123 c 0,25,26
 820 123 820 123 894 236.5 c 128,-1,27
 968 350 968 350 968 556 c 0,28,29
 968 938 968 938 716 938 c 0,30,31
 551 938 551 938 394 759 c 1,32,-1
 394 259 l 1,23,24
EndSplineSet
Validated: 1
EndChar

StartChar: Bhook
Encoding: 385 385 368
Width: 1431
GlyphClass: 2
Flags: W
LayerCount: 2
Fore
SplineSet
445 0 m 1,0,-1
 445 1326 l 1,1,-1
 428 1326 l 2,2,3
 288 1326 288 1326 234 1290.5 c 128,-1,4
 180 1255 180 1255 180 1163 c 0,5,6
 180 1085 180 1085 210 1018 c 1,7,-1
 47 1018 l 1,8,9
 25 1097 25 1097 25 1164 c 0,10,11
 25 1334 25 1334 122.5 1407 c 128,-1,12
 220 1480 220 1480 445 1480 c 2,13,-1
 829 1480 l 2,14,15
 1051 1480 1051 1480 1169.5 1396 c 128,-1,16
 1288 1312 1288 1312 1288 1154 c 0,17,18
 1288 1026 1288 1026 1209 926 c 128,-1,19
 1130 826 1130 826 984 771 c 1,20,21
 1347 660 1347 660 1347 370 c 0,22,23
 1347 240 1347 240 1267 139 c 0,24,25
 1206 62 1206 62 1120 31 c 128,-1,26
 1034 0 1034 0 881 0 c 2,27,-1
 445 0 l 1,0,-1
653 157 m 1,28,-1
 696 157 l 2,29,30
 927 157 927 157 995 186 c 0,31,32
 1125 241 1125 241 1125 390 c 0,33,34
 1125 522 1125 522 1007 609.5 c 128,-1,35
 889 697 889 697 712 697 c 2,36,-1
 653 697 l 1,37,-1
 653 157 l 1,28,-1
653 830 m 1,38,-1
 720 830 l 2,39,40
 889 830 889 830 981 902 c 128,-1,41
 1073 974 1073 974 1073 1107 c 0,42,43
 1073 1323 1073 1323 735 1323 c 2,44,-1
 653 1323 l 1,45,-1
 653 830 l 1,38,-1
EndSplineSet
Validated: 1
EndChar

StartChar: Btopbar
Encoding: 386 386 369
Width: 1191
GlyphClass: 2
Flags: W
LayerCount: 2
Fore
SplineSet
191 0 m 1,0,-1
 191 1480 l 1,1,-1
 1018 1480 l 1,2,-1
 1018 1326 l 1,3,-1
 401 1326 l 1,4,-1
 401 845 l 1,5,-1
 514 845 l 2,6,7
 690 845 690 845 770 830.5 c 128,-1,8
 850 816 850 816 922 770 c 0,9,10
 1092 662 1092 662 1092 451 c 0,11,12
 1092 204 1092 204 899 83 c 0,13,14
 767 0 767 0 460 0 c 2,15,-1
 191 0 l 1,0,-1
401 154 m 1,16,-1
 475 154 l 2,17,18
 691 154 691 154 776 216 c 0,19,20
 882 294 882 294 882 437 c 0,21,22
 882 571 882 571 792.5 631 c 128,-1,23
 703 691 703 691 504 691 c 2,24,-1
 401 691 l 1,25,-1
 401 154 l 1,16,-1
EndSplineSet
Validated: 1
EndChar

StartChar: btopbar
Encoding: 387 387 370
Width: 1289
GlyphClass: 2
Flags: W
LayerCount: 2
Fore
SplineSet
197 -12 m 1,0,-1
 197 1579 l 1,1,-1
 981 1579 l 1,2,-1
 981 1431 l 1,3,-1
 395 1431 l 1,4,-1
 394 882 l 1,5,6
 515 1110 515 1110 757 1110 c 0,7,8
 953 1110 953 1110 1065.5 967 c 128,-1,9
 1178 824 1178 824 1178 576 c 0,10,11
 1178 306 1178 306 1050.5 140.5 c 128,-1,12
 923 -25 923 -25 715 -25 c 0,13,14
 522 -25 522 -25 394 123 c 1,15,-1
 370 -12 l 1,16,-1
 197 -12 l 1,0,-1
394 259 m 1,17,18
 546 123 546 123 684 123 c 0,19,20
 820 123 820 123 894 236.5 c 128,-1,21
 968 350 968 350 968 556 c 0,22,23
 968 938 968 938 716 938 c 0,24,25
 551 938 551 938 394 759 c 1,26,-1
 394 259 l 1,17,18
EndSplineSet
Validated: 1
EndChar

StartChar: Tonesix
Encoding: 388 388 371
Width: 1166
GlyphClass: 2
Flags: W
LayerCount: 2
Fore
SplineSet
191 0 m 1,0,-1
 191 1480 l 1,1,-1
 401 1480 l 1,2,-1
 401 845 l 1,3,-1
 514 845 l 2,4,5
 690 845 690 845 770 830.5 c 128,-1,6
 850 816 850 816 922 770 c 0,7,8
 1092 662 1092 662 1092 451 c 0,9,10
 1092 204 1092 204 899 83 c 0,11,12
 767 0 767 0 460 0 c 2,13,-1
 191 0 l 1,0,-1
401 154 m 1,14,-1
 475 154 l 2,15,16
 691 154 691 154 776 216 c 0,17,18
 882 294 882 294 882 437 c 0,19,20
 882 571 882 571 792.5 631 c 128,-1,21
 703 691 703 691 504 691 c 2,22,-1
 401 691 l 1,23,-1
 401 154 l 1,14,-1
EndSplineSet
Validated: 1
EndChar

StartChar: tonesix
Encoding: 389 389 372
Width: 1012
GlyphClass: 2
Flags: W
LayerCount: 2
Fore
SplineSet
204 0 m 1,0,-1
 204 1086 l 1,1,-1
 401 1086 l 1,2,-1
 401 648 l 1,3,-1
 471 648 l 2,4,5
 920 648 920 648 920 332 c 0,6,7
 920 0 920 0 442 0 c 2,8,-1
 204 0 l 1,0,-1
401 148 m 1,9,-1
 455 148 l 2,10,11
 710 148 710 148 710 328 c 0,12,13
 710 493 710 493 458 493 c 2,14,-1
 401 493 l 1,15,-1
 401 148 l 1,9,-1
EndSplineSet
Validated: 1
EndChar

StartChar: Oopen
Encoding: 390 390 373
Width: 1417
GlyphClass: 2
Flags: W
LayerCount: 2
Fore
SplineSet
114 1404 m 1,0,1
 333 1517 333 1517 592 1517 c 0,2,3
 937 1517 937 1517 1125 1315 c 128,-1,4
 1313 1113 1313 1113 1313 741 c 0,5,6
 1313 370 1313 370 1121.5 166.5 c 128,-1,7
 930 -37 930 -37 581 -37 c 0,8,9
 383 -37 383 -37 116 29 c 1,10,-1
 116 225 l 1,11,12
 420 120 420 120 585 120 c 0,13,14
 826 120 826 120 958 283 c 128,-1,15
 1090 446 1090 446 1090 743 c 0,16,17
 1090 1027 1090 1027 949 1190 c 128,-1,18
 808 1353 808 1353 563 1353 c 0,19,20
 354 1353 354 1353 114 1225 c 1,21,-1
 114 1404 l 1,0,1
EndSplineSet
Validated: 1
EndChar

StartChar: Chook
Encoding: 391 391 374
Width: 1417
GlyphClass: 2
Flags: W
LayerCount: 2
Fore
SplineSet
1303 256 m 1,0,-1
 1303 76 l 1,1,2
 1084 -37 1084 -37 825 -37 c 0,3,4
 480 -37 480 -37 292 165 c 128,-1,5
 104 367 104 367 104 739 c 0,6,7
 104 1109 104 1109 295 1313 c 128,-1,8
 486 1517 486 1517 833 1517 c 0,9,10
 988 1517 988 1517 1147 1487 c 1,11,-1
 1147 1499 l 2,12,13
 1147 1709 1147 1709 1222.5 1804.5 c 128,-1,14
 1298 1900 1298 1900 1464 1900 c 0,15,16
 1530 1900 1530 1900 1610 1879 c 1,17,-1
 1610 1716 l 1,18,19
 1542 1746 1542 1746 1464 1746 c 0,20,21
 1373 1746 1373 1746 1337 1691.5 c 128,-1,22
 1301 1637 1301 1637 1301 1497 c 2,23,-1
 1301 1255 l 1,24,25
 997 1360 997 1360 832 1360 c 0,26,27
 591 1360 591 1360 459 1197 c 128,-1,28
 327 1034 327 1034 327 737 c 0,29,30
 327 453 327 453 468 290 c 128,-1,31
 609 127 609 127 854 127 c 0,32,33
 1063 127 1063 127 1303 256 c 1,0,-1
EndSplineSet
Validated: 1
EndChar

StartChar: chook
Encoding: 392 392 375
Width: 1090
GlyphClass: 2
Flags: W
LayerCount: 2
Fore
SplineSet
791 1102 m 1,0,-1
 791 1221 l 2,1,2
 791 1604 791 1604 1093 1604 c 0,3,4
 1169 1604 1169 1604 1251 1584 c 1,5,-1
 1251 1435 l 1,6,7
 1186 1462 1186 1462 1110 1462 c 0,8,9
 1013 1462 1013 1462 976 1409.5 c 128,-1,10
 939 1357 939 1357 939 1216 c 2,11,-1
 939 910 l 1,12,13
 772 959 772 959 667 959 c 0,14,15
 515 959 515 959 424 845.5 c 128,-1,16
 333 732 333 732 333 543 c 0,17,18
 333 360 333 360 427 247 c 128,-1,19
 521 134 521 134 673 134 c 0,20,21
 808 134 808 134 951 203 c 1,22,-1
 951 33 l 1,23,24
 760 -25 760 -25 621 -25 c 0,25,26
 401 -25 401 -25 256 138 c 128,-1,27
 111 301 111 301 111 549 c 0,28,29
 111 815 111 815 254.5 962.5 c 128,-1,30
 398 1110 398 1110 657 1110 c 0,31,32
 719 1110 719 1110 791 1102 c 1,0,-1
EndSplineSet
Validated: 1
EndChar

StartChar: Dbar1
Encoding: 393 393 376
Width: 1534
GlyphClass: 2
Flags: W
LayerCount: 2
Fore
SplineSet
192 0 m 1,0,-1
 192 679 l 1,1,-1
 -30 679 l 1,2,-1
 -30 836 l 1,3,-1
 192 836 l 1,4,-1
 192 1480 l 1,5,-1
 684 1480 l 2,6,7
 905 1480 905 1480 1040 1431 c 128,-1,8
 1175 1382 1175 1382 1274 1265 c 0,9,10
 1431 1079 1431 1079 1431 775 c 0,11,12
 1431 432 1431 432 1247 219 c 0,13,14
 1147 102 1147 102 1016 51 c 128,-1,15
 885 0 885 0 687 0 c 2,16,-1
 192 0 l 1,0,-1
402 157 m 1,17,-1
 671 157 l 2,18,19
 960 157 960 157 1079 312 c 0,20,21
 1208 477 1208 477 1208 755 c 0,22,23
 1208 1016 1208 1016 1081 1165 c 0,24,25
 1004 1256 1004 1256 897 1289.5 c 128,-1,26
 790 1323 790 1323 575 1323 c 2,27,-1
 402 1323 l 1,28,-1
 402 836 l 1,29,-1
 735 836 l 1,30,-1
 735 679 l 1,31,-1
 402 679 l 1,32,-1
 402 157 l 1,17,-1
EndSplineSet
Validated: 1
EndChar

StartChar: Dhook
Encoding: 394 394 377
Width: 1787
GlyphClass: 2
Flags: W
LayerCount: 2
Fore
SplineSet
445 0 m 1,0,-1
 445 1326 l 1,1,-1
 428 1326 l 2,2,3
 288 1326 288 1326 234 1290.5 c 128,-1,4
 180 1255 180 1255 180 1163 c 0,5,6
 180 1085 180 1085 210 1018 c 1,7,-1
 47 1018 l 1,8,9
 25 1097 25 1097 25 1164 c 0,10,11
 25 1334 25 1334 122.5 1407 c 128,-1,12
 220 1480 220 1480 445 1480 c 2,13,-1
 937 1480 l 2,14,15
 1157 1480 1157 1480 1292.5 1431 c 128,-1,16
 1428 1382 1428 1382 1527 1265 c 0,17,18
 1684 1079 1684 1079 1684 775 c 0,19,20
 1684 432 1684 432 1500 219 c 0,21,22
 1400 102 1400 102 1268.5 51 c 128,-1,23
 1137 0 1137 0 940 0 c 2,24,-1
 445 0 l 1,0,-1
655 157 m 1,25,-1
 924 157 l 2,26,27
 1212 157 1212 157 1332 312 c 0,28,29
 1461 477 1461 477 1461 755 c 0,30,31
 1461 1016 1461 1016 1334 1165 c 0,32,33
 1257 1256 1257 1256 1150 1289.5 c 128,-1,34
 1043 1323 1043 1323 828 1323 c 2,35,-1
 655 1323 l 1,36,-1
 655 157 l 1,25,-1
EndSplineSet
Validated: 1
EndChar

StartChar: Dtopbar
Encoding: 395 395 378
Width: 1190
GlyphClass: 2
Flags: W
LayerCount: 2
Fore
SplineSet
1000 0 m 1,0,-1
 731 0 l 2,1,2
 424 0 424 0 292 83 c 0,3,4
 99 204 99 204 99 451 c 0,5,6
 99 662 99 662 268 770 c 0,7,8
 341 816 341 816 421 830.5 c 128,-1,9
 501 845 501 845 676 845 c 2,10,-1
 790 845 l 1,11,-1
 790 1326 l 1,12,-1
 173 1326 l 1,13,-1
 173 1480 l 1,14,-1
 1000 1480 l 1,15,-1
 1000 0 l 1,0,-1
790 154 m 1,16,-1
 790 691 l 1,17,-1
 687 691 l 2,18,19
 487 691 487 691 398 631 c 128,-1,20
 309 571 309 571 309 436 c 0,21,22
 309 294 309 294 415 216 c 0,23,24
 499 154 499 154 715 154 c 2,25,-1
 790 154 l 1,16,-1
EndSplineSet
Validated: 1
EndChar

StartChar: dtopbar
Encoding: 396 396 379
Width: 1289
GlyphClass: 2
Flags: W
LayerCount: 2
Fore
SplineSet
894 0 m 1,0,-1
 894 204 l 1,1,2
 774 -25 774 -25 532 -25 c 0,3,4
 336 -25 336 -25 223.5 118 c 128,-1,5
 111 261 111 261 111 509 c 0,6,7
 111 780 111 780 238.5 945 c 128,-1,8
 366 1110 366 1110 574 1110 c 0,9,10
 767 1110 767 1110 894 962 c 1,11,-1
 894 1431 l 1,12,-1
 308 1431 l 1,13,-1
 308 1579 l 1,14,-1
 1092 1579 l 1,15,-1
 1092 0 l 1,16,-1
 894 0 l 1,0,-1
894 827 m 1,17,18
 741 962 741 962 604 962 c 0,19,20
 469 962 469 962 395 849 c 128,-1,21
 321 736 321 736 321 529 c 0,22,23
 321 148 321 148 573 148 c 0,24,25
 737 148 737 148 894 327 c 1,26,-1
 894 827 l 1,17,18
EndSplineSet
Validated: 1
EndChar

StartChar: deltaturn
Encoding: 397 397 380
Width: 1209
GlyphClass: 2
Flags: W
LayerCount: 2
Fore
SplineSet
719 602 m 1,0,1
 901 507 901 507 981 424.5 c 128,-1,2
 1061 342 1061 342 1061 249 c 0,3,4
 1061 121 1061 121 937.5 48 c 128,-1,5
 814 -25 814 -25 595 -25 c 0,6,7
 456 -25 456 -25 339 4 c 1,8,-1
 339 168 l 1,9,10
 467 123 467 123 616 123 c 0,11,12
 728 123 728 123 796 153 c 128,-1,13
 864 183 864 183 864 232 c 0,14,15
 864 306 864 306 687 410 c 2,16,-1
 593 464 l 1,17,-1
 485 530 l 2,18,19
 287 649 287 649 199 780 c 128,-1,20
 111 911 111 911 111 1085 c 0,21,22
 111 1312 111 1312 249.5 1458 c 128,-1,23
 388 1604 388 1604 605 1604 c 0,24,25
 817 1604 817 1604 957.5 1461.5 c 128,-1,26
 1098 1319 1098 1319 1098 1103 c 0,27,28
 1098 749 1098 749 719 602 c 1,0,1
572 698 m 1,29,30
 888 808 888 808 888 1107 c 0,31,32
 888 1256 888 1256 805 1356 c 128,-1,33
 722 1456 722 1456 598 1456 c 0,34,35
 479 1456 479 1456 400 1351.5 c 128,-1,36
 321 1247 321 1247 321 1091 c 0,37,38
 321 957 321 957 376 871 c 128,-1,39
 431 785 431 785 572 698 c 1,29,30
EndSplineSet
Validated: 1
EndChar

StartChar: Eturn
Encoding: 398 398 381
Width: 1110
GlyphClass: 2
Flags: W
LayerCount: 2
Fore
SplineSet
919 1480 m 1,0,-1
 919 0 l 1,1,-1
 93 0 l 1,2,-1
 93 157 l 1,3,-1
 710 157 l 1,4,-1
 710 632 l 1,5,-1
 192 632 l 1,6,-1
 192 787 l 1,7,-1
 710 787 l 1,8,-1
 710 1323 l 1,9,-1
 49 1323 l 1,10,-1
 49 1480 l 1,11,-1
 919 1480 l 1,0,-1
EndSplineSet
Validated: 1
EndChar

StartChar: Schwa
Encoding: 399 399 382
Width: 1388
GlyphClass: 2
Flags: W
LayerCount: 2
Fore
SplineSet
125 1423 m 1,0,1
 337 1517 337 1517 569 1517 c 0,2,3
 905 1517 905 1517 1094.5 1310.5 c 128,-1,4
 1284 1104 1284 1104 1284 739 c 0,5,6
 1284 392 1284 392 1109.5 177.5 c 128,-1,7
 935 -37 935 -37 653 -37 c 0,8,9
 114 -37 114 -37 114 671 c 1,10,-1
 115 753 l 1,11,-1
 1073 753 l 1,12,13
 1073 1008 1073 1008 931.5 1176.5 c 128,-1,14
 790 1345 790 1345 575 1345 c 0,15,16
 353 1345 353 1345 125 1235 c 1,17,-1
 125 1423 l 1,0,1
1057 586 m 1,18,-1
 339 586 l 1,19,-1
 339 568 l 2,20,21
 339 117 339 117 660 117 c 0,22,23
 812 117 812 117 919.5 244 c 128,-1,24
 1027 371 1027 371 1057 586 c 1,18,-1
EndSplineSet
Validated: 1
EndChar

StartChar: Epsilon1
Encoding: 400 400 383
Width: 1079
GlyphClass: 2
Flags: W
LayerCount: 2
Fore
SplineSet
1012 10 m 1,0,1
 824 -37 824 -37 670 -37 c 0,2,3
 428 -37 428 -37 288 83 c 128,-1,4
 148 203 148 203 148 410 c 0,5,6
 148 545 148 545 222 655 c 128,-1,7
 296 765 296 765 425 820 c 1,8,9
 191 961 191 961 191 1180 c 0,10,11
 191 1341 191 1341 305.5 1429.5 c 128,-1,12
 420 1518 420 1518 628 1518 c 0,13,14
 825 1518 825 1518 987 1459 c 1,15,-1
 987 1296 l 1,16,17
 826 1363 826 1363 667 1363 c 0,18,19
 550 1363 550 1363 478 1301.5 c 128,-1,20
 406 1240 406 1240 406 1140 c 0,21,22
 406 1014 406 1014 501.5 945 c 128,-1,23
 597 876 597 876 772 876 c 2,24,-1
 796 876 l 1,25,-1
 796 722 l 1,26,-1
 771 722 l 2,27,28
 589 722 589 722 479.5 636 c 128,-1,29
 370 550 370 550 370 408 c 0,30,31
 370 279 370 279 458 198 c 128,-1,32
 546 117 546 117 686 117 c 0,33,34
 806 117 806 117 1012 194 c 1,35,-1
 1012 10 l 1,0,1
EndSplineSet
Validated: 1
EndChar

StartChar: Fhook
Encoding: 401 401 384
Width: 1098
GlyphClass: 2
Flags: W
LayerCount: 2
Fore
SplineSet
-98 -393 m 1,0,-1
 -98 -233 l 1,1,2
 -26 -265 -26 -265 46 -265 c 0,3,4
 136 -265 136 -265 164 -219 c 128,-1,5
 192 -173 192 -173 192 -28 c 2,6,-1
 192 1480 l 1,7,-1
 1019 1480 l 1,8,-1
 1019 1323 l 1,9,-1
 402 1323 l 1,10,-1
 402 827 l 1,11,-1
 920 827 l 1,12,-1
 920 672 l 1,13,-1
 402 672 l 1,14,-1
 402 -20 l 2,15,16
 402 -230 402 -230 328.5 -325 c 128,-1,17
 255 -420 255 -420 94 -420 c 0,18,19
 -9 -420 -9 -420 -98 -393 c 1,0,-1
EndSplineSet
Validated: 1
EndChar

StartChar: Ghook
Encoding: 403 403 385
Width: 1480
GlyphClass: 2
Flags: W
LayerCount: 2
Fore
SplineSet
1303 40 m 1,0,1
 1034 -37 1034 -37 834 -37 c 0,2,3
 481 -37 481 -37 292.5 163.5 c 128,-1,4
 104 364 104 364 104 740 c 0,5,6
 104 1109 104 1109 295 1313 c 128,-1,7
 486 1517 486 1517 833 1517 c 0,8,9
 988 1517 988 1517 1147 1487 c 1,10,-1
 1147 1499 l 2,11,12
 1147 1709 1147 1709 1222.5 1804.5 c 128,-1,13
 1298 1900 1298 1900 1464 1900 c 0,14,15
 1530 1900 1530 1900 1610 1879 c 1,16,-1
 1610 1716 l 1,17,18
 1542 1746 1542 1746 1464 1746 c 0,19,20
 1373 1746 1373 1746 1337 1691.5 c 128,-1,21
 1301 1637 1301 1637 1301 1497 c 2,22,-1
 1301 1256 l 1,23,24
 995 1360 995 1360 832 1360 c 0,25,26
 592 1360 592 1360 459.5 1197.5 c 128,-1,27
 327 1035 327 1035 327 739 c 0,28,29
 327 446 327 446 469 283 c 128,-1,30
 611 120 611 120 867 120 c 0,31,32
 972 120 972 120 1094 157 c 1,33,-1
 1094 639 l 1,34,-1
 1303 639 l 1,35,-1
 1303 40 l 1,0,1
EndSplineSet
Validated: 1
EndChar

StartChar: Gamma1
Encoding: 404 404 386
Width: 1346
GlyphClass: 2
Flags: W
LayerCount: 2
Fore
SplineSet
781 289 m 1,0,-1
 793 270 l 2,1,2
 859 167 859 167 907 40 c 128,-1,3
 955 -87 955 -87 955 -159 c 0,4,5
 955 -270 955 -270 873.5 -344.5 c 128,-1,6
 792 -419 792 -419 670 -419 c 0,7,8
 554 -419 554 -419 481 -352.5 c 128,-1,9
 408 -286 408 -286 408 -181 c 0,10,11
 408 -28 408 -28 562 230 c 2,12,-1
 579 258 l 1,13,-1
 12 1480 l 1,14,-1
 230 1480 l 1,15,-1
 687 498 l 1,16,-1
 1147 1480 l 1,17,-1
 1334 1480 l 1,18,-1
 781 289 l 1,0,-1
671 94 m 1,19,20
 662 75 662 75 658 66 c 0,21,22
 580 -98 580 -98 580 -172 c 0,23,24
 580 -271 580 -271 671 -271 c 0,25,26
 770 -271 770 -271 770 -165 c 0,27,28
 770 -88 770 -88 671 94 c 1,19,20
EndSplineSet
Validated: 1
EndChar

StartChar: hv
Encoding: 405 405 387
Width: 1863
GlyphClass: 2
Flags: W
LayerCount: 2
Fore
SplineSet
1505 1086 m 1,0,-1
 1719 1086 l 1,1,2
 1751 958 1751 958 1751 791 c 0,3,4
 1751 420 1751 420 1597 197.5 c 128,-1,5
 1443 -25 1443 -25 1186 -25 c 0,6,7
 1056 -25 1056 -25 975 50 c 0,8,9
 924 97 924 97 906 161 c 128,-1,10
 888 225 888 225 888 358 c 2,11,-1
 888 716 l 2,12,13
 888 837 888 837 852.5 888.5 c 128,-1,14
 817 940 817 940 735 940 c 0,15,16
 554 940 554 940 394 703 c 1,17,-1
 394 0 l 1,18,-1
 197 0 l 1,19,-1
 197 1579 l 1,20,-1
 394 1579 l 1,21,-1
 394 882 l 1,22,23
 550 1110 550 1110 776 1110 c 0,24,25
 918 1110 918 1110 1001.5 1020.5 c 128,-1,26
 1085 931 1085 931 1085 780 c 2,27,-1
 1085 373 l 2,28,29
 1085 248 1085 248 1122 195 c 128,-1,30
 1159 142 1159 142 1245 142 c 0,31,32
 1393 142 1393 142 1479.5 295 c 128,-1,33
 1566 448 1566 448 1566 710 c 0,34,35
 1566 939 1566 939 1505 1086 c 1,0,-1
EndSplineSet
Validated: 1
EndChar

StartChar: Iota1
Encoding: 406 406 388
Width: 820
GlyphClass: 2
Flags: W
LayerCount: 2
Fore
SplineSet
753 7 m 1,0,1
 629 -37 629 -37 522 -37 c 0,2,3
 366 -37 366 -37 279 52 c 0,4,5
 219 114 219 114 196 202.5 c 128,-1,6
 173 291 173 291 173 464 c 2,7,-1
 173 1480 l 1,8,-1
 383 1480 l 1,9,-1
 383 480 l 2,10,11
 383 273 383 273 423 204.5 c 128,-1,12
 463 136 463 136 583 136 c 0,13,14
 648 136 648 136 753 172 c 1,15,-1
 753 7 l 1,0,1
EndSplineSet
Validated: 1
EndChar

StartChar: Ibar
Encoding: 407 407 389
Width: 753
GlyphClass: 2
Flags: W
LayerCount: 2
Fore
SplineSet
272 709 m 1,0,-1
 25 709 l 1,1,-1
 25 864 l 1,2,-1
 272 864 l 1,3,-1
 272 1480 l 1,4,-1
 482 1480 l 1,5,-1
 482 864 l 1,6,-1
 728 864 l 1,7,-1
 728 709 l 1,8,-1
 482 709 l 1,9,-1
 482 0 l 1,10,-1
 272 0 l 1,11,-1
 272 709 l 1,0,-1
EndSplineSet
Validated: 1
EndChar

StartChar: Khook
Encoding: 408 408 390
Width: 1360
GlyphClass: 2
Flags: W
LayerCount: 2
Fore
SplineSet
191 0 m 1,0,-1
 191 1480 l 1,1,-1
 389 1480 l 1,2,-1
 389 755 l 1,3,4
 586 1107 586 1107 804 1303 c 128,-1,5
 1022 1499 1022 1499 1218 1499 c 0,6,7
 1323 1499 1323 1499 1410 1446 c 1,8,-1
 1410 1265 l 1,9,10
 1302 1344 1302 1344 1207 1344 c 0,11,12
 1080 1344 1080 1344 915 1191.5 c 128,-1,13
 750 1039 750 1039 603 787 c 1,14,-1
 1301 0 l 1,15,-1
 1030 0 l 1,16,-1
 389 749 l 1,17,-1
 389 0 l 1,18,-1
 191 0 l 1,0,-1
EndSplineSet
Validated: 1
EndChar

StartChar: khook
Encoding: 409 409 391
Width: 1197
GlyphClass: 2
Flags: W
LayerCount: 2
Fore
SplineSet
394 559 m 1,0,-1
 854 1086 l 1,1,-1
 1066 1086 l 1,2,-1
 627 579 l 1,3,-1
 1157 0 l 1,4,-1
 905 0 l 1,5,-1
 394 557 l 1,6,-1
 394 0 l 1,7,-1
 197 0 l 1,8,-1
 197 984 l 2,9,10
 197 1604 197 1604 698 1604 c 0,11,12
 829 1604 829 1604 962 1562 c 1,13,-1
 962 1389 l 1,14,15
 828 1456 828 1456 687 1456 c 0,16,17
 529 1456 529 1456 461.5 1339 c 128,-1,18
 394 1222 394 1222 394 947 c 2,19,-1
 394 559 l 1,0,-1
EndSplineSet
Validated: 1
EndChar

StartChar: lbar
Encoding: 410 410 392
Width: 740
GlyphClass: 2
Flags: W
LayerCount: 2
Fore
SplineSet
272 728 m 1,0,-1
 25 728 l 1,1,-1
 25 876 l 1,2,-1
 272 876 l 1,3,-1
 272 1579 l 1,4,-1
 469 1579 l 1,5,-1
 469 876 l 1,6,-1
 716 876 l 1,7,-1
 716 728 l 1,8,-1
 469 728 l 1,9,-1
 469 0 l 1,10,-1
 272 0 l 1,11,-1
 272 728 l 1,0,-1
EndSplineSet
Validated: 1
EndChar

StartChar: lambdabar
Encoding: 411 411 393
Width: 1217
GlyphClass: 2
Flags: W
LayerCount: 2
Fore
SplineSet
499 985 m 1,0,-1
 441 1122 l 1,1,-1
 192 1013 l 1,2,-1
 142 1126 l 1,3,-1
 392 1235 l 1,4,5
 376 1264 376 1264 368 1278 c 0,6,7
 328 1352 328 1352 279.5 1379 c 128,-1,8
 231 1406 231 1406 140 1406 c 2,9,-1
 111 1406 l 1,10,-1
 111 1579 l 1,11,-1
 148 1579 l 2,12,13
 329 1579 329 1579 414 1525.5 c 128,-1,14
 499 1472 499 1472 571 1314 c 1,15,-1
 820 1423 l 1,16,-1
 870 1310 l 1,17,-1
 621 1201 l 1,18,-1
 948 453 l 2,19,20
 1045 233 1045 233 1149 58 c 2,21,-1
 1183 0 l 1,22,-1
 961 0 l 1,23,24
 859 169 859 169 776 358 c 2,25,-1
 591 776 l 1,26,-1
 235 0 l 1,27,-1
 45 0 l 1,28,-1
 499 985 l 1,0,-1
EndSplineSet
Validated: 1
EndChar

StartChar: mcapturn
Encoding: 412 412 394
Width: 2178
GlyphClass: 2
Flags: W
LayerCount: 2
Fore
SplineSet
1987 1480 m 1,0,-1
 1987 0 l 1,1,-1
 1777 0 l 1,2,-1
 1777 216 l 1,3,4
 1597 -37 1597 -37 1335 -37 c 0,5,6
 1065 -37 1065 -37 989 235 c 1,7,8
 794 -37 794 -37 522 -37 c 0,9,10
 342 -37 342 -37 248 92 c 0,11,12
 173 194 173 194 173 456 c 2,13,-1
 173 1480 l 1,14,-1
 383 1480 l 1,15,-1
 383 450 l 2,16,17
 383 289 383 289 425.5 221.5 c 128,-1,18
 468 154 468 154 571 154 c 0,19,20
 785 154 785 154 975 432 c 1,21,-1
 975 1480 l 1,22,-1
 1185 1480 l 1,23,-1
 1185 450 l 2,24,25
 1185 290 1185 290 1230.5 222 c 128,-1,26
 1276 154 1276 154 1384 154 c 0,27,28
 1486 154 1486 154 1591.5 228.5 c 128,-1,29
 1697 303 1697 303 1777 432 c 1,30,-1
 1777 1480 l 1,31,-1
 1987 1480 l 1,0,-1
EndSplineSet
Validated: 1
EndChar

StartChar: Nhook
Encoding: 413 413 395
Width: 1513
GlyphClass: 2
Flags: W
LayerCount: 2
Fore
SplineSet
372 -92 m 2,0,1
 372 -247 372 -247 289.5 -333 c 128,-1,2
 207 -419 207 -419 59 -419 c 0,3,4
 -14 -419 -14 -419 -88 -399 c 1,5,-1
 -88 -244 l 1,6,7
 -25 -272 -25 -272 38 -272 c 0,8,9
 122 -272 122 -272 157 -222 c 128,-1,10
 192 -172 192 -172 192 -54 c 2,11,-1
 192 1480 l 1,12,-1
 398 1480 l 1,13,-1
 1143 337 l 1,14,-1
 1143 1480 l 1,15,-1
 1323 1480 l 1,16,-1
 1323 0 l 1,17,-1
 1118 0 l 1,18,-1
 372 1143 l 1,19,-1
 372 -92 l 2,0,1
EndSplineSet
Validated: 1
EndChar

StartChar: nleg
Encoding: 414 414 396
Width: 1271
GlyphClass: 2
Flags: W
LayerCount: 2
Fore
SplineSet
197 0 m 1,0,-1
 197 1086 l 1,1,-1
 394 1086 l 1,2,-1
 394 882 l 1,3,4
 550 1110 550 1110 776 1110 c 0,5,6
 918 1110 918 1110 1001.5 1020.5 c 128,-1,7
 1085 931 1085 931 1085 780 c 2,8,-1
 1085 -395 l 1,9,-1
 888 -395 l 1,10,-1
 888 716 l 2,11,12
 888 837 888 837 852.5 888.5 c 128,-1,13
 817 940 817 940 735 940 c 0,14,15
 554 940 554 940 394 703 c 1,16,-1
 394 0 l 1,17,-1
 197 0 l 1,0,-1
EndSplineSet
Validated: 1
EndChar

StartChar: Obar
Encoding: 415 415 397
Width: 1592
GlyphClass: 2
Flags: W
LayerCount: 2
Fore
SplineSet
796 -37 m 256,0,1
 481 -37 481 -37 292.5 174.5 c 128,-1,2
 104 386 104 386 104 740 c 256,3,4
 104 1094 104 1094 292.5 1305.5 c 128,-1,5
 481 1517 481 1517 796 1517 c 256,6,7
 1111 1517 1111 1517 1299.5 1305.5 c 128,-1,8
 1488 1094 1488 1094 1488 740 c 256,9,10
 1488 386 1488 386 1299.5 174.5 c 128,-1,11
 1111 -37 1111 -37 796 -37 c 256,0,1
328 685 m 1,12,13
 346 409 346 409 465.5 264.5 c 128,-1,14
 585 120 585 120 796 120 c 256,15,16
 1007 120 1007 120 1127 264.5 c 128,-1,17
 1247 409 1247 409 1264 685 c 1,18,-1
 328 685 l 1,12,13
331 845 m 1,19,-1
 1261 845 l 1,20,21
 1239 1091 1239 1091 1117.5 1225.5 c 128,-1,22
 996 1360 996 1360 796 1360 c 256,23,24
 596 1360 596 1360 474.5 1225.5 c 128,-1,25
 353 1091 353 1091 331 845 c 1,19,-1
EndSplineSet
Validated: 1
EndChar

StartChar: Ohorn
Encoding: 416 416 398
Width: 1591
GlyphClass: 2
Flags: W
LayerCount: 2
Fore
SplineSet
1433 1789 m 1,0,1
 1454 1709 1454 1709 1454 1642 c 0,2,3
 1454 1422 1454 1422 1258 1350 c 1,4,5
 1488 1141 1488 1141 1488 740 c 0,6,7
 1488 386 1488 386 1299.5 174.5 c 128,-1,8
 1111 -37 1111 -37 796 -37 c 256,9,10
 481 -37 481 -37 292.5 174.5 c 128,-1,11
 104 386 104 386 104 740 c 0,12,13
 104 1095 104 1095 292.5 1306 c 128,-1,14
 481 1517 481 1517 797 1517 c 0,15,16
 920 1517 920 1517 1034 1480 c 1,17,-1
 1051 1480 l 2,18,19
 1191 1480 1191 1480 1245.5 1516 c 128,-1,20
 1300 1552 1300 1552 1300 1644 c 0,21,22
 1300 1722 1300 1722 1270 1789 c 1,23,-1
 1433 1789 l 1,0,1
796 120 m 256,24,25
 1017 120 1017 120 1141 284.5 c 128,-1,26
 1265 449 1265 449 1265 742 c 0,27,28
 1265 1033 1265 1033 1141 1196.5 c 128,-1,29
 1017 1360 1017 1360 796 1360 c 256,30,31
 575 1360 575 1360 451 1196.5 c 128,-1,32
 327 1033 327 1033 327 742 c 0,33,34
 327 449 327 449 451 284.5 c 128,-1,35
 575 120 575 120 796 120 c 256,24,25
EndSplineSet
Validated: 1
EndChar

StartChar: ohorn
Encoding: 417 417 399
Width: 1283
GlyphClass: 2
Flags: W
LayerCount: 2
Fore
SplineSet
1012 954 m 1,0,1
 1147 786 1147 786 1147 542 c 0,2,3
 1147 281 1147 281 1007.5 128 c 128,-1,4
 868 -25 868 -25 629 -25 c 256,5,6
 390 -25 390 -25 250.5 128 c 128,-1,7
 111 281 111 281 111 543 c 0,8,9
 111 804 111 804 250.5 957 c 128,-1,10
 390 1110 390 1110 628 1110 c 0,11,12
 716 1110 716 1110 804 1086 c 1,13,-1
 836 1086 l 2,14,15
 977 1086 977 1086 1029.5 1122.5 c 128,-1,16
 1082 1159 1082 1159 1082 1258 c 0,17,18
 1082 1333 1082 1333 1055 1397 c 1,19,-1
 1204 1397 l 1,20,21
 1224 1315 1224 1315 1224 1239 c 0,22,23
 1224 1015 1224 1015 1012 954 c 1,0,1
629 123 m 256,24,25
 776 123 776 123 857 233 c 128,-1,26
 938 343 938 343 938 543 c 256,27,28
 938 743 938 743 857 852.5 c 128,-1,29
 776 962 776 962 629 962 c 256,30,31
 482 962 482 962 401.5 852.5 c 128,-1,32
 321 743 321 743 321 543 c 256,33,34
 321 343 321 343 401.5 233 c 128,-1,35
 482 123 482 123 629 123 c 256,24,25
EndSplineSet
Validated: 1
EndChar

StartChar: OI
Encoding: 418 418 400
Width: 2171
GlyphClass: 2
Flags: W
LayerCount: 2
Fore
SplineSet
1789 -395 m 1,0,-1
 1789 1039 l 2,1,2
 1789 1210 1789 1210 1747.5 1280.5 c 128,-1,3
 1706 1351 1706 1351 1605 1351 c 0,4,5
 1487 1351 1487 1351 1348 1251 c 1,6,7
 1493 1038 1493 1038 1493 737 c 0,8,9
 1493 385 1493 385 1303 174 c 128,-1,10
 1113 -37 1113 -37 796 -37 c 0,11,12
 484 -37 484 -37 294.5 177 c 128,-1,13
 105 391 105 391 105 743 c 0,14,15
 105 1096 105 1096 294.5 1306.5 c 128,-1,16
 484 1517 484 1517 801 1517 c 0,17,18
 1067 1517 1067 1517 1247 1363 c 1,19,-1
 1262 1376 l 2,20,21
 1430 1518 1430 1518 1628 1518 c 0,22,23
 1999 1518 1999 1518 1999 1082 c 2,24,-1
 1999 -395 l 1,25,-1
 1789 -395 l 1,0,-1
798 117 m 256,26,27
 1021 117 1021 117 1146 281 c 128,-1,28
 1271 445 1271 445 1271 738 c 256,29,30
 1271 1031 1271 1031 1145.5 1197 c 128,-1,31
 1020 1363 1020 1363 799 1363 c 0,32,33
 577 1363 577 1363 452 1198 c 128,-1,34
 327 1033 327 1033 327 741 c 0,35,36
 327 445 327 445 451 281 c 128,-1,37
 575 117 575 117 798 117 c 256,26,27
EndSplineSet
Validated: 1
EndChar

StartChar: oi
Encoding: 419 419 401
Width: 1827
GlyphClass: 2
Flags: W
LayerCount: 2
Fore
SplineSet
629 123 m 256,0,1
 774 123 774 123 856 235.5 c 128,-1,2
 938 348 938 348 938 548 c 0,3,4
 938 743 938 743 856 853 c 128,-1,5
 774 963 774 963 628 963 c 0,6,7
 480 963 480 963 400.5 853 c 128,-1,8
 321 743 321 743 321 540 c 0,9,10
 321 344 321 344 402.5 233.5 c 128,-1,11
 484 123 484 123 629 123 c 256,0,1
1444 -395 m 1,12,-1
 1444 609 l 2,13,14
 1444 824 1444 824 1404 877 c 0,15,16
 1353 944 1353 944 1264 944 c 0,17,18
 1173 944 1173 944 1073 860 c 1,19,20
 1148 714 1148 714 1148 542 c 0,21,22
 1148 284 1148 284 1007.5 129.5 c 128,-1,23
 867 -25 867 -25 631 -25 c 0,24,25
 389 -25 389 -25 250 127.5 c 128,-1,26
 111 280 111 280 111 545 c 0,27,28
 111 804 111 804 250 957.5 c 128,-1,29
 389 1111 389 1111 624 1111 c 0,30,31
 842 1111 842 1111 985 980 c 1,32,-1
 1000 994 l 2,33,34
 1127 1111 1127 1111 1284 1111 c 0,35,36
 1642 1111 1642 1111 1642 672 c 2,37,-1
 1642 -395 l 1,38,-1
 1444 -395 l 1,12,-1
EndSplineSet
Validated: 1
EndChar

StartChar: Phook
Encoding: 420 420 402
Width: 1386
GlyphClass: 2
Flags: W
LayerCount: 2
Fore
SplineSet
445 0 m 1,0,-1
 445 1326 l 1,1,-1
 428 1326 l 2,2,3
 288 1326 288 1326 234 1290.5 c 128,-1,4
 180 1255 180 1255 180 1163 c 0,5,6
 180 1085 180 1085 210 1018 c 1,7,-1
 47 1018 l 1,8,9
 25 1097 25 1097 25 1164 c 0,10,11
 25 1334 25 1334 122.5 1407 c 128,-1,12
 220 1480 220 1480 445 1480 c 2,13,-1
 848 1480 l 2,14,15
 1022 1480 1022 1480 1116.5 1451.5 c 128,-1,16
 1211 1423 1211 1423 1271 1351 c 0,17,18
 1350 1256 1350 1256 1350 1092 c 0,19,20
 1350 856 1350 856 1190 722 c 128,-1,21
 1030 588 1030 588 746 588 c 2,22,-1
 653 588 l 1,23,-1
 653 0 l 1,24,-1
 445 0 l 1,0,-1
653 747 m 1,25,-1
 738 747 l 2,26,27
 925 747 925 747 1027 833 c 128,-1,28
 1129 919 1129 919 1129 1077 c 0,29,30
 1129 1209 1129 1209 1048.5 1266 c 128,-1,31
 968 1323 968 1323 782 1323 c 2,32,-1
 653 1323 l 1,33,-1
 653 747 l 1,25,-1
EndSplineSet
Validated: 1
EndChar

StartChar: phook
Encoding: 421 421 403
Width: 1289
GlyphClass: 2
Flags: W
LayerCount: 2
Fore
SplineSet
197 -395 m 1,0,-1
 197 984 l 2,1,2
 197 1604 197 1604 698 1604 c 0,3,4
 829 1604 829 1604 962 1562 c 1,5,-1
 962 1389 l 1,6,7
 828 1456 828 1456 687 1456 c 0,8,9
 529 1456 529 1456 461.5 1339 c 128,-1,10
 394 1222 394 1222 394 947 c 2,11,-1
 394 882 l 1,12,13
 515 1110 515 1110 757 1110 c 0,14,15
 953 1110 953 1110 1065.5 967 c 128,-1,16
 1178 824 1178 824 1178 576 c 0,17,18
 1178 306 1178 306 1050.5 140.5 c 128,-1,19
 923 -25 923 -25 715 -25 c 0,20,21
 522 -25 522 -25 394 123 c 1,22,-1
 394 -395 l 1,23,-1
 197 -395 l 1,0,-1
394 259 m 1,24,25
 546 123 546 123 684 123 c 0,26,27
 820 123 820 123 894 236.5 c 128,-1,28
 968 350 968 350 968 556 c 0,29,30
 968 938 968 938 716 938 c 0,31,32
 551 938 551 938 394 759 c 1,33,-1
 394 259 l 1,24,25
EndSplineSet
Validated: 1
EndChar

StartChar: YR
Encoding: 422 422 404
Width: 1301
GlyphClass: 2
Flags: W
LayerCount: 2
Fore
SplineSet
191 0 m 1,0,-1
 191 1678 l 1,1,-1
 401 1678 l 1,2,-1
 401 1480 l 1,3,-1
 640 1480 l 2,4,5
 854 1480 854 1480 966.5 1387 c 128,-1,6
 1079 1294 1079 1294 1079 1115 c 0,7,8
 1079 974 1079 974 1001.5 864.5 c 128,-1,9
 924 755 924 755 782 696 c 1,10,-1
 1276 -302 l 1,11,-1
 1040 -302 l 1,12,-1
 596 629 l 1,13,-1
 401 629 l 1,14,-1
 401 0 l 1,15,-1
 191 0 l 1,0,-1
401 783 m 1,16,-1
 467 783 l 2,17,18
 659 783 659 783 758 862.5 c 128,-1,19
 857 942 857 942 857 1095 c 0,20,21
 857 1326 857 1326 532 1326 c 2,22,-1
 401 1326 l 1,23,-1
 401 783 l 1,16,-1
EndSplineSet
Validated: 1
EndChar

StartChar: Tonetwo
Encoding: 423 423 405
Width: 1103
GlyphClass: 2
Flags: W
LayerCount: 2
Fore
SplineSet
1003 28 m 1,0,1
 771 -37 771 -37 623 -37 c 0,2,3
 386 -37 386 -37 244 79.5 c 128,-1,4
 102 196 102 196 102 391 c 0,5,6
 102 526 102 526 178 623 c 128,-1,7
 254 720 254 720 445 829 c 2,8,-1
 552 889 l 2,9,10
 690 968 690 968 742 1025 c 128,-1,11
 794 1082 794 1082 794 1156 c 0,12,13
 794 1245 794 1245 722.5 1302.5 c 128,-1,14
 651 1360 651 1360 542 1360 c 0,15,16
 428 1360 428 1360 194 1268 c 1,17,-1
 194 1460 l 1,18,19
 384 1517 384 1517 555 1517 c 0,20,21
 747 1517 747 1517 871 1406.5 c 128,-1,22
 995 1296 995 1296 995 1125 c 0,23,24
 995 998 995 998 918 902.5 c 128,-1,25
 841 807 841 807 651 699 c 2,26,-1
 549 640 l 2,27,28
 416 565 416 565 366 504 c 128,-1,29
 316 443 316 443 316 356 c 0,30,31
 316 250 316 250 392.5 185 c 128,-1,32
 469 120 469 120 593 120 c 0,33,34
 753 120 753 120 1003 236 c 1,35,-1
 1003 28 l 1,0,1
EndSplineSet
Validated: 1
EndChar

StartChar: tonetwo
Encoding: 424 424 406
Width: 1043
GlyphClass: 2
Flags: W
LayerCount: 2
Fore
SplineSet
887 38 m 1,0,1
 694 -25 694 -25 558 -25 c 0,2,3
 382 -25 382 -25 269.5 67 c 128,-1,4
 157 159 157 159 157 302 c 0,5,6
 157 415 157 415 224 490.5 c 128,-1,7
 291 566 291 566 452 634 c 2,8,-1
 547 674 l 2,9,10
 690 735 690 735 690 824 c 0,11,12
 690 962 690 962 498 962 c 0,13,14
 404 962 404 962 239 913 c 1,15,-1
 239 1077 l 1,16,-1
 280 1085 l 2,17,18
 414 1110 414 1110 506 1110 c 0,19,20
 680 1110 680 1110 780 1028.5 c 128,-1,21
 880 947 880 947 880 805 c 0,22,23
 880 606 880 606 626 500 c 2,24,-1
 510 451 l 2,25,26
 354 385 354 385 354 284 c 0,27,28
 354 215 354 215 410 169 c 128,-1,29
 466 123 466 123 552 123 c 0,30,31
 694 123 694 123 887 219 c 1,32,-1
 887 38 l 1,0,1
EndSplineSet
Validated: 1
EndChar

StartChar: Esh
Encoding: 425 425 407
Width: 1191
GlyphClass: 2
Flags: W
LayerCount: 2
Fore
SplineSet
49 0 m 1,0,-1
 49 185 l 1,1,-1
 622 742 l 1,2,-1
 98 1326 l 1,3,-1
 98 1480 l 1,4,-1
 1116 1480 l 1,5,-1
 1116 1326 l 1,6,-1
 377 1326 l 1,7,-1
 874 772 l 1,8,-1
 268 185 l 1,9,-1
 1147 185 l 1,10,-1
 1147 0 l 1,11,-1
 49 0 l 1,0,-1
EndSplineSet
Validated: 1
EndChar

StartChar: eshlooprev
Encoding: 426 426 408
Width: 1080
GlyphClass: 2
Flags: W
LayerCount: 2
Fore
SplineSet
1179 -386 m 1,0,1
 1066 -420 1066 -420 958 -420 c 0,2,3
 574 -420 574 -420 574 99 c 2,4,-1
 574 994 l 1,5,6
 478 926 478 926 371 926 c 0,7,8
 236 926 236 926 136.5 1027.5 c 128,-1,9
 37 1129 37 1129 37 1267 c 0,10,11
 37 1411 37 1411 138 1508 c 128,-1,12
 239 1605 239 1605 389 1605 c 0,13,14
 771 1605 771 1605 771 1082 c 2,15,-1
 771 99 l 2,16,17
 771 -109 771 -109 814.5 -190.5 c 128,-1,18
 858 -272 858 -272 968 -272 c 0,19,20
 1057 -272 1057 -272 1179 -224 c 1,21,-1
 1179 -386 l 1,0,1
574 1153 m 1,22,-1
 574 1182 l 2,23,24
 574 1456 574 1456 378 1456 c 0,25,26
 296 1456 296 1456 240.5 1401.5 c 128,-1,27
 185 1347 185 1347 185 1266 c 0,28,29
 185 1184 185 1184 243 1129 c 128,-1,30
 301 1074 301 1074 387 1074 c 0,31,32
 494 1074 494 1074 574 1153 c 1,22,-1
EndSplineSet
Validated: 1
EndChar

StartChar: tpalatalhook
Encoding: 427 427 409
Width: 766
GlyphClass: 2
Flags: W
LayerCount: 2
Fore
SplineSet
212 -399 m 1,0,-1
 212 -244 l 1,1,2
 274 -271 274 -271 337 -271 c 0,3,4
 417 -271 417 -271 450.5 -221.5 c 128,-1,5
 484 -172 484 -172 484 -54 c 2,6,-1
 484 -23 l 1,7,8
 205 9 205 9 205 300 c 2,9,-1
 205 938 l 1,10,-1
 69 938 l 1,11,-1
 69 1086 l 1,12,-1
 205 1086 l 1,13,-1
 205 1283 l 1,14,-1
 402 1302 l 1,15,-1
 402 1086 l 1,16,-1
 686 1086 l 1,17,-1
 686 938 l 1,18,-1
 402 938 l 1,19,-1
 402 336 l 2,20,21
 402 123 402 123 586 123 c 0,22,23
 625 123 625 123 681 136 c 1,24,-1
 681 -92 l 2,25,26
 681 -246 681 -246 596 -332.5 c 128,-1,27
 511 -419 511 -419 360 -419 c 0,28,29
 287 -419 287 -419 212 -399 c 1,0,-1
EndSplineSet
Validated: 1
EndChar

StartChar: Thook
Encoding: 428 428 410
Width: 1376
GlyphClass: 2
Flags: W
LayerCount: 2
Fore
SplineSet
1359 1480 m 1,0,-1
 1359 1323 l 1,1,-1
 834 1323 l 1,2,-1
 834 0 l 1,3,-1
 624 0 l 1,4,-1
 624 1323 l 1,5,-1
 427 1323 l 2,6,7
 288 1323 288 1323 233.5 1287.5 c 128,-1,8
 179 1252 179 1252 179 1160 c 0,9,10
 179 1082 179 1082 209 1015 c 1,11,-1
 47 1015 l 1,12,13
 25 1096 25 1096 25 1164 c 0,14,15
 25 1334 25 1334 122.5 1407 c 128,-1,16
 220 1480 220 1480 444 1480 c 2,17,-1
 1359 1480 l 1,0,-1
EndSplineSet
Validated: 1
EndChar

StartChar: thook
Encoding: 429 429 411
Width: 766
GlyphClass: 2
Flags: W
LayerCount: 2
Fore
SplineSet
402 1086 m 1,0,-1
 686 1086 l 1,1,-1
 686 938 l 1,2,-1
 402 938 l 1,3,-1
 402 336 l 2,4,5
 402 123 402 123 586 123 c 0,6,7
 625 123 625 123 681 136 c 1,8,-1
 681 0 l 1,9,10
 590 -25 590 -25 523 -25 c 0,11,12
 373 -25 373 -25 289 61 c 128,-1,13
 205 147 205 147 205 300 c 2,14,-1
 205 938 l 1,15,-1
 69 938 l 1,16,-1
 69 1086 l 1,17,-1
 205 1086 l 1,18,-1
 205 1276 l 2,19,20
 205 1431 205 1431 289.5 1517.5 c 128,-1,21
 374 1604 374 1604 526 1604 c 0,22,23
 599 1604 599 1604 674 1583 c 1,24,-1
 674 1429 l 1,25,26
 611 1456 611 1456 548 1456 c 0,27,28
 469 1456 469 1456 435.5 1406.5 c 128,-1,29
 402 1357 402 1357 402 1239 c 2,30,-1
 402 1086 l 1,0,-1
EndSplineSet
Validated: 1
EndChar

StartChar: Trthook
Encoding: 430 430 412
Width: 1295
GlyphClass: 2
Flags: W
LayerCount: 2
Fore
SplineSet
753 1323 m 1,0,-1
 753 -28 l 2,1,2
 753 -174 753 -174 781 -219.5 c 128,-1,3
 809 -265 809 -265 898 -265 c 0,4,5
 971 -265 971 -265 1043 -233 c 1,6,-1
 1043 -393 l 1,7,8
 954 -420 954 -420 850 -420 c 0,9,10
 689 -420 689 -420 616 -324.5 c 128,-1,11
 543 -229 543 -229 543 -20 c 2,12,-1
 543 1323 l 1,13,-1
 18 1323 l 1,14,-1
 18 1480 l 1,15,-1
 1278 1480 l 1,16,-1
 1278 1323 l 1,17,-1
 753 1323 l 1,0,-1
EndSplineSet
Validated: 1
EndChar

StartChar: Uhorn
Encoding: 431 431 413
Width: 1685
GlyphClass: 2
Flags: W
LayerCount: 2
Fore
SplineSet
179 1480 m 1,0,-1
 389 1480 l 1,1,-1
 389 546 l 2,2,3
 389 323 389 323 471.5 221.5 c 128,-1,4
 554 120 554 120 734 120 c 0,5,6
 910 120 910 120 983.5 215.5 c 128,-1,7
 1057 311 1057 311 1057 539 c 2,8,-1
 1057 1480 l 1,9,-1
 1253 1480 l 2,10,11
 1397 1480 1397 1480 1451.5 1515.5 c 128,-1,12
 1506 1551 1506 1551 1506 1644 c 0,13,14
 1506 1722 1506 1722 1476 1789 c 1,15,-1
 1639 1789 l 1,16,17
 1660 1709 1660 1709 1660 1642 c 0,18,19
 1660 1476 1660 1476 1564 1401 c 128,-1,20
 1468 1326 1468 1326 1253 1326 c 2,21,-1
 1241 1326 l 1,22,-1
 1241 542 l 2,23,24
 1241 348 1241 348 1203 244 c 128,-1,25
 1165 140 1165 140 1066 61 c 0,26,27
 942 -37 942 -37 725 -37 c 0,28,29
 444 -37 444 -37 311.5 105 c 128,-1,30
 179 247 179 247 179 548 c 2,31,-1
 179 1480 l 1,0,-1
EndSplineSet
Validated: 1
EndChar

StartChar: uhorn
Encoding: 432 432 414
Width: 1498
GlyphClass: 2
Flags: W
LayerCount: 2
Fore
SplineSet
876 0 m 1,0,-1
 876 204 l 1,1,2
 719 -25 719 -25 495 -25 c 0,3,4
 353 -25 353 -25 269 64.5 c 128,-1,5
 185 154 185 154 185 306 c 2,6,-1
 185 1086 l 1,7,-1
 382 1086 l 1,8,-1
 382 370 l 2,9,10
 382 248 382 248 417.5 196.5 c 128,-1,11
 453 145 453 145 536 145 c 0,12,13
 716 145 716 145 876 382 c 1,14,-1
 876 1086 l 1,15,-1
 1073 1086 l 2,16,17
 1214 1086 1214 1086 1266.5 1122.5 c 128,-1,18
 1319 1159 1319 1159 1319 1258 c 0,19,20
 1319 1333 1319 1333 1292 1397 c 1,21,-1
 1441 1397 l 1,22,23
 1461 1315 1461 1315 1461 1239 c 0,24,25
 1461 938 1461 938 1073 938 c 1,26,-1
 1073 0 l 1,27,-1
 876 0 l 1,0,-1
EndSplineSet
Validated: 1
EndChar

StartChar: Upsilon2
Encoding: 433 433 415
Width: 1604
GlyphClass: 2
Flags: W
LayerCount: 2
Fore
SplineSet
1542 1480 m 1,0,-1
 1542 1326 l 1,1,-1
 1135 1326 l 1,2,3
 1493 1056 1493 1056 1493 648 c 0,4,5
 1493 348 1493 348 1299 155.5 c 128,-1,6
 1105 -37 1105 -37 802 -37 c 256,7,8
 499 -37 499 -37 305 155.5 c 128,-1,9
 111 348 111 348 111 649 c 0,10,11
 111 1057 111 1057 469 1326 c 1,12,-1
 62 1326 l 1,13,-1
 62 1480 l 1,14,-1
 673 1480 l 1,15,-1
 673 1326 l 1,16,17
 333 1097 333 1097 333 668 c 0,18,19
 333 408 333 408 457 262.5 c 128,-1,20
 581 117 581 117 802 117 c 0,21,22
 1021 117 1021 117 1146 262 c 128,-1,23
 1271 407 1271 407 1271 659 c 0,24,25
 1271 1097 1271 1097 932 1326 c 1,26,-1
 932 1480 l 1,27,-1
 1542 1480 l 1,0,-1
EndSplineSet
Validated: 1
EndChar

StartChar: Vcursive
Encoding: 434 434 416
Width: 1462
GlyphClass: 2
Flags: W
LayerCount: 2
Fore
SplineSet
173 1480 m 1,0,-1
 383 1480 l 1,1,-1
 383 583 l 2,2,3
 383 444 383 444 401 370 c 128,-1,4
 419 296 419 296 467 235 c 0,5,6
 561 117 561 117 718 117 c 0,7,8
 910 117 910 117 1022.5 275 c 128,-1,9
 1135 433 1135 433 1135 701 c 0,10,11
 1135 886 1135 886 1081 1107 c 128,-1,12
 1027 1328 1027 1328 944 1480 c 1,13,-1
 1192 1480 l 1,14,15
 1242 1362 1242 1362 1278 1162.5 c 128,-1,16
 1314 963 1314 963 1314 800 c 0,17,18
 1314 405 1314 405 1150.5 184 c 128,-1,19
 987 -37 987 -37 695 -37 c 0,20,21
 470 -37 470 -37 328 95 c 0,22,23
 238 178 238 178 205.5 288 c 128,-1,24
 173 398 173 398 173 620 c 2,25,-1
 173 1480 l 1,0,-1
EndSplineSet
Validated: 1
EndChar

StartChar: Yhook
Encoding: 435 435 417
Width: 1308
GlyphClass: 2
Flags: W
LayerCount: 2
Fore
SplineSet
569 0 m 1,0,-1
 569 587 l 1,1,2
 521 747 521 747 403 999 c 0,3,4
 316 1184 316 1184 261 1243 c 128,-1,5
 206 1302 206 1302 121 1302 c 0,6,7
 52 1302 52 1302 -36 1248 c 1,8,-1
 -36 1443 l 1,9,10
 62 1499 62 1499 175 1499 c 256,11,12
 288 1499 288 1499 365 1439.5 c 128,-1,13
 442 1380 442 1380 527 1227 c 0,14,15
 625 1051 625 1051 703 822 c 1,16,-1
 1112 1480 l 1,17,-1
 1308 1480 l 1,18,-1
 779 619 l 1,19,-1
 779 1 l 1,20,-1
 569 0 l 1,0,-1
EndSplineSet
Validated: 1
EndChar

StartChar: yhook
Encoding: 436 436 418
Width: 1376
GlyphClass: 2
Flags: W
LayerCount: 2
Fore
SplineSet
418 0 m 1,0,-1
 1 1086 l 1,1,-1
 215 1086 l 1,2,-1
 522 273 l 1,3,-1
 822 1010 l 1,4,-1
 872 1132 l 2,5,6
 954 1329 954 1329 1049.5 1414 c 128,-1,7
 1145 1499 1145 1499 1285 1499 c 0,8,9
 1352 1499 1352 1499 1437 1475 c 1,10,-1
 1437 1295 l 1,11,12
 1351 1331 1351 1331 1280 1331 c 0,13,14
 1196 1331 1196 1331 1141.5 1267.5 c 128,-1,15
 1087 1204 1087 1204 1013 1019 c 2,16,-1
 979 934 l 1,17,-1
 448 -395 l 1,18,-1
 241 -395 l 1,19,-1
 418 0 l 1,0,-1
EndSplineSet
Validated: 1
EndChar

StartChar: Zbar
Encoding: 437 437 419
Width: 1239
GlyphClass: 2
Flags: W
LayerCount: 2
Fore
SplineSet
95 0 m 1,0,-1
 95 168 l 1,1,-1
 455 692 l 1,2,-1
 230 692 l 1,3,-1
 230 849 l 1,4,-1
 563 849 l 1,5,-1
 890 1323 l 1,6,-1
 144 1323 l 1,7,-1
 144 1480 l 1,8,-1
 1142 1480 l 1,9,-1
 1142 1323 l 1,10,-1
 816 849 l 1,11,-1
 1056 849 l 1,12,-1
 1056 692 l 1,13,-1
 708 692 l 1,14,-1
 347 168 l 1,15,-1
 1142 168 l 1,16,-1
 1142 0 l 1,17,-1
 95 0 l 1,0,-1
EndSplineSet
Validated: 1
EndChar

StartChar: zbar
Encoding: 438 438 420
Width: 1175
GlyphClass: 2
Flags: W
LayerCount: 2
Fore
SplineSet
1038 938 m 1,0,-1
 776 629 l 1,1,-1
 1001 629 l 1,2,-1
 1001 506 l 1,3,-1
 671 506 l 1,4,-1
 366 148 l 1,5,-1
 1051 148 l 1,6,-1
 1051 0 l 1,7,-1
 123 0 l 1,8,-1
 123 148 l 1,9,-1
 428 506 l 1,10,-1
 203 506 l 1,11,-1
 203 629 l 1,12,-1
 533 629 l 1,13,-1
 795 938 l 1,14,-1
 154 938 l 1,15,-1
 154 1086 l 1,16,-1
 1038 1086 l 1,17,-1
 1038 938 l 1,0,-1
EndSplineSet
Validated: 1
EndChar

StartChar: Yogh
Encoding: 439 439 421
Width: 1141
GlyphClass: 2
Flags: W
LayerCount: 2
Fore
SplineSet
93 14 m 1,0,-1
 93 200 l 1,1,2
 280 117 280 117 458 117 c 0,3,4
 605 117 605 117 694.5 196.5 c 128,-1,5
 784 276 784 276 784 406 c 0,6,7
 784 547 784 547 664.5 634.5 c 128,-1,8
 545 722 545 722 353 722 c 0,9,10
 302 722 302 722 229 709 c 1,11,-1
 229 860 l 1,12,-1
 728 1295 l 1,13,-1
 105 1295 l 1,14,-1
 105 1480 l 1,15,-1
 963 1480 l 1,16,-1
 963 1295 l 1,17,-1
 475 874 l 1,18,19
 702 874 702 874 854 744 c 128,-1,20
 1006 614 1006 614 1006 420 c 0,21,22
 1006 207 1006 207 857 85 c 128,-1,23
 708 -37 708 -37 449 -37 c 0,24,25
 271 -37 271 -37 93 14 c 1,0,-1
EndSplineSet
Validated: 1
EndChar

StartChar: Yoghrev
Encoding: 440 440 422
Width: 1141
GlyphClass: 2
Flags: W
LayerCount: 2
Fore
SplineSet
1049 14 m 1,0,1
 871 -37 871 -37 691 -37 c 0,2,3
 433 -37 433 -37 284.5 85 c 128,-1,4
 136 207 136 207 136 420 c 0,5,6
 136 614 136 614 288 744 c 128,-1,7
 440 874 440 874 667 874 c 1,8,-1
 179 1295 l 1,9,-1
 179 1480 l 1,10,-1
 1037 1480 l 1,11,-1
 1037 1295 l 1,12,-1
 414 1295 l 1,13,-1
 913 860 l 1,14,-1
 913 709 l 1,15,16
 840 722 840 722 788 722 c 0,17,18
 597 722 597 722 477.5 634 c 128,-1,19
 358 546 358 546 358 406 c 0,20,21
 358 274 358 274 448 195.5 c 128,-1,22
 538 117 538 117 689 117 c 0,23,24
 863 117 863 117 1049 200 c 1,25,-1
 1049 14 l 1,0,1
EndSplineSet
Validated: 1
EndChar

StartChar: yoghrev
Encoding: 441 441 423
Width: 1049
GlyphClass: 2
Flags: W
LayerCount: 2
Fore
SplineSet
969 -369 m 1,0,1
 765 -419 765 -419 619 -419 c 0,2,3
 387 -419 387 -419 243 -296.5 c 128,-1,4
 99 -174 99 -174 99 24 c 0,5,6
 99 216 99 216 239 337.5 c 128,-1,7
 379 459 379 459 623 480 c 1,8,-1
 136 938 l 1,9,-1
 136 1086 l 1,10,-1
 950 1086 l 1,11,-1
 950 925 l 1,12,-1
 364 925 l 1,13,-1
 845 480 l 1,14,-1
 845 343 l 1,15,-1
 830 343 l 2,16,17
 587 343 587 343 448 255 c 128,-1,18
 309 167 309 167 309 13 c 0,19,20
 309 -118 309 -118 395 -194.5 c 128,-1,21
 481 -271 481 -271 628 -271 c 0,22,23
 767 -271 767 -271 969 -202 c 1,24,-1
 969 -369 l 1,0,1
EndSplineSet
Validated: 1
EndChar

StartChar: yoghtail
Encoding: 442 442 424
Width: 1061
GlyphClass: 2
Flags: W
LayerCount: 2
Fore
SplineSet
951 1086 m 1,0,-1
 951 938 l 1,1,-1
 498 605 l 1,2,3
 547 610 547 610 569 610 c 0,4,5
 736 610 736 610 840.5 527.5 c 128,-1,6
 945 445 945 445 945 313 c 0,7,8
 945 200 945 200 872 129 c 128,-1,9
 799 58 799 58 598 -24 c 2,10,-1
 491 -68 l 2,11,12
 391 -109 391 -109 359.5 -133 c 128,-1,13
 328 -157 328 -157 328 -192 c 0,14,15
 328 -271 328 -271 488 -271 c 0,16,17
 642 -271 642 -271 840 -190 c 1,18,-1
 840 -352 l 1,19,20
 674 -419 674 -419 499 -419 c 0,21,22
 321 -419 321 -419 219 -355 c 128,-1,23
 117 -291 117 -291 117 -179 c 0,24,25
 117 -93 117 -93 191.5 -25.5 c 128,-1,26
 266 42 266 42 437 112 c 2,27,-1
 556 160 l 2,28,29
 672 208 672 208 709.5 239 c 128,-1,30
 747 270 747 270 747 319 c 0,31,32
 747 456 747 456 457 456 c 0,33,34
 328 456 328 456 223 434 c 1,35,-1
 223 585 l 1,36,-1
 699 938 l 1,37,-1
 124 938 l 1,38,-1
 124 1086 l 1,39,-1
 951 1086 l 1,0,-1
EndSplineSet
Validated: 1
EndChar

StartChar: 2bar
Encoding: 443 443 425
Width: 1295
GlyphClass: 2
Flags: W
LayerCount: 2
Fore
SplineSet
408 173 m 1,0,-1
 1051 173 l 1,1,-1
 1051 0 l 1,2,-1
 170 0 l 1,3,-1
 170 173 l 1,4,5
 252 365 252 365 498 592 c 1,6,-1
 195 592 l 1,7,-1
 195 740 l 1,8,-1
 661 740 l 1,9,10
 849 926 849 926 849 1103 c 0,11,12
 849 1227 849 1227 774.5 1298 c 128,-1,13
 700 1369 700 1369 569 1369 c 0,14,15
 416 1369 416 1369 207 1250 c 1,16,-1
 207 1424 l 1,17,18
 404 1517 404 1517 599 1517 c 0,19,20
 806 1517 806 1517 932 1405 c 128,-1,21
 1058 1293 1058 1293 1058 1109 c 0,22,23
 1058 898 1058 898 886 740 c 1,24,-1
 1051 740 l 1,25,-1
 1051 592 l 1,26,-1
 724 592 l 1,27,28
 711 582 711 582 705 577 c 0,29,30
 688 564 688 564 682 557 c 0,31,32
 445 356 445 356 408 173 c 1,0,-1
EndSplineSet
Validated: 1
EndChar

StartChar: Tonefive
Encoding: 444 444 426
Width: 1295
GlyphClass: 2
Flags: W
LayerCount: 2
Fore
SplineSet
249 -6 m 1,0,-1
 249 170 l 1,1,2
 396 111 396 111 529 111 c 0,3,4
 675 111 675 111 758.5 197 c 128,-1,5
 842 283 842 283 842 434 c 0,6,7
 842 596 842 596 724 681.5 c 128,-1,8
 606 767 606 767 383 767 c 0,9,10
 331 767 331 767 274 760 c 1,11,-1
 274 1480 l 1,12,-1
 1023 1480 l 1,13,-1
 1023 1308 l 1,14,-1
 447 1308 l 1,15,-1
 447 918 l 1,16,17
 732 918 732 918 892 787 c 128,-1,18
 1052 656 1052 656 1052 424 c 0,19,20
 1052 208 1052 208 906.5 85.5 c 128,-1,21
 761 -37 761 -37 505 -37 c 0,22,23
 391 -37 391 -37 249 -6 c 1,0,-1
EndSplineSet
Validated: 1
EndChar

StartChar: tonefive
Encoding: 445 445 427
Width: 972
GlyphClass: 2
Flags: W
LayerCount: 2
Fore
SplineSet
167 -4 m 1,0,-1
 167 147 l 1,1,2
 249 123 249 123 352 123 c 0,3,4
 606 123 606 123 606 321 c 0,5,6
 606 547 606 547 272 547 c 0,7,8
 231 547 231 547 186 540 c 1,9,-1
 186 1086 l 1,10,-1
 788 1086 l 1,11,-1
 788 913 l 1,12,-1
 334 913 l 1,13,-1
 334 694 l 1,14,15
 560 694 560 694 688 593.5 c 128,-1,16
 816 493 816 493 816 315 c 0,17,18
 816 154 816 154 698.5 63.5 c 128,-1,19
 581 -27 581 -27 373 -27 c 0,20,21
 283 -27 283 -27 167 -4 c 1,0,-1
EndSplineSet
Validated: 1
EndChar

StartChar: glottalstopbarinv
Encoding: 446 446 428
Width: 938
GlyphClass: 2
Flags: W
LayerCount: 2
Fore
SplineSet
252 1209 m 1,0,-1
 252 1579 l 1,1,-1
 449 1579 l 1,2,-1
 450 1209 l 1,3,-1
 770 1209 l 1,4,-1
 770 1061 l 1,5,-1
 450 1061 l 1,6,-1
 449 1032 l 2,7,8
 449 935 449 935 471.5 891.5 c 128,-1,9
 494 848 494 848 592 754 c 2,10,-1
 638 709 l 2,11,12
 789 564 789 564 832 492 c 128,-1,13
 875 420 875 420 875 316 c 0,14,15
 875 158 875 158 764 66.5 c 128,-1,16
 653 -25 653 -25 461 -25 c 0,17,18
 289 -25 289 -25 98 37 c 1,19,-1
 98 199 l 1,20,21
 268 123 268 123 433 123 c 0,22,23
 550 123 550 123 617 179.5 c 128,-1,24
 684 236 684 236 684 335 c 0,25,26
 684 467 684 467 516 622 c 2,27,-1
 468 666 l 2,28,29
 342 784 342 784 297 862.5 c 128,-1,30
 252 941 252 941 252 1047 c 2,31,-1
 252 1061 l 1,32,-1
 49 1061 l 1,33,-1
 49 1209 l 1,34,-1
 252 1209 l 1,0,-1
EndSplineSet
Validated: 1
EndChar

StartChar: wynn
Encoding: 447 447 429
Width: 1240
GlyphClass: 2
Flags: W
LayerCount: 2
Fore
SplineSet
197 -395 m 1,0,-1
 197 1086 l 1,1,-1
 394 1086 l 1,2,-1
 394 887 l 1,3,4
 588 1110 588 1110 815 1110 c 0,5,6
 957 1110 957 1110 1052 1016 c 128,-1,7
 1147 922 1147 922 1147 779 c 0,8,9
 1147 563 1147 563 952 355 c 128,-1,10
 757 147 757 147 394 -23 c 1,11,-1
 394 -395 l 1,12,-1
 197 -395 l 1,0,-1
394 136 m 1,13,-1
 441 164 l 2,14,15
 937 455 937 455 937 742 c 0,16,17
 937 925 937 925 753 925 c 0,18,19
 572 925 572 925 394 726 c 1,20,-1
 394 136 l 1,13,-1
EndSplineSet
Validated: 1
EndChar

StartChar: pipe
Encoding: 448 448 430
Width: 580
GlyphClass: 2
Flags: W
LayerCount: 2
Fore
SplineSet
222 0 m 1,0,-1
 222 1579 l 1,1,-1
 358 1579 l 1,2,-1
 358 0 l 1,3,-1
 222 0 l 1,0,-1
EndSplineSet
Validated: 1
EndChar

StartChar: pipedbl
Encoding: 449 449 431
Width: 913
GlyphClass: 2
Flags: W
LayerCount: 2
Fore
SplineSet
222 0 m 1,0,-1
 222 1579 l 1,1,-1
 358 1579 l 1,2,-1
 358 0 l 1,3,-1
 222 0 l 1,0,-1
555 0 m 1,4,-1
 555 1579 l 1,5,-1
 691 1579 l 1,6,-1
 691 0 l 1,7,-1
 555 0 l 1,4,-1
EndSplineSet
Validated: 1
EndChar

StartChar: pipedblbar
Encoding: 450 450 432
Width: 1320
GlyphClass: 2
Flags: W
LayerCount: 2
Fore
SplineSet
728 518 m 1,0,-1
 728 0 l 1,1,-1
 592 0 l 1,2,-1
 592 518 l 1,3,-1
 148 518 l 1,4,-1
 148 641 l 1,5,-1
 592 641 l 1,6,-1
 592 938 l 1,7,-1
 148 938 l 1,8,-1
 148 1061 l 1,9,-1
 592 1061 l 1,10,-1
 592 1579 l 1,11,-1
 728 1579 l 1,12,-1
 728 1061 l 1,13,-1
 1172 1061 l 1,14,-1
 1172 938 l 1,15,-1
 728 938 l 1,16,-1
 728 641 l 1,17,-1
 1172 641 l 1,18,-1
 1172 518 l 1,19,-1
 728 518 l 1,0,-1
EndSplineSet
Validated: 1
EndChar

StartChar: exclam1
Encoding: 451 451 433
Width: 648
GlyphClass: 2
Flags: W
LayerCount: 2
Fore
SplineSet
225 0 m 1,0,-1
 225 197 l 1,1,-1
 422 197 l 1,2,-1
 422 0 l 1,3,-1
 225 0 l 1,0,-1
250 395 m 1,4,-1
 225 1184 l 1,5,-1
 225 1480 l 1,6,-1
 422 1480 l 1,7,-1
 422 1184 l 1,8,-1
 398 395 l 1,9,-1
 250 395 l 1,4,-1
EndSplineSet
Validated: 1
EndChar

StartChar: eturn
Encoding: 477 477 459
Width: 1141
GlyphClass: 2
Flags: W
LayerCount: 2
Fore
SplineSet
151 1050 m 1,0,1
 348 1110 348 1110 489 1110 c 0,2,3
 730 1110 730 1110 881 951 c 128,-1,4
 1032 792 1032 792 1032 538 c 0,5,6
 1032 291 1032 291 899 133 c 128,-1,7
 766 -25 766 -25 557 -25 c 0,8,9
 360 -25 360 -25 252.5 115 c 128,-1,10
 145 255 145 255 145 513 c 1,11,-1
 146 574 l 1,12,-1
 831 574 l 1,13,14
 789 961 789 961 452 961 c 0,15,16
 329 961 329 961 151 895 c 1,17,-1
 151 1050 l 1,0,1
822 426 m 1,18,-1
 343 426 l 1,19,20
 343 123 343 123 570 123 c 0,21,22
 796 123 796 123 822 426 c 1,18,-1
EndSplineSet
Validated: 1
EndChar

StartChar: Gbar
Encoding: 484 484 466
Width: 1649
GlyphClass: 2
Flags: W
LayerCount: 2
Fore
SplineSet
1303 40 m 1,0,1
 1034 -37 1034 -37 834 -37 c 0,2,3
 481 -37 481 -37 292.5 163.5 c 128,-1,4
 104 364 104 364 104 740 c 0,5,6
 104 1110 104 1110 295.5 1313.5 c 128,-1,7
 487 1517 487 1517 834 1517 c 0,8,9
 1057 1517 1057 1517 1301 1450 c 1,10,-1
 1301 1256 l 1,11,12
 995 1360 995 1360 832 1360 c 0,13,14
 592 1360 592 1360 459.5 1197.5 c 128,-1,15
 327 1035 327 1035 327 739 c 0,16,17
 327 446 327 446 469 283 c 128,-1,18
 611 120 611 120 867 120 c 0,19,20
 972 120 972 120 1094 157 c 1,21,-1
 1094 354 l 1,22,-1
 847 354 l 1,23,-1
 847 511 l 1,24,-1
 1094 511 l 1,25,-1
 1094 734 l 1,26,-1
 1303 734 l 1,27,-1
 1303 511 l 1,28,-1
 1550 511 l 1,29,-1
 1550 354 l 1,30,-1
 1303 354 l 1,31,-1
 1303 40 l 1,0,1
EndSplineSet
Validated: 1
EndChar

StartChar: gbar
Encoding: 485 485 467
Width: 1437
GlyphClass: 2
Flags: W
LayerCount: 2
Fore
SplineSet
201 -361 m 1,0,-1
 224 -190 l 1,1,2
 395 -271 395 -271 562 -271 c 0,3,4
 894 -271 894 -271 894 82 c 2,5,-1
 894 253 l 1,6,7
 843 145 843 145 748.5 85 c 128,-1,8
 654 25 654 25 538 25 c 0,9,10
 341 25 341 25 226 166.5 c 128,-1,11
 111 308 111 308 111 550 c 0,12,13
 111 798 111 798 242 954 c 128,-1,14
 373 1110 373 1110 581 1110 c 0,15,16
 763 1110 763 1110 894 962 c 1,17,-1
 894 1086 l 1,18,-1
 1092 1086 l 1,19,-1
 1092 669 l 1,20,-1
 1339 669 l 1,21,-1
 1339 546 l 1,22,-1
 1092 546 l 1,23,-1
 1092 296 l 2,24,25
 1092 41 1092 41 1065.5 -81.5 c 128,-1,26
 1039 -204 1039 -204 966 -282 c 0,27,28
 837 -419 837 -419 563 -419 c 0,29,30
 375 -419 375 -419 201 -361 c 1,0,-1
894 376 m 1,31,-1
 894 546 l 1,32,-1
 623 546 l 1,33,-1
 623 669 l 1,34,-1
 894 669 l 1,35,-1
 894 827 l 1,36,37
 764 962 764 962 611 962 c 0,38,39
 475 962 475 962 398 853 c 128,-1,40
 321 744 321 744 321 551 c 0,41,42
 321 197 321 197 572 197 c 0,43,44
 743 197 743 197 894 376 c 1,31,-1
EndSplineSet
Validated: 1
EndChar

StartChar: jhacek
Encoding: 496 496 478
Width: 623
GlyphClass: 2
Flags: W
LayerCount: 2
Fore
SplineSet
-153 -369 m 1,0,-1
 -153 -213 l 1,1,2
 -15 -271 -15 -271 57 -271 c 0,3,4
 139 -271 139 -271 184 -227 c 0,5,6
 214 -197 214 -197 221.5 -159 c 128,-1,7
 229 -121 229 -121 229 0 c 2,8,-1
 229 1086 l 1,9,-1
 427 1086 l 1,10,-1
 427 0 l 2,11,12
 427 -419 427 -419 73 -419 c 0,13,14
 -32 -419 -32 -419 -153 -369 c 1,0,-1
678 1604 m 1,15,-1
 437 1283 l 1,16,-1
 219 1283 l 1,17,-1
 -22 1604 l 1,18,-1
 126 1604 l 1,19,-1
 328 1402 l 1,20,-1
 530 1604 l 1,21,-1
 678 1604 l 1,15,-1
EndSplineSet
Validated: 1
EndChar

StartChar: aturn
Encoding: 592 592 479
Width: 1131
GlyphClass: 2
Flags: W
LayerCount: 2
Fore
SplineSet
373 948 m 1,0,1
 551 1110 551 1110 715 1110 c 0,2,3
 850 1110 850 1110 938.5 1025.5 c 128,-1,4
 1027 941 1027 941 1027 813 c 0,5,6
 1027 634 1027 634 877.5 538.5 c 128,-1,7
 728 443 728 443 449 443 c 1,8,-1
 402 444 l 1,9,-1
 402 312 l 2,10,11
 402 123 402 123 599 123 c 0,12,13
 752 123 752 123 933 220 c 1,14,-1
 933 57 l 1,15,16
 735 -25 735 -25 558 -25 c 0,17,18
 378 -25 378 -25 291.5 57.5 c 128,-1,19
 205 140 205 140 205 313 c 2,20,-1
 205 805 l 2,21,22
 205 973 205 973 101 973 c 0,23,24
 88 973 88 973 63 970 c 1,25,-1
 49 1079 l 1,26,27
 117 1110 117 1110 197 1110 c 0,28,29
 335 1110 335 1110 373 948 c 1,0,1
402 840 m 1,30,-1
 402 559 l 1,31,-1
 466 558 l 2,32,33
 629 558 629 558 729.5 619 c 128,-1,34
 830 680 830 680 830 780 c 0,35,36
 830 852 830 852 780.5 901 c 128,-1,37
 731 950 731 950 658 950 c 0,38,39
 536 950 536 950 402 840 c 1,30,-1
EndSplineSet
Validated: 1
EndChar

StartChar: ascript
Encoding: 593 593 480
Width: 1246
GlyphClass: 2
Flags: W
LayerCount: 2
Fore
SplineSet
851 322 m 1,0,1
 780 168 780 168 660 71.5 c 128,-1,2
 540 -25 540 -25 419 -25 c 0,3,4
 284 -25 284 -25 197.5 93.5 c 128,-1,5
 111 212 111 212 111 398 c 0,6,7
 111 713 111 713 322 945 c 0,8,9
 473 1110 473 1110 685 1110 c 0,10,11
 773 1110 773 1110 851 1086 c 1,12,-1
 1049 1086 l 1,13,-1
 1049 0 l 1,14,-1
 851 0 l 1,15,-1
 851 322 l 1,0,1
851 948 m 1,16,17
 786 981 786 981 707 981 c 0,18,19
 549 981 549 981 435 821 c 128,-1,20
 321 661 321 661 321 438 c 0,21,22
 321 160 321 160 495 160 c 0,23,24
 577 160 577 160 672.5 259.5 c 128,-1,25
 768 359 768 359 851 530 c 1,26,-1
 851 948 l 1,16,17
EndSplineSet
Validated: 1
EndChar

StartChar: ascriptturn
Encoding: 594 594 481
Width: 1246
GlyphClass: 2
Flags: W
LayerCount: 2
Fore
SplineSet
394 764 m 1,0,1
 466 918 466 918 586 1014.5 c 128,-1,2
 706 1111 706 1111 827 1111 c 0,3,4
 962 1111 962 1111 1048.5 992.5 c 128,-1,5
 1135 874 1135 874 1135 688 c 0,6,7
 1135 373 1135 373 924 141 c 0,8,9
 773 -25 773 -25 561 -25 c 0,10,11
 473 -25 473 -25 394 0 c 1,12,-1
 197 0 l 1,13,-1
 197 1086 l 1,14,-1
 394 1086 l 1,15,-1
 394 764 l 1,0,1
394 138 m 1,16,17
 460 105 460 105 539 105 c 0,18,19
 697 105 697 105 811 265 c 128,-1,20
 925 425 925 425 925 647 c 0,21,22
 925 925 925 925 751 925 c 0,23,24
 669 925 669 925 573 826 c 128,-1,25
 477 727 477 727 394 556 c 1,26,-1
 394 138 l 1,16,17
EndSplineSet
Validated: 1
EndChar

StartChar: bhook
Encoding: 595 595 482
Width: 1289
GlyphClass: 2
Flags: W
LayerCount: 2
Fore
SplineSet
197 -12 m 1,0,-1
 197 984 l 2,1,2
 197 1604 197 1604 698 1604 c 0,3,4
 829 1604 829 1604 962 1562 c 1,5,-1
 962 1389 l 1,6,7
 828 1456 828 1456 687 1456 c 0,8,9
 529 1456 529 1456 461.5 1339 c 128,-1,10
 394 1222 394 1222 394 947 c 2,11,-1
 394 882 l 1,12,13
 515 1110 515 1110 757 1110 c 0,14,15
 953 1110 953 1110 1065.5 967 c 128,-1,16
 1178 824 1178 824 1178 576 c 0,17,18
 1178 306 1178 306 1050.5 140.5 c 128,-1,19
 923 -25 923 -25 715 -25 c 0,20,21
 522 -25 522 -25 394 123 c 1,22,-1
 370 -12 l 1,23,-1
 197 -12 l 1,0,-1
394 259 m 1,24,25
 546 123 546 123 685 123 c 0,26,27
 820 123 820 123 894 236.5 c 128,-1,28
 968 350 968 350 968 556 c 0,29,30
 968 938 968 938 715 938 c 0,31,32
 551 938 551 938 394 759 c 1,33,-1
 394 259 l 1,24,25
EndSplineSet
Validated: 1
EndChar

StartChar: cturn
Encoding: 596 596 483
Width: 1049
GlyphClass: 2
Flags: W
LayerCount: 2
Fore
SplineSet
98 1053 m 1,0,1
 289 1110 289 1110 428 1110 c 0,2,3
 648 1110 648 1110 793 947 c 128,-1,4
 938 784 938 784 938 537 c 0,5,6
 938 271 938 271 794.5 123 c 128,-1,7
 651 -25 651 -25 393 -25 c 0,8,9
 266 -25 266 -25 109 11 c 1,10,-1
 109 176 l 1,11,12
 277 126 277 126 382 126 c 0,13,14
 533 126 533 126 624 239.5 c 128,-1,15
 715 353 715 353 715 542 c 0,16,17
 715 726 715 726 621.5 839 c 128,-1,18
 528 952 528 952 376 952 c 0,19,20
 241 952 241 952 98 883 c 1,21,-1
 98 1053 l 1,0,1
EndSplineSet
Validated: 1
EndChar

StartChar: ccurl
Encoding: 597 597 484
Width: 1141
GlyphClass: 2
Flags: W
LayerCount: 2
Fore
SplineSet
938 1078 m 1,0,-1
 938 913 l 1,1,2
 802 962 802 962 664 962 c 0,3,4
 503 962 503 962 412 856.5 c 128,-1,5
 321 751 321 751 321 565 c 0,6,7
 321 391 321 391 406 279 c 1,8,9
 486 385 486 385 598.5 448.5 c 128,-1,10
 711 512 711 512 819 512 c 0,11,12
 931 512 931 512 1005 445.5 c 128,-1,13
 1079 379 1079 379 1079 279 c 0,14,15
 1079 150 1079 150 967.5 62.5 c 128,-1,16
 856 -25 856 -25 690 -25 c 0,17,18
 546 -25 546 -25 424 39 c 1,19,20
 370 -79 370 -79 370 -197 c 1,21,-1
 220 -197 l 1,22,23
 220 -21 220 -21 300 121 c 1,24,25
 111 283 111 283 111 561 c 0,26,27
 111 820 111 820 262 965 c 128,-1,28
 413 1110 413 1110 681 1110 c 0,29,30
 821 1110 821 1110 938 1078 c 1,0,-1
516 182 m 1,31,32
 608 123 608 123 705 123 c 0,33,34
 794 123 794 123 863 170 c 128,-1,35
 932 217 932 217 932 279 c 0,36,37
 932 364 932 364 818 364 c 0,38,39
 671 364 671 364 516 182 c 1,31,32
EndSplineSet
Validated: 1
EndChar

StartChar: drthook
Encoding: 598 598 485
Width: 1289
GlyphClass: 2
Flags: W
LayerCount: 2
Fore
SplineSet
894 827 m 1,0,1
 741 962 741 962 604 962 c 0,2,3
 469 962 469 962 395 849 c 128,-1,4
 321 736 321 736 321 529 c 0,5,6
 321 148 321 148 573 148 c 0,7,8
 737 148 737 148 894 327 c 1,9,-1
 894 827 l 1,0,1
894 204 m 1,10,11
 774 -25 774 -25 532 -25 c 0,12,13
 336 -25 336 -25 223.5 118 c 128,-1,14
 111 261 111 261 111 509 c 0,15,16
 111 780 111 780 238.5 945 c 128,-1,17
 366 1110 366 1110 574 1110 c 0,18,19
 767 1110 767 1110 894 962 c 1,20,-1
 894 1579 l 1,21,-1
 1092 1579 l 1,22,-1
 1092 -55 l 2,23,24
 1092 -173 1092 -173 1125.5 -222.5 c 128,-1,25
 1159 -272 1159 -272 1239 -272 c 0,26,27
 1301 -272 1301 -272 1363 -245 c 1,28,-1
 1363 -399 l 1,29,30
 1289 -420 1289 -420 1216 -420 c 0,31,32
 1064 -420 1064 -420 979 -333 c 128,-1,33
 894 -246 894 -246 894 -92 c 2,34,-1
 894 204 l 1,10,11
EndSplineSet
Validated: 1
EndChar

StartChar: dhook
Encoding: 599 599 486
Width: 1289
GlyphClass: 2
Flags: W
LayerCount: 2
Fore
SplineSet
894 827 m 1,0,1
 741 962 741 962 604 962 c 0,2,3
 469 962 469 962 395 849 c 128,-1,4
 321 736 321 736 321 529 c 0,5,6
 321 148 321 148 573 148 c 0,7,8
 737 148 737 148 894 327 c 1,9,-1
 894 827 l 1,0,1
894 962 m 1,10,-1
 894 1276 l 2,11,12
 894 1431 894 1431 979 1517.5 c 128,-1,13
 1064 1604 1064 1604 1216 1604 c 0,14,15
 1289 1604 1289 1604 1363 1583 c 1,16,-1
 1363 1429 l 1,17,18
 1301 1456 1301 1456 1238 1456 c 0,19,20
 1159 1456 1159 1456 1125.5 1406.5 c 128,-1,21
 1092 1357 1092 1357 1092 1239 c 2,22,-1
 1092 0 l 1,23,-1
 894 0 l 1,24,-1
 894 204 l 1,25,26
 774 -25 774 -25 532 -25 c 0,27,28
 336 -25 336 -25 223.5 118 c 128,-1,29
 111 261 111 261 111 509 c 0,30,31
 111 780 111 780 238.5 945 c 128,-1,32
 366 1110 366 1110 574 1110 c 0,33,34
 767 1110 767 1110 894 962 c 1,10,-1
EndSplineSet
Validated: 1
EndChar

StartChar: erev
Encoding: 600 600 487
Width: 1141
GlyphClass: 2
Flags: W
LayerCount: 2
Fore
SplineSet
150 35 m 1,0,-1
 150 191 l 1,1,2
 328 125 328 125 452 125 c 0,3,4
 788 125 788 125 830 512 c 1,5,-1
 145 512 l 1,6,-1
 145 573 l 2,7,8
 145 831 145 831 252 971 c 128,-1,9
 359 1111 359 1111 557 1111 c 0,10,11
 765 1111 765 1111 898 953 c 128,-1,12
 1031 795 1031 795 1031 548 c 0,13,14
 1031 294 1031 294 880 134.5 c 128,-1,15
 729 -25 729 -25 488 -25 c 0,16,17
 347 -25 347 -25 150 35 c 1,0,-1
821 660 m 1,18,19
 795 963 795 963 569 963 c 0,20,21
 342 963 342 963 342 660 c 1,22,-1
 821 660 l 1,18,19
EndSplineSet
Validated: 1
EndChar

StartChar: schwahook
Encoding: 602 602 489
Width: 1616
GlyphClass: 2
Flags: W
LayerCount: 2
Fore
SplineSet
142 1051 m 1,0,1
 355 1110 355 1110 475 1110 c 0,2,3
 673 1110 673 1110 798 1018.5 c 128,-1,4
 923 927 923 927 995 731 c 1,5,-1
 1388 836 l 1,6,-1
 1388 616 l 2,7,8
 1388 491 1388 491 1412 446 c 128,-1,9
 1436 401 1436 401 1502 401 c 0,10,11
 1546 401 1546 401 1604 434 c 1,12,-1
 1604 280 l 1,13,14
 1514 253 1514 253 1467 253 c 0,15,16
 1240 253 1240 253 1240 568 c 2,17,-1
 1240 643 l 1,18,-1
 1023 583 l 1,19,-1
 1024 533 l 1,20,21
 1024 289 1024 289 892.5 132 c 128,-1,22
 761 -25 761 -25 556 -25 c 0,23,24
 363 -25 363 -25 252.5 115 c 128,-1,25
 142 255 142 255 142 498 c 1,26,-1
 808 678 l 1,27,28
 730 963 730 963 444 963 c 0,29,30
 323 963 323 963 142 895 c 1,31,-1
 142 1051 l 1,0,1
823 528 m 1,32,-1
 336 396 l 1,33,-1
 341 351 l 2,34,35
 367 123 367 123 563 123 c 0,36,37
 823 123 823 123 823 528 c 1,32,-1
EndSplineSet
Validated: 1
EndChar

StartChar: epsilon1
Encoding: 603 603 490
Width: 975
GlyphClass: 2
Flags: W
LayerCount: 2
Fore
SplineSet
851 193 m 1,0,-1
 851 34 l 1,1,2
 692 -25 692 -25 545 -25 c 0,3,4
 360 -25 360 -25 235.5 70 c 128,-1,5
 111 165 111 165 111 306 c 0,6,7
 111 405 111 405 184 488 c 128,-1,8
 257 571 257 571 374 604 c 1,9,10
 173 707 173 707 173 854 c 0,11,12
 173 975 173 975 275 1042.5 c 128,-1,13
 377 1110 377 1110 560 1110 c 0,14,15
 736 1110 736 1110 827 1075 c 1,16,-1
 827 927 l 1,17,-1
 816 929 l 1,18,19
 691 963 691 963 567 963 c 0,20,21
 472 963 472 963 415 928 c 128,-1,22
 358 893 358 893 358 835 c 0,23,24
 358 748 358 748 450.5 701 c 128,-1,25
 543 654 543 654 713 654 c 2,26,-1
 740 654 l 1,27,-1
 740 506 l 1,28,-1
 600 506 l 2,29,30
 473 506 473 506 390.5 451.5 c 128,-1,31
 308 397 308 397 308 312 c 0,32,33
 308 225 308 225 379.5 174 c 128,-1,34
 451 123 451 123 573 123 c 0,35,36
 698 123 698 123 836 187 c 1,37,-1
 851 193 l 1,0,-1
EndSplineSet
Validated: 1
EndChar

StartChar: epsilon1rev
Encoding: 604 604 491
Width: 975
GlyphClass: 2
Flags: W
LayerCount: 2
Fore
SplineSet
123 193 m 1,0,-1
 138 187 l 1,1,2
 276 123 276 123 402 123 c 0,3,4
 523 123 523 123 594.5 173.5 c 128,-1,5
 666 224 666 224 666 310 c 256,6,7
 666 396 666 396 584.5 451 c 128,-1,8
 503 506 503 506 374 506 c 2,9,-1
 234 506 l 1,10,-1
 234 654 l 1,11,-1
 261 654 l 2,12,13
 617 654 617 654 617 835 c 0,14,15
 617 962 617 962 403 962 c 0,16,17
 283 962 283 962 158 929 c 1,18,-1
 148 927 l 1,19,-1
 148 1075 l 1,20,21
 238 1110 238 1110 414 1110 c 0,22,23
 597 1110 597 1110 699.5 1042.5 c 128,-1,24
 802 975 802 975 802 854 c 0,25,26
 802 707 802 707 600 604 c 1,27,28
 717 571 717 571 790 488 c 128,-1,29
 863 405 863 405 863 306 c 0,30,31
 863 165 863 165 739 70 c 128,-1,32
 615 -25 615 -25 429 -25 c 0,33,34
 283 -25 283 -25 123 34 c 1,35,-1
 123 193 l 1,0,-1
EndSplineSet
Validated: 1
EndChar

StartChar: epsilon1revhook
Encoding: 605 605 492
Width: 1366
GlyphClass: 2
Flags: W
LayerCount: 2
Fore
SplineSet
123 193 m 1,0,-1
 138 187 l 1,1,2
 276 123 276 123 402 123 c 0,3,4
 523 123 523 123 594.5 173.5 c 128,-1,5
 666 224 666 224 666 310 c 256,6,7
 666 396 666 396 584.5 451 c 128,-1,8
 503 506 503 506 374 506 c 2,9,-1
 234 506 l 1,10,-1
 234 654 l 1,11,-1
 261 654 l 2,12,13
 617 654 617 654 617 835 c 0,14,15
 617 962 617 962 403 962 c 0,16,17
 283 962 283 962 158 929 c 1,18,-1
 148 927 l 1,19,-1
 148 1075 l 1,20,21
 238 1110 238 1110 415 1110 c 0,22,23
 640 1110 640 1110 744 1005 c 1,24,-1
 1137 1110 l 1,25,-1
 1137 890 l 2,26,27
 1137 765 1137 765 1161 720 c 128,-1,28
 1185 675 1185 675 1251 675 c 0,29,30
 1295 675 1295 675 1353 708 c 1,31,-1
 1353 554 l 1,32,33
 1264 527 1264 527 1216 527 c 0,34,35
 989 527 989 527 989 842 c 2,36,-1
 989 918 l 1,37,-1
 801 865 l 1,38,-1
 802 850 l 1,39,40
 802 707 802 707 600 604 c 1,41,42
 717 571 717 571 790 488 c 128,-1,43
 863 405 863 405 863 306 c 0,44,45
 863 165 863 165 739 70 c 128,-1,46
 615 -25 615 -25 429 -25 c 0,47,48
 283 -25 283 -25 123 34 c 1,49,-1
 123 193 l 1,0,-1
EndSplineSet
Validated: 1
EndChar

StartChar: epsilon1revclosed
Encoding: 606 606 493
Width: 1184
GlyphClass: 2
Flags: W
LayerCount: 2
Fore
SplineSet
880 581 m 1,0,1
 1086 495 1086 495 1086 319 c 0,2,3
 1086 165 1086 165 960 70 c 128,-1,4
 834 -25 834 -25 630 -25 c 0,5,6
 385 -25 385 -25 248 120 c 128,-1,7
 111 265 111 265 111 524 c 0,8,9
 111 798 111 798 254.5 954 c 128,-1,10
 398 1110 398 1110 651 1110 c 0,11,12
 846 1110 846 1110 959.5 1036 c 128,-1,13
 1073 962 1073 962 1073 835 c 0,14,15
 1073 755 1073 755 1020 685 c 128,-1,16
 967 615 967 615 880 581 c 1,0,1
493 493 m 1,17,-1
 493 642 l 1,18,-1
 595 642 l 2,19,20
 739 642 739 642 817 685 c 128,-1,21
 895 728 895 728 895 808 c 0,22,23
 895 876 895 876 822.5 919 c 128,-1,24
 750 962 750 962 636 962 c 0,25,26
 463 962 463 962 364 845.5 c 128,-1,27
 265 729 265 729 265 527 c 0,28,29
 265 333 265 333 359.5 228 c 128,-1,30
 454 123 454 123 627 123 c 0,31,32
 743 123 743 123 815.5 179 c 128,-1,33
 888 235 888 235 888 324 c 0,34,35
 888 493 888 493 599 493 c 2,36,-1
 493 493 l 1,17,-1
EndSplineSet
Validated: 1
EndChar

StartChar: jdotlessbar
Encoding: 607 607 494
Width: 808
GlyphClass: 2
Flags: W
LayerCount: 2
Fore
SplineSet
-73 -213 m 1,0,1
 65 -271 65 -271 137 -271 c 0,2,3
 219 -271 219 -271 264 -227 c 0,4,5
 294 -197 294 -197 301.5 -159 c 128,-1,6
 309 -121 309 -121 309 0 c 2,7,-1
 309 543 l 1,8,-1
 63 543 l 1,9,-1
 63 691 l 1,10,-1
 309 691 l 1,11,-1
 309 1086 l 1,12,-1
 507 1086 l 1,13,-1
 507 691 l 1,14,-1
 754 691 l 1,15,-1
 754 543 l 1,16,-1
 507 543 l 1,17,-1
 507 0 l 2,18,19
 507 -419 507 -419 153 -419 c 0,20,21
 48 -419 48 -419 -73 -369 c 1,22,-1
 -73 -213 l 1,0,1
EndSplineSet
Validated: 1
EndChar

StartChar: ghook
Encoding: 608 608 495
Width: 1277
GlyphClass: 2
Flags: W
LayerCount: 2
Fore
SplineSet
1369 1583 m 1,0,-1
 1369 1435 l 1,1,2
 1316 1456 1316 1456 1258 1456 c 0,3,4
 1154 1456 1154 1456 1123 1414.5 c 128,-1,5
 1092 1373 1092 1373 1092 1234 c 2,6,-1
 1092 296 l 2,7,8
 1092 41 1092 41 1065.5 -81.5 c 128,-1,9
 1039 -204 1039 -204 966 -282 c 0,10,11
 837 -419 837 -419 563 -419 c 0,12,13
 375 -419 375 -419 201 -361 c 1,14,-1
 224 -190 l 1,15,16
 395 -271 395 -271 562 -271 c 0,17,18
 894 -271 894 -271 894 82 c 2,19,-1
 894 253 l 1,20,21
 843 145 843 145 748.5 85 c 128,-1,22
 654 25 654 25 538 25 c 0,23,24
 341 25 341 25 226 166.5 c 128,-1,25
 111 308 111 308 111 550 c 0,26,27
 111 798 111 798 242 954 c 128,-1,28
 373 1110 373 1110 581 1110 c 0,29,30
 763 1110 763 1110 894 962 c 1,31,-1
 894 1261 l 2,32,33
 894 1604 894 1604 1229 1604 c 0,34,35
 1298 1604 1298 1604 1369 1583 c 1,0,-1
894 376 m 1,36,-1
 894 827 l 1,37,38
 764 962 764 962 611 962 c 0,39,40
 475 962 475 962 398 853 c 128,-1,41
 321 744 321 744 321 551 c 0,42,43
 321 197 321 197 572 197 c 0,44,45
 743 197 743 197 894 376 c 1,36,-1
EndSplineSet
Validated: 1
EndChar

StartChar: gcursive
Encoding: 609 609 496
Width: 1277
GlyphClass: 2
Flags: W
LayerCount: 2
Fore
SplineSet
201 -361 m 1,0,-1
 224 -190 l 1,1,2
 395 -271 395 -271 562 -271 c 0,3,4
 894 -271 894 -271 894 82 c 2,5,-1
 894 253 l 1,6,7
 843 145 843 145 748.5 85 c 128,-1,8
 654 25 654 25 538 25 c 0,9,10
 341 25 341 25 226 166.5 c 128,-1,11
 111 308 111 308 111 550 c 0,12,13
 111 798 111 798 242 954 c 128,-1,14
 373 1110 373 1110 581 1110 c 0,15,16
 763 1110 763 1110 894 962 c 1,17,-1
 894 1086 l 1,18,-1
 1092 1086 l 1,19,-1
 1092 296 l 2,20,21
 1092 41 1092 41 1065.5 -81.5 c 128,-1,22
 1039 -204 1039 -204 966 -282 c 0,23,24
 837 -419 837 -419 563 -419 c 0,25,26
 375 -419 375 -419 201 -361 c 1,0,-1
894 376 m 1,27,-1
 894 827 l 1,28,29
 764 962 764 962 611 962 c 0,30,31
 475 962 475 962 398 853 c 128,-1,32
 321 744 321 744 321 551 c 0,33,34
 321 197 321 197 572 197 c 0,35,36
 743 197 743 197 894 376 c 1,27,-1
EndSplineSet
Validated: 1
EndChar

StartChar: Gsmallcap
Encoding: 610 610 497
Width: 1201
GlyphClass: 2
Flags: W
LayerCount: 2
Fore
SplineSet
1051 29 m 1,0,1
 837 -25 837 -25 684 -25 c 0,2,3
 407 -25 407 -25 259 122 c 128,-1,4
 111 269 111 269 111 543 c 0,5,6
 111 814 111 814 261 962 c 128,-1,7
 411 1110 411 1110 685 1110 c 0,8,9
 857 1110 857 1110 1049 1066 c 1,10,-1
 1049 911 l 1,11,12
 823 962 823 962 699 962 c 0,13,14
 515 962 515 962 416.5 852 c 128,-1,15
 318 742 318 742 318 536 c 0,16,17
 318 334 318 334 415.5 223.5 c 128,-1,18
 513 113 513 113 691 113 c 0,19,20
 757 113 757 113 853 128 c 1,21,-1
 853 470 l 1,22,-1
 1051 470 l 1,23,-1
 1051 29 l 1,0,1
EndSplineSet
Validated: 1
EndChar

StartChar: gamma1
Encoding: 611 611 498
Width: 1105
GlyphClass: 2
Flags: W
LayerCount: 2
Fore
SplineSet
668 357 m 1,0,1
 827 68 827 68 827 -109 c 0,2,3
 827 -243 827 -243 742.5 -331 c 128,-1,4
 658 -419 658 -419 529 -419 c 0,5,6
 409 -419 409 -419 334.5 -342.5 c 128,-1,7
 260 -266 260 -266 260 -143 c 0,8,9
 260 81 260 81 458 338 c 1,10,11
 322 640 322 640 221.5 771 c 128,-1,12
 121 902 121 902 0 934 c 1,13,-1
 93 1086 l 1,14,15
 220 1059 220 1059 331 931.5 c 128,-1,16
 442 804 442 804 570 540 c 1,17,-1
 589 499 l 1,18,19
 766 732 766 732 827.5 842 c 128,-1,20
 889 952 889 952 889 1033 c 0,21,22
 889 1057 889 1057 880 1086 c 1,23,-1
 1064 1086 l 1,24,25
 1068 1059 1068 1059 1068 1043 c 0,26,27
 1068 953 1068 953 999.5 832.5 c 128,-1,28
 931 712 931 712 715 420 c 2,29,-1
 668 357 l 1,0,1
542 219 m 1,30,31
 414 54 414 54 414 -116 c 0,32,33
 414 -192 414 -192 449 -238 c 128,-1,34
 484 -284 484 -284 541 -284 c 0,35,36
 648 -284 648 -284 648 -152 c 0,37,38
 648 -32 648 -32 542 219 c 1,30,31
EndSplineSet
Validated: 1
EndChar

StartChar: babygamma
Encoding: 612 612 499
Width: 1092
GlyphClass: 2
Flags: W
LayerCount: 2
Fore
SplineSet
550 757 m 1,0,1
 790 1092 790 1092 1009 1092 c 0,2,3
 1023 1092 1023 1092 1042 1090 c 1,4,-1
 1042 951 l 1,5,6
 1030 952 1030 952 1021 952 c 0,7,8
 951 952 951 952 847.5 868 c 128,-1,9
 744 784 744 784 641 643 c 1,10,-1
 658 617 l 1,11,12
 814 387 814 387 814 258 c 0,13,14
 814 141 814 141 724.5 58 c 128,-1,15
 635 -25 635 -25 509 -25 c 0,16,17
 392 -25 392 -25 310 47.5 c 128,-1,18
 228 120 228 120 228 224 c 0,19,20
 228 362 228 362 426 627 c 1,21,22
 219 931 219 931 91 931 c 0,23,24
 73 931 73 931 49 924 c 1,25,-1
 49 1073 l 1,26,27
 98 1092 98 1092 133 1092 c 0,28,29
 303 1092 303 1092 550 757 c 1,0,1
507 520 m 1,30,31
 376 366 376 366 376 239 c 0,32,33
 376 183 376 183 413 147 c 128,-1,34
 450 111 450 111 507 111 c 0,35,36
 563 111 563 111 602 149.5 c 128,-1,37
 641 188 641 188 641 242 c 0,38,39
 641 288 641 288 599 376 c 128,-1,40
 557 464 557 464 507 520 c 1,30,31
EndSplineSet
Validated: 1
EndChar

StartChar: hturn
Encoding: 613 613 500
Width: 1271
GlyphClass: 2
Flags: W
LayerCount: 2
Fore
SplineSet
1073 1086 m 1,0,-1
 1073 -395 l 1,1,-1
 876 -395 l 1,2,-1
 876 204 l 1,3,4
 720 -25 720 -25 495 -25 c 0,5,6
 353 -25 353 -25 269 64.5 c 128,-1,7
 185 154 185 154 185 306 c 2,8,-1
 185 1086 l 1,9,-1
 382 1086 l 1,10,-1
 382 370 l 2,11,12
 382 248 382 248 417.5 196.5 c 128,-1,13
 453 145 453 145 536 145 c 0,14,15
 717 145 717 145 876 382 c 1,16,-1
 876 1086 l 1,17,-1
 1073 1086 l 1,0,-1
EndSplineSet
Validated: 1
EndChar

StartChar: hhook
Encoding: 614 614 501
Width: 1271
GlyphClass: 2
Flags: W
LayerCount: 2
Fore
SplineSet
197 0 m 1,0,-1
 197 984 l 2,1,2
 197 1604 197 1604 698 1604 c 0,3,4
 829 1604 829 1604 962 1562 c 1,5,-1
 962 1389 l 1,6,7
 828 1456 828 1456 687 1456 c 0,8,9
 529 1456 529 1456 461.5 1339 c 128,-1,10
 394 1222 394 1222 394 947 c 2,11,-1
 394 882 l 1,12,13
 550 1110 550 1110 776 1110 c 0,14,15
 918 1110 918 1110 1001.5 1020.5 c 128,-1,16
 1085 931 1085 931 1085 780 c 2,17,-1
 1085 0 l 1,18,-1
 888 0 l 1,19,-1
 888 716 l 2,20,21
 888 837 888 837 852.5 888.5 c 128,-1,22
 817 940 817 940 735 940 c 0,23,24
 554 940 554 940 394 703 c 1,25,-1
 394 0 l 1,26,-1
 197 0 l 1,0,-1
EndSplineSet
Validated: 1
EndChar

StartChar: henghook
Encoding: 615 615 502
Width: 1271
GlyphClass: 2
Flags: W
LayerCount: 2
Fore
SplineSet
197 0 m 1,0,-1
 197 984 l 2,1,2
 197 1604 197 1604 698 1604 c 0,3,4
 829 1604 829 1604 962 1562 c 1,5,-1
 962 1389 l 1,6,7
 828 1456 828 1456 687 1456 c 0,8,9
 529 1456 529 1456 461.5 1339 c 128,-1,10
 394 1222 394 1222 394 947 c 2,11,-1
 394 882 l 1,12,13
 550 1110 550 1110 776 1110 c 0,14,15
 918 1110 918 1110 1001.5 1020.5 c 128,-1,16
 1085 931 1085 931 1085 780 c 2,17,-1
 1085 -92 l 2,18,19
 1085 -246 1085 -246 1000.5 -333 c 128,-1,20
 916 -420 916 -420 764 -420 c 0,21,22
 691 -420 691 -420 616 -399 c 1,23,-1
 616 -245 l 1,24,25
 679 -272 679 -272 742 -272 c 0,26,27
 821 -272 821 -272 854.5 -222 c 128,-1,28
 888 -172 888 -172 888 -55 c 2,29,-1
 888 716 l 2,30,31
 888 837 888 837 852.5 888.5 c 128,-1,32
 817 940 817 940 735 940 c 0,33,34
 554 940 554 940 394 703 c 1,35,-1
 394 0 l 1,36,-1
 197 0 l 1,0,-1
EndSplineSet
Validated: 1
EndChar

StartChar: ibar
Encoding: 616 616 503
Width: 789
GlyphClass: 2
Flags: W
LayerCount: 2
Fore
SplineSet
296 0 m 1,0,-1
 296 543 l 1,1,-1
 49 543 l 1,2,-1
 49 691 l 1,3,-1
 296 691 l 1,4,-1
 296 1086 l 1,5,-1
 493 1086 l 1,6,-1
 493 691 l 1,7,-1
 740 691 l 1,8,-1
 740 543 l 1,9,-1
 493 543 l 1,10,-1
 493 0 l 1,11,-1
 296 0 l 1,0,-1
296 1283 m 1,12,-1
 296 1480 l 1,13,-1
 493 1480 l 1,14,-1
 493 1283 l 1,15,-1
 296 1283 l 1,12,-1
EndSplineSet
Validated: 1
EndChar

StartChar: iota1
Encoding: 617 617 504
Width: 759
GlyphClass: 2
Flags: W
LayerCount: 2
Fore
SplineSet
697 17 m 1,0,1
 605 -25 605 -25 503 -25 c 0,2,3
 350 -25 350 -25 265 70 c 0,4,5
 191 153 191 153 191 382 c 2,6,-1
 191 1086 l 1,7,-1
 388 1086 l 1,8,-1
 388 401 l 2,9,10
 388 249 388 249 423.5 186 c 128,-1,11
 459 123 459 123 545 123 c 0,12,13
 618 123 618 123 697 165 c 1,14,-1
 697 17 l 1,0,1
EndSplineSet
Validated: 1
EndChar

StartChar: Ismallcap
Encoding: 618 618 505
Width: 839
GlyphClass: 2
Flags: W
LayerCount: 2
Fore
SplineSet
123 0 m 1,0,-1
 123 148 l 1,1,-1
 320 148 l 1,2,-1
 320 938 l 1,3,-1
 123 938 l 1,4,-1
 123 1086 l 1,5,-1
 715 1086 l 1,6,-1
 715 938 l 1,7,-1
 518 938 l 1,8,-1
 518 148 l 1,9,-1
 715 148 l 1,10,-1
 715 0 l 1,11,-1
 123 0 l 1,0,-1
EndSplineSet
Validated: 1
EndChar

StartChar: lmidtilde
Encoding: 619 619 506
Width: 1036
GlyphClass: 2
Flags: W
LayerCount: 2
Fore
SplineSet
617 1579 m 1,0,-1
 617 883 l 1,1,2
 684 851 684 851 747 851 c 0,3,4
 850 851 850 851 850 1011 c 1,5,-1
 851 1036 l 1,6,-1
 999 1036 l 1,7,8
 999 703 999 703 747 703 c 0,9,10
 685 703 685 703 617 727 c 1,11,-1
 617 0 l 1,12,-1
 419 0 l 1,13,-1
 419 785 l 1,14,15
 351 814 351 814 290 814 c 0,16,17
 185 814 185 814 185 629 c 1,18,-1
 37 629 l 1,19,20
 37 786 37 786 105 874 c 128,-1,21
 173 962 173 962 295 962 c 0,22,23
 360 962 360 962 419 943 c 1,24,-1
 419 1579 l 1,25,-1
 617 1579 l 1,0,-1
EndSplineSet
Validated: 1
EndChar

StartChar: lbelt
Encoding: 620 620 507
Width: 1061
GlyphClass: 2
Flags: W
LayerCount: 2
Fore
SplineSet
740 1579 m 1,0,-1
 740 777 l 1,1,-1
 1036 777 l 1,2,-1
 1036 629 l 1,3,-1
 740 629 l 1,4,-1
 740 0 l 1,5,-1
 543 0 l 1,6,-1
 543 629 l 1,7,-1
 456 629 l 2,8,9
 25 629 25 629 25 917 c 0,10,11
 25 1015 25 1015 92.5 1083 c 128,-1,12
 160 1151 160 1151 258 1151 c 0,13,14
 410 1151 410 1151 543 985 c 1,15,-1
 543 1579 l 1,16,-1
 740 1579 l 1,0,-1
543 777 m 1,17,18
 474 877 474 877 392.5 940 c 128,-1,19
 311 1003 311 1003 252 1003 c 0,20,21
 173 1003 173 1003 173 916 c 0,22,23
 173 836 173 836 242.5 806.5 c 128,-1,24
 312 777 312 777 498 777 c 2,25,-1
 543 777 l 1,17,18
EndSplineSet
Validated: 1
EndChar

StartChar: lrthook
Encoding: 621 621 508
Width: 611
GlyphClass: 2
Flags: W
LayerCount: 2
Fore
SplineSet
197 1579 m 1,0,-1
 394 1579 l 1,1,-1
 394 -55 l 2,2,3
 394 -173 394 -173 427.5 -222.5 c 128,-1,4
 461 -272 461 -272 541 -272 c 0,5,6
 604 -272 604 -272 666 -245 c 1,7,-1
 666 -399 l 1,8,9
 591 -420 591 -420 518 -420 c 0,10,11
 367 -420 367 -420 282 -333 c 128,-1,12
 197 -246 197 -246 197 -92 c 2,13,-1
 197 1579 l 1,0,-1
EndSplineSet
Validated: 1
EndChar

StartChar: lyogh
Encoding: 622 622 509
Width: 1345
GlyphClass: 2
Flags: W
LayerCount: 2
Fore
SplineSet
394 1579 m 1,0,-1
 394 1086 l 1,1,-1
 1215 1086 l 1,2,-1
 1215 938 l 1,3,-1
 779 476 l 1,4,5
 996 465 996 465 1124 350 c 128,-1,6
 1252 235 1252 235 1252 50 c 0,7,8
 1252 -150 1252 -150 1097 -292 c 0,9,10
 957 -419 957 -419 704 -419 c 0,11,12
 599 -419 599 -419 444 -387 c 1,13,-1
 444 -224 l 1,14,15
 614 -271 614 -271 708 -271 c 0,16,17
 858 -271 858 -271 950 -189 c 128,-1,18
 1042 -107 1042 -107 1042 28 c 0,19,20
 1042 179 1042 179 924.5 261.5 c 128,-1,21
 807 344 807 344 592 344 c 1,22,-1
 592 493 l 1,23,-1
 1010 938 l 1,24,-1
 394 938 l 1,25,-1
 394 0 l 1,26,-1
 197 0 l 1,27,-1
 197 1579 l 1,28,-1
 394 1579 l 1,0,-1
EndSplineSet
Validated: 1
EndChar

StartChar: mturn
Encoding: 623 623 510
Width: 1912
GlyphClass: 2
Flags: W
LayerCount: 2
Fore
SplineSet
1715 1086 m 1,0,-1
 1715 0 l 1,1,-1
 1517 0 l 1,2,-1
 1517 204 l 1,3,4
 1374 -25 1374 -25 1148 -25 c 0,5,6
 930 -25 930 -25 851 204 c 1,7,8
 711 -25 711 -25 487 -25 c 0,9,10
 343 -25 343 -25 264 59.5 c 128,-1,11
 185 144 185 144 185 296 c 2,12,-1
 185 1086 l 1,13,-1
 382 1086 l 1,14,-1
 382 327 l 2,15,16
 382 140 382 140 530 140 c 0,17,18
 683 140 683 140 851 358 c 1,19,-1
 851 1086 l 1,20,-1
 1049 1086 l 1,21,-1
 1049 327 l 2,22,23
 1049 139 1049 139 1199 139 c 0,24,25
 1348 139 1348 139 1517 358 c 1,26,-1
 1517 1086 l 1,27,-1
 1715 1086 l 1,0,-1
EndSplineSet
Validated: 1
EndChar

StartChar: mturndescend
Encoding: 624 624 511
Width: 1912
GlyphClass: 2
Flags: W
LayerCount: 2
Fore
SplineSet
185 1086 m 1,0,-1
 382 1086 l 1,1,-1
 382 327 l 2,2,3
 382 140 382 140 530 140 c 0,4,5
 683 140 683 140 851 358 c 1,6,-1
 851 1086 l 1,7,-1
 1049 1086 l 1,8,-1
 1049 327 l 2,9,10
 1049 139 1049 139 1199 139 c 0,11,12
 1348 139 1348 139 1517 358 c 1,13,-1
 1517 1086 l 1,14,-1
 1715 1086 l 1,15,-1
 1715 -395 l 1,16,-1
 1517 -395 l 1,17,-1
 1517 204 l 1,18,19
 1374 -25 1374 -25 1148 -25 c 0,20,21
 930 -25 930 -25 851 204 c 1,22,23
 711 -25 711 -25 487 -25 c 0,24,25
 343 -25 343 -25 264 59.5 c 128,-1,26
 185 144 185 144 185 296 c 2,27,-1
 185 1086 l 1,0,-1
EndSplineSet
Validated: 1
EndChar

StartChar: mhook
Encoding: 625 625 512
Width: 1912
GlyphClass: 2
Flags: W
LayerCount: 2
Fore
SplineSet
197 0 m 1,0,-1
 197 1086 l 1,1,-1
 394 1086 l 1,2,-1
 394 882 l 1,3,4
 538 1110 538 1110 764 1110 c 0,5,6
 982 1110 982 1110 1061 882 c 1,7,8
 1201 1111 1201 1111 1425 1111 c 0,9,10
 1568 1111 1568 1111 1647.5 1026.5 c 128,-1,11
 1727 942 1727 942 1727 790 c 2,12,-1
 1727 -92 l 2,13,14
 1727 -246 1727 -246 1642 -333 c 128,-1,15
 1557 -420 1557 -420 1406 -420 c 0,16,17
 1332 -420 1332 -420 1258 -399 c 1,18,-1
 1258 -245 l 1,19,20
 1320 -272 1320 -272 1383 -272 c 0,21,22
 1462 -272 1462 -272 1495.5 -222 c 128,-1,23
 1529 -172 1529 -172 1529 -55 c 2,24,-1
 1529 759 l 2,25,26
 1529 945 1529 945 1382 945 c 0,27,28
 1229 945 1229 945 1061 728 c 1,29,-1
 1061 0 l 1,30,-1
 863 0 l 1,31,-1
 863 759 l 2,32,33
 863 946 863 946 713 946 c 0,34,35
 564 946 564 946 394 728 c 1,36,-1
 394 0 l 1,37,-1
 197 0 l 1,0,-1
EndSplineSet
Validated: 1
EndChar

StartChar: nlftlfthook
Encoding: 626 626 513
Width: 1289
GlyphClass: 2
Flags: W
LayerCount: 2
Fore
SplineSet
217 1086 m 1,0,-1
 414 1086 l 1,1,-1
 414 882 l 1,2,3
 570 1110 570 1110 795 1110 c 0,4,5
 937 1110 937 1110 1021 1020.5 c 128,-1,6
 1105 931 1105 931 1105 780 c 2,7,-1
 1105 0 l 1,8,-1
 907 0 l 1,9,-1
 907 716 l 2,10,11
 907 837 907 837 872 888.5 c 128,-1,12
 837 940 837 940 754 940 c 0,13,14
 573 940 573 940 414 703 c 1,15,-1
 414 -92 l 2,16,17
 414 -246 414 -246 329 -333 c 128,-1,18
 244 -420 244 -420 93 -420 c 0,19,20
 20 -420 20 -420 -55 -399 c 1,21,-1
 -55 -245 l 1,22,23
 7 -272 7 -272 70 -272 c 0,24,25
 150 -272 150 -272 183.5 -222 c 128,-1,26
 217 -172 217 -172 217 -55 c 2,27,-1
 217 1086 l 1,0,-1
EndSplineSet
Validated: 1
EndChar

StartChar: nrthook
Encoding: 627 627 514
Width: 1296
GlyphClass: 2
Flags: W
LayerCount: 2
Fore
SplineSet
394 703 m 1,0,-1
 394 0 l 1,1,-1
 197 0 l 1,2,-1
 197 1086 l 1,3,-1
 394 1086 l 1,4,-1
 394 882 l 1,5,6
 550 1110 550 1110 776 1110 c 0,7,8
 918 1110 918 1110 1001.5 1020.5 c 128,-1,9
 1085 931 1085 931 1085 780 c 2,10,-1
 1085 -55 l 2,11,12
 1085 -173 1085 -173 1118.5 -222.5 c 128,-1,13
 1152 -272 1152 -272 1232 -272 c 0,14,15
 1295 -272 1295 -272 1357 -245 c 1,16,-1
 1357 -399 l 1,17,18
 1282 -420 1282 -420 1209 -420 c 0,19,20
 1058 -420 1058 -420 973 -333 c 128,-1,21
 888 -246 888 -246 888 -92 c 2,22,-1
 888 716 l 2,23,24
 888 837 888 837 852.5 888.5 c 128,-1,25
 817 940 817 940 735 940 c 0,26,27
 554 940 554 940 394 703 c 1,0,-1
EndSplineSet
Validated: 1
EndChar

StartChar: Nsmallcap
Encoding: 628 628 515
Width: 1283
GlyphClass: 2
Flags: W
LayerCount: 2
Fore
SplineSet
197 0 m 1,0,-1
 197 1086 l 1,1,-1
 370 1086 l 1,2,-1
 913 307 l 1,3,-1
 913 1086 l 1,4,-1
 1085 1086 l 1,5,-1
 1085 0 l 1,6,-1
 913 0 l 1,7,-1
 370 779 l 1,8,-1
 370 0 l 1,9,-1
 197 0 l 1,0,-1
EndSplineSet
Validated: 1
EndChar

StartChar: obar
Encoding: 629 629 516
Width: 1258
GlyphClass: 2
Flags: W
LayerCount: 2
Fore
SplineSet
323 481 m 1,0,1
 349 123 349 123 629 123 c 256,2,3
 909 123 909 123 935 481 c 1,4,-1
 323 481 l 1,0,1
933 629 m 1,5,6
 899 962 899 962 629 962 c 256,7,8
 359 962 359 962 325 629 c 1,9,-1
 933 629 l 1,5,6
629 -25 m 256,10,11
 390 -25 390 -25 250.5 128 c 128,-1,12
 111 281 111 281 111 543 c 256,13,14
 111 805 111 805 250.5 957.5 c 128,-1,15
 390 1110 390 1110 629 1110 c 256,16,17
 868 1110 868 1110 1007.5 957.5 c 128,-1,18
 1147 805 1147 805 1147 543 c 256,19,20
 1147 281 1147 281 1007.5 128 c 128,-1,21
 868 -25 868 -25 629 -25 c 256,10,11
EndSplineSet
Validated: 1
EndChar

StartChar: OEsmallcap
Encoding: 630 630 517
Width: 1659
GlyphClass: 2
Flags: W
LayerCount: 2
Fore
SplineSet
880 21 m 1,0,1
 752 -25 752 -25 650 -25 c 0,2,3
 407 -25 407 -25 259 131.5 c 128,-1,4
 111 288 111 288 111 544 c 0,5,6
 111 799 111 799 259 954.5 c 128,-1,7
 407 1110 407 1110 649 1110 c 0,8,9
 750 1110 750 1110 880 1068 c 1,10,-1
 880 1086 l 1,11,-1
 1540 1086 l 1,12,-1
 1540 938 l 1,13,-1
 1077 938 l 1,14,-1
 1077 640 l 1,15,-1
 1466 640 l 1,16,-1
 1468 496 l 1,17,-1
 1077 496 l 1,18,-1
 1077 148 l 1,19,-1
 1560 148 l 1,20,-1
 1560 0 l 1,21,-1
 880 0 l 1,22,-1
 880 21 l 1,0,1
880 418 m 2,23,-1
 880 670 l 2,24,25
 880 962 880 962 645 962 c 0,26,27
 492 962 492 962 405 851 c 128,-1,28
 318 740 318 740 318 544 c 0,29,30
 318 346 318 346 405 234.5 c 128,-1,31
 492 123 492 123 647 123 c 0,32,33
 880 123 880 123 880 418 c 2,23,-1
EndSplineSet
Validated: 1
EndChar

StartChar: omegaclosed
Encoding: 631 631 518
Width: 1653
GlyphClass: 2
Flags: W
LayerCount: 2
Fore
SplineSet
827 165 m 1,0,1
 696 -25 696 -25 506 -25 c 0,2,3
 331 -25 331 -25 221 111 c 128,-1,4
 111 247 111 247 111 462 c 0,5,6
 111 759 111 759 305 934.5 c 128,-1,7
 499 1110 499 1110 827 1110 c 0,8,9
 1154 1110 1154 1110 1348 934.5 c 128,-1,10
 1542 759 1542 759 1542 461 c 0,11,12
 1542 247 1542 247 1432 111 c 128,-1,13
 1322 -25 1322 -25 1147 -25 c 0,14,15
 957 -25 957 -25 827 165 c 1,0,1
753 340 m 1,16,17
 709 436 709 436 709 527 c 0,18,19
 709 629 709 629 753 734 c 1,20,-1
 900 734 l 1,21,22
 944 629 944 629 944 527 c 0,23,24
 944 436 944 436 900 340 c 1,25,26
 934 256 934 256 997 205 c 128,-1,27
 1060 154 1060 154 1131 154 c 0,28,29
 1230 154 1230 154 1290.5 242.5 c 128,-1,30
 1351 331 1351 331 1351 475 c 0,31,32
 1351 675 1351 675 1220 819 c 0,33,34
 1089 962 1089 962 817 962 c 0,35,36
 564 962 564 962 433 819 c 0,37,38
 302 675 302 675 302 475 c 0,39,40
 302 331 302 331 362.5 242.5 c 128,-1,41
 423 154 423 154 522 154 c 0,42,43
 593 154 593 154 656 205 c 128,-1,44
 719 256 719 256 753 340 c 1,16,17
EndSplineSet
Validated: 1
EndChar

StartChar: philatin
Encoding: 632 632 519
Width: 1555
GlyphClass: 2
Flags: W
LayerCount: 2
Fore
SplineSet
679 -395 m 1,0,-1
 679 32 l 1,1,2
 415 32 415 32 257 171 c 128,-1,3
 99 310 99 310 99 541 c 256,4,5
 99 772 99 772 257 910 c 128,-1,6
 415 1048 415 1048 679 1048 c 1,7,-1
 679 1579 l 1,8,-1
 876 1579 l 1,9,-1
 876 1048 l 1,10,11
 1140 1048 1140 1048 1298 910 c 128,-1,12
 1456 772 1456 772 1456 541 c 256,13,14
 1456 310 1456 310 1298 171 c 128,-1,15
 1140 32 1140 32 876 32 c 1,16,-1
 876 -395 l 1,17,-1
 679 -395 l 1,0,-1
679 898 m 1,18,19
 491 886 491 886 393.5 794.5 c 128,-1,20
 296 703 296 703 296 540 c 0,21,22
 296 381 296 381 402.5 281.5 c 128,-1,23
 509 182 509 182 679 182 c 1,24,-1
 679 898 l 1,18,19
876 898 m 1,25,-1
 876 182 l 1,26,27
 1046 182 1046 182 1152.5 281.5 c 128,-1,28
 1259 381 1259 381 1259 540 c 0,29,30
 1259 703 1259 703 1161.5 794.5 c 128,-1,31
 1064 886 1064 886 876 898 c 1,25,-1
EndSplineSet
Validated: 1
EndChar

StartChar: rturn
Encoding: 633 633 520
Width: 838
GlyphClass: 2
Flags: W
LayerCount: 2
Fore
SplineSet
640 1086 m 1,0,-1
 640 0 l 1,1,-1
 443 0 l 1,2,-1
 443 204 l 1,3,4
 326 -25 326 -25 103 -25 c 0,5,6
 73 -25 73 -25 40 -19 c 1,7,-1
 40 165 l 1,8,9
 91 148 91 148 131 148 c 0,10,11
 317 148 317 148 443 370 c 1,12,-1
 443 1086 l 1,13,-1
 640 1086 l 1,0,-1
EndSplineSet
Validated: 1
EndChar

StartChar: rturnascend
Encoding: 634 634 521
Width: 838
GlyphClass: 2
Flags: W
LayerCount: 2
Fore
SplineSet
640 1579 m 1,0,-1
 640 0 l 1,1,-1
 443 0 l 1,2,-1
 443 204 l 1,3,4
 326 -25 326 -25 103 -25 c 0,5,6
 73 -25 73 -25 40 -19 c 1,7,-1
 40 165 l 1,8,9
 91 148 91 148 131 148 c 0,10,11
 317 148 317 148 443 370 c 1,12,-1
 443 1579 l 1,13,-1
 640 1579 l 1,0,-1
EndSplineSet
Validated: 1
EndChar

StartChar: rturnrthook
Encoding: 635 635 522
Width: 875
GlyphClass: 2
Flags: W
LayerCount: 2
Fore
SplineSet
443 204 m 1,0,1
 326 -25 326 -25 103 -25 c 0,2,3
 73 -25 73 -25 40 -19 c 1,4,-1
 40 165 l 1,5,6
 91 148 91 148 131 148 c 0,7,8
 317 148 317 148 443 370 c 1,9,-1
 443 1086 l 1,10,-1
 640 1086 l 1,11,-1
 640 -55 l 2,12,13
 640 -173 640 -173 673.5 -222.5 c 128,-1,14
 707 -272 707 -272 787 -272 c 0,15,16
 849 -272 849 -272 912 -245 c 1,17,-1
 912 -399 l 1,18,19
 837 -420 837 -420 764 -420 c 0,20,21
 613 -420 613 -420 528 -333 c 128,-1,22
 443 -246 443 -246 443 -92 c 2,23,-1
 443 204 l 1,0,1
EndSplineSet
Validated: 1
EndChar

StartChar: rdescend
Encoding: 636 636 523
Width: 838
GlyphClass: 2
Flags: W
LayerCount: 2
Fore
SplineSet
197 -395 m 1,0,-1
 197 1086 l 1,1,-1
 394 1086 l 1,2,-1
 394 882 l 1,3,4
 511 1110 511 1110 734 1110 c 0,5,6
 764 1110 764 1110 797 1105 c 1,7,-1
 797 921 l 1,8,9
 746 938 746 938 707 938 c 0,10,11
 520 938 520 938 394 716 c 1,12,-1
 394 -395 l 1,13,-1
 197 -395 l 1,0,-1
EndSplineSet
Validated: 1
EndChar

StartChar: rrthook
Encoding: 637 637 524
Width: 838
GlyphClass: 2
Flags: W
LayerCount: 2
Fore
SplineSet
197 1086 m 1,0,-1
 394 1086 l 1,1,-1
 394 882 l 1,2,3
 511 1110 511 1110 734 1110 c 0,4,5
 764 1110 764 1110 797 1105 c 1,6,-1
 797 921 l 1,7,8
 746 938 746 938 707 938 c 0,9,10
 520 938 520 938 394 716 c 1,11,-1
 394 -55 l 2,12,13
 394 -173 394 -173 427.5 -222.5 c 128,-1,14
 461 -272 461 -272 541 -272 c 0,15,16
 604 -272 604 -272 666 -245 c 1,17,-1
 666 -399 l 1,18,19
 591 -420 591 -420 518 -420 c 0,20,21
 367 -420 367 -420 282 -333 c 128,-1,22
 197 -246 197 -246 197 -92 c 2,23,-1
 197 1086 l 1,0,-1
EndSplineSet
Validated: 1
EndChar

StartChar: rfishhook
Encoding: 638 638 525
Width: 842
GlyphClass: 2
Flags: W
LayerCount: 2
Fore
SplineSet
197 0 m 1,0,-1
 197 592 l 2,1,2
 197 1110 197 1110 583 1110 c 0,3,4
 694 1110 694 1110 801 1071 c 1,5,-1
 801 908 l 1,6,7
 691 962 691 962 587 962 c 0,8,9
 475 962 475 962 434.5 885 c 128,-1,10
 394 808 394 808 394 592 c 2,11,-1
 394 0 l 1,12,-1
 197 0 l 1,0,-1
EndSplineSet
Validated: 1
EndChar

StartChar: rfishhookrev
Encoding: 639 639 526
Width: 842
GlyphClass: 2
Flags: W
LayerCount: 2
Fore
SplineSet
644 0 m 1,0,-1
 447 0 l 1,1,-1
 447 592 l 2,2,3
 447 809 447 809 407 885.5 c 128,-1,4
 367 962 367 962 254 962 c 0,5,6
 150 962 150 962 40 908 c 1,7,-1
 40 1071 l 1,8,9
 148 1110 148 1110 260 1110 c 0,10,11
 644 1110 644 1110 644 592 c 2,12,-1
 644 0 l 1,0,-1
EndSplineSet
Validated: 1
EndChar

StartChar: Rsmallcap
Encoding: 640 640 527
Width: 1127
GlyphClass: 2
Flags: W
LayerCount: 2
Fore
SplineSet
197 0 m 1,0,-1
 197 1086 l 1,1,-1
 611 1086 l 2,2,3
 941 1086 941 1086 941 817 c 0,4,5
 941 600 941 600 737 509 c 1,6,-1
 1087 0 l 1,7,-1
 848 0 l 1,8,-1
 546 444 l 1,9,-1
 394 444 l 1,10,-1
 394 0 l 1,11,-1
 197 0 l 1,0,-1
394 592 m 1,12,-1
 482 592 l 2,13,14
 739 592 739 592 739 796 c 0,15,16
 739 878 739 878 687.5 908 c 128,-1,17
 636 938 636 938 493 938 c 2,18,-1
 394 938 l 1,19,-1
 394 592 l 1,12,-1
EndSplineSet
Validated: 1
EndChar

